solid OpenSCAD_Model
  facet normal -0.0836222 0 -0.996498
    outer loop
      vertex 17.875 -47.8 25.5
      vertex 17.875 0 25.5
      vertex 23.8333 -47.8 25
    endloop
  endfacet
  facet normal -0.0836222 0 -0.996498
    outer loop
      vertex 23.3484 -2 25.0407
      vertex 17.875 0 25.5
      vertex 24.5031 0 24.9438
    endloop
  endfacet
  facet normal -0.0836222 0 -0.996498
    outer loop
      vertex 23.8333 -47.8 25
      vertex 17.875 0 25.5
      vertex 23.3484 -2 25.0407
    endloop
  endfacet
  facet normal -0.0836222 0 -0.996498
    outer loop
      vertex 29.7917 -3 24.5
      vertex 30.2766 -2 24.4593
      vertex 35.75 0 24
    endloop
  endfacet
  facet normal -0.0836222 0 -0.996498
    outer loop
      vertex 30.2766 -2 24.4593
      vertex 29.1219 0 24.5562
      vertex 35.75 0 24
    endloop
  endfacet
  facet normal -0.0836222 0 -0.996498
    outer loop
      vertex 29.7917 -47.8 24.5
      vertex 35.75 0 24
      vertex 35.75 -47.8 24
    endloop
  endfacet
  facet normal -0.0836222 0 -0.996498
    outer loop
      vertex 29.7917 -3 24.5
      vertex 35.75 0 24
      vertex 29.7917 -47.8 24.5
    endloop
  endfacet
  facet normal -0.0836222 0 -0.996498
    outer loop
      vertex 23.8333 -47.8 25
      vertex 23.3484 -2 25.0407
      vertex 23.8333 -3 25
    endloop
  endfacet
  facet normal -0.0836222 0 -0.996498
    outer loop
      vertex 30.2766 -2 24.4593
      vertex 29.7917 -3 24.5
      vertex 23.8333 -3 25
    endloop
  endfacet
  facet normal -0.0836222 0 -0.996498
    outer loop
      vertex 30.2766 -2 24.4593
      vertex 23.8333 -3 25
      vertex 23.3484 -2 25.0407
    endloop
  endfacet
  facet normal -1 0 0
    outer loop
      vertex 17.875 -3 28.4876
      vertex 17.875 0 25.5
      vertex 17.875 -44.8 28.4876
    endloop
  endfacet
  facet normal -1 0 0
    outer loop
      vertex 17.875 -47.8 25.5
      vertex 17.875 -47.8 41.375
      vertex 17.875 -44.8 28.4876
    endloop
  endfacet
  facet normal -1 0 0
    outer loop
      vertex 17.875 -47.8 25.5
      vertex 17.875 -44.8 28.4876
      vertex 17.875 0 25.5
    endloop
  endfacet
  facet normal -1 0 0
    outer loop
      vertex 17.875 0 25.5
      vertex 17.875 -3 28.4876
      vertex 17.875 -3 41.375
    endloop
  endfacet
  facet normal -1 0 0
    outer loop
      vertex 17.875 0 25.5
      vertex 17.875 -3 41.375
      vertex 17.875 0 41.375
    endloop
  endfacet
  facet normal -1 0 0
    outer loop
      vertex 17.875 -44.8 28.4876
      vertex 17.875 -47.8 41.375
      vertex 17.875 -44.8 41.375
    endloop
  endfacet
  facet normal 0 -1 0
    outer loop
      vertex 17.875 -47.8 41.375
      vertex 17.875 -47.8 25.5
      vertex 23.8333 -47.8 25
    endloop
  endfacet
  facet normal 0 -1 0
    outer loop
      vertex 29.7917 -47.8 24.5
      vertex 17.875 -47.8 41.375
      vertex 23.8333 -47.8 25
    endloop
  endfacet
  facet normal 0 -1 0
    outer loop
      vertex 23.8333 -47.8 -2.66646
      vertex 29.7917 -47.8 -2.66646
      vertex 23.8333 -47.8 25
    endloop
  endfacet
  facet normal 0 -1 0
    outer loop
      vertex 29.7917 -47.8 -2.66646
      vertex 29.7917 -47.8 24.5
      vertex 23.8333 -47.8 25
    endloop
  endfacet
  facet normal 0 -1 0
    outer loop
      vertex 29.7917 -47.8 24.5
      vertex 35.75 -47.8 24
      vertex 17.875 -47.8 41.375
    endloop
  endfacet
  facet normal 0 -1 0
    outer loop
      vertex 35.75 -47.8 24
      vertex 35.85 -47.8 24
      vertex 17.875 -47.8 41.375
    endloop
  endfacet
  facet normal 0 -1 0
    outer loop
      vertex 35.85 -47.8 24
      vertex 35.85 -47.8 39.875
      vertex 17.875 -47.8 41.375
    endloop
  endfacet
  facet normal 0 -1 0
    outer loop
      vertex 35.85 -47.8 39.875
      vertex 17.975 -47.8 41.375
      vertex 17.875 -47.8 41.375
    endloop
  endfacet
  facet normal -1 0 0
    outer loop
      vertex 23.8333 -47.8 -2.66646
      vertex 23.8333 -47.8 25
      vertex 23.8333 -44.3247 -1.91367
    endloop
  endfacet
  facet normal -1 0 0
    outer loop
      vertex 23.8333 -44.3247 -1.91367
      vertex 23.8333 -47.8 25
      vertex 23.8333 -3 25
    endloop
  endfacet
  facet normal -1 0 0
    outer loop
      vertex 23.8333 -3.47527 -1.91367
      vertex 23.8333 -3 25
      vertex 23.8333 -3 -2.01662
    endloop
  endfacet
  facet normal -1 0 0
    outer loop
      vertex 23.8333 -8.49374 -1.07951
      vertex 23.8333 -3 25
      vertex 23.8333 -3.47527 -1.91367
    endloop
  endfacet
  facet normal -1 0 0
    outer loop
      vertex 23.8333 -13.5873 -0.480757
      vertex 23.8333 -3 25
      vertex 23.8333 -8.49374 -1.07951
    endloop
  endfacet
  facet normal -1 0 0
    outer loop
      vertex 23.8333 -18.731 -0.120336
      vertex 23.8333 -3 25
      vertex 23.8333 -13.5873 -0.480757
    endloop
  endfacet
  facet normal -1 0 0
    outer loop
      vertex 23.8333 -23.9 2.43561e-30
      vertex 23.8333 -3 25
      vertex 23.8333 -18.731 -0.120336
    endloop
  endfacet
  facet normal -1 0 0
    outer loop
      vertex 23.8333 -29.069 -0.120336
      vertex 23.8333 -3 25
      vertex 23.8333 -23.9 2.43561e-30
    endloop
  endfacet
  facet normal -1 0 0
    outer loop
      vertex 23.8333 -34.2127 -0.480757
      vertex 23.8333 -3 25
      vertex 23.8333 -29.069 -0.120336
    endloop
  endfacet
  facet normal -1 0 0
    outer loop
      vertex 23.8333 -39.3063 -1.07951
      vertex 23.8333 -3 25
      vertex 23.8333 -34.2127 -0.480757
    endloop
  endfacet
  facet normal -1 0 0
    outer loop
      vertex 23.8333 -44.3247 -1.91367
      vertex 23.8333 -3 25
      vertex 23.8333 -39.3063 -1.07951
    endloop
  endfacet
  facet normal 0 1 0
    outer loop
      vertex 23.8333 -3 -2.01662
      vertex 23.8333 -3 25
      vertex 29.7917 -3 -2.01662
    endloop
  endfacet
  facet normal 0 1 0
    outer loop
      vertex 29.7917 -3 -2.01662
      vertex 23.8333 -3 25
      vertex 29.7917 -3 24.5
    endloop
  endfacet
  facet normal 1 0 0
    outer loop
      vertex 29.7917 -34.2127 -0.480757
      vertex 29.7917 -29.069 -0.120336
      vertex 29.7917 -47.8 24.5
    endloop
  endfacet
  facet normal 1 0 0
    outer loop
      vertex 29.7917 -47.8 24.5
      vertex 29.7917 -47.8 -2.66646
      vertex 29.7917 -44.3247 -1.91367
    endloop
  endfacet
  facet normal 1 0 0
    outer loop
      vertex 29.7917 -29.069 -0.120336
      vertex 29.7917 -23.9 1.32302e-15
      vertex 29.7917 -47.8 24.5
    endloop
  endfacet
  facet normal 1 0 0
    outer loop
      vertex 29.7917 -39.3063 -1.07951
      vertex 29.7917 -47.8 24.5
      vertex 29.7917 -44.3247 -1.91367
    endloop
  endfacet
  facet normal 1 0 0
    outer loop
      vertex 29.7917 -39.3063 -1.07951
      vertex 29.7917 -34.2127 -0.480757
      vertex 29.7917 -47.8 24.5
    endloop
  endfacet
  facet normal 1 0 0
    outer loop
      vertex 29.7917 -23.9 1.32302e-15
      vertex 29.7917 -18.731 -0.120336
      vertex 29.7917 -47.8 24.5
    endloop
  endfacet
  facet normal 1 0 0
    outer loop
      vertex 29.7917 -18.731 -0.120336
      vertex 29.7917 -13.5873 -0.480757
      vertex 29.7917 -47.8 24.5
    endloop
  endfacet
  facet normal 1 0 0
    outer loop
      vertex 29.7917 -13.5873 -0.480757
      vertex 29.7917 -8.49374 -1.07951
      vertex 29.7917 -47.8 24.5
    endloop
  endfacet
  facet normal 1 0 0
    outer loop
      vertex 29.7917 -8.49374 -1.07951
      vertex 29.7917 -3.47527 -1.91367
      vertex 29.7917 -47.8 24.5
    endloop
  endfacet
  facet normal 1 0 0
    outer loop
      vertex 29.7917 -3.47527 -1.91367
      vertex 29.7917 -3 -2.01662
      vertex 29.7917 -47.8 24.5
    endloop
  endfacet
  facet normal 1 0 0
    outer loop
      vertex 29.7917 -3 -2.01662
      vertex 29.7917 -3 24.5
      vertex 29.7917 -47.8 24.5
    endloop
  endfacet
  facet normal 0 0 -1
    outer loop
      vertex 35.75 -47.8 24
      vertex 35.75 0 24
      vertex 35.85 -47.8 24
    endloop
  endfacet
  facet normal 0 0 -1
    outer loop
      vertex 35.85 -47.8 24
      vertex 35.75 0 24
      vertex 35.85 0 24
    endloop
  endfacet
  facet normal 0 1 0
    outer loop
      vertex 29.1219 0 24.5562
      vertex 29.1219 0 40.4396
      vertex 35.75 0 24
    endloop
  endfacet
  facet normal 0 1 0
    outer loop
      vertex 35.75 0 24
      vertex 29.1219 0 40.4396
      vertex 35.85 0 39.875
    endloop
  endfacet
  facet normal 0 1 0
    outer loop
      vertex 35.75 0 24
      vertex 35.85 0 39.875
      vertex 35.85 0 24
    endloop
  endfacet
  facet normal -0.866025 -0.5 0
    outer loop
      vertex 30.2766 -2 40.3427
      vertex 29.1219 0 40.4396
      vertex 30.2766 -2 24.4593
    endloop
  endfacet
  facet normal -0.866025 -0.5 0
    outer loop
      vertex 30.2766 -2 24.4593
      vertex 29.1219 0 40.4396
      vertex 29.1219 0 24.5562
    endloop
  endfacet
  facet normal 2.22045e-16 1 0
    outer loop
      vertex 30.2766 -2 40.3427
      vertex 30.2766 -2 24.4593
      vertex 23.3484 -2 40.9241
    endloop
  endfacet
  facet normal 2.22045e-16 1 0
    outer loop
      vertex 23.3484 -2 40.9241
      vertex 30.2766 -2 24.4593
      vertex 23.3484 -2 25.0407
    endloop
  endfacet
  facet normal 0.866025 -0.5 0
    outer loop
      vertex 24.5031 0 24.9438
      vertex 24.5031 0 40.8272
      vertex 23.3484 -2 40.9241
    endloop
  endfacet
  facet normal 0.866025 -0.5 0
    outer loop
      vertex 23.3484 -2 25.0407
      vertex 24.5031 0 24.9438
      vertex 23.3484 -2 40.9241
    endloop
  endfacet
  facet normal 0 1 0
    outer loop
      vertex 17.875 0 25.5
      vertex 17.875 0 41.375
      vertex 24.5031 0 24.9438
    endloop
  endfacet
  facet normal 0 1 0
    outer loop
      vertex 24.5031 0 24.9438
      vertex 17.875 0 41.375
      vertex 17.975 0 41.375
    endloop
  endfacet
  facet normal 0 1 0
    outer loop
      vertex 24.5031 0 24.9438
      vertex 17.975 0 41.375
      vertex 24.5031 0 40.8272
    endloop
  endfacet
  facet normal 0 0 1
    outer loop
      vertex 17.875 0 41.375
      vertex 17.875 -3 41.375
      vertex 17.975 -3 41.375
    endloop
  endfacet
  facet normal 0 0 1
    outer loop
      vertex 17.975 0 41.375
      vertex 17.875 0 41.375
      vertex 17.975 -3 41.375
    endloop
  endfacet
  facet normal 0 -1 0
    outer loop
      vertex 21.2155 -3 28.0717
      vertex 21.2155 -3 41.1031
      vertex 17.975 -3 41.375
    endloop
  endfacet
  facet normal 0 -1 0
    outer loop
      vertex 17.875 -3 28.4876
      vertex 21.2155 -3 28.0717
      vertex 17.875 -3 41.375
    endloop
  endfacet
  facet normal 0 -1 0
    outer loop
      vertex 17.875 -3 41.375
      vertex 21.2155 -3 28.0717
      vertex 17.975 -3 41.375
    endloop
  endfacet
  facet normal 0.123528 0 0.992341
    outer loop
      vertex 35.85 -44.8 26.25
      vertex 35.85 -3 26.25
      vertex 32.4095 -3 26.6783
    endloop
  endfacet
  facet normal 0.123528 0 0.992341
    outer loop
      vertex 23.1961 -3.88029 27.8252
      vertex 35.85 -44.8 26.25
      vertex 30.4289 -3.88029 26.9248
    endloop
  endfacet
  facet normal 0.123528 0 0.992341
    outer loop
      vertex 30.4289 -3.88029 26.9248
      vertex 35.85 -44.8 26.25
      vertex 32.4095 -3 26.6783
    endloop
  endfacet
  facet normal 0.123528 0 0.992341
    outer loop
      vertex 21.2155 -3 28.0717
      vertex 35.85 -44.8 26.25
      vertex 23.1961 -3.88029 27.8252
    endloop
  endfacet
  facet normal 0.123528 0 0.992341
    outer loop
      vertex 17.875 -3 28.4876
      vertex 35.85 -44.8 26.25
      vertex 21.2155 -3 28.0717
    endloop
  endfacet
  facet normal 0.123528 0 0.992341
    outer loop
      vertex 17.875 -44.8 28.4876
      vertex 35.85 -44.8 26.25
      vertex 17.875 -3 28.4876
    endloop
  endfacet
  facet normal 0 1 0
    outer loop
      vertex 17.975 -44.8 41.375
      vertex 35.85 -44.8 39.875
      vertex 17.875 -44.8 41.375
    endloop
  endfacet
  facet normal 0 1 0
    outer loop
      vertex 17.875 -44.8 41.375
      vertex 35.85 -44.8 39.875
      vertex 35.85 -44.8 26.25
    endloop
  endfacet
  facet normal 0 1 0
    outer loop
      vertex 17.875 -44.8 41.375
      vertex 35.85 -44.8 26.25
      vertex 17.875 -44.8 28.4876
    endloop
  endfacet
  facet normal 0 0 1
    outer loop
      vertex 17.875 -44.8 41.375
      vertex 17.875 -47.8 41.375
      vertex 17.975 -47.8 41.375
    endloop
  endfacet
  facet normal 0 0 1
    outer loop
      vertex 17.975 -44.8 41.375
      vertex 17.875 -44.8 41.375
      vertex 17.975 -47.8 41.375
    endloop
  endfacet
  facet normal 0.0836222 0 0.996498
    outer loop
      vertex 17.975 -44.8 41.375
      vertex 17.975 -47.8 41.375
      vertex 35.85 -47.8 39.875
    endloop
  endfacet
  facet normal 0.0836222 0 0.996498
    outer loop
      vertex 35.85 -44.8 39.875
      vertex 17.975 -44.8 41.375
      vertex 35.85 -47.8 39.875
    endloop
  endfacet
  facet normal 1 0 0
    outer loop
      vertex 35.85 -44.8 26.25
      vertex 35.85 -47.8 24
      vertex 35.85 0 24
    endloop
  endfacet
  facet normal 1 0 0
    outer loop
      vertex 35.85 -44.8 26.25
      vertex 35.85 -44.8 39.875
      vertex 35.85 -47.8 39.875
    endloop
  endfacet
  facet normal 1 0 0
    outer loop
      vertex 35.85 0 39.875
      vertex 35.85 -3 39.875
      vertex 35.85 0 24
    endloop
  endfacet
  facet normal 1 0 0
    outer loop
      vertex 35.85 -3 39.875
      vertex 35.85 -3 26.25
      vertex 35.85 0 24
    endloop
  endfacet
  facet normal 1 0 0
    outer loop
      vertex 35.85 -47.8 39.875
      vertex 35.85 -47.8 24
      vertex 35.85 -44.8 26.25
    endloop
  endfacet
  facet normal 1 0 0
    outer loop
      vertex 35.85 -3 26.25
      vertex 35.85 -44.8 26.25
      vertex 35.85 0 24
    endloop
  endfacet
  facet normal 2.17012e-16 0.211703 -0.977334
    outer loop
      vertex 29.7917 -44.3247 -1.91367
      vertex 29.7917 -47.8 -2.66646
      vertex 23.8333 -44.3247 -1.91367
    endloop
  endfacet
  facet normal 2.17012e-16 0.211703 -0.977334
    outer loop
      vertex 23.8333 -44.3247 -1.91367
      vertex 29.7917 -47.8 -2.66646
      vertex 23.8333 -47.8 -2.66646
    endloop
  endfacet
  facet normal 2.19039e-16 0.163969 -0.986466
    outer loop
      vertex 29.7917 -39.3063 -1.07951
      vertex 29.7917 -44.3247 -1.91367
      vertex 23.8333 -39.3063 -1.07951
    endloop
  endfacet
  facet normal 2.19039e-16 0.163969 -0.986466
    outer loop
      vertex 23.8333 -39.3063 -1.07951
      vertex 29.7917 -44.3247 -1.91367
      vertex 23.8333 -44.3247 -1.91367
    endloop
  endfacet
  facet normal 2.20526e-16 0.116748 -0.993162
    outer loop
      vertex 29.7917 -34.2127 -0.480757
      vertex 29.7917 -39.3063 -1.07951
      vertex 23.8333 -34.2127 -0.480757
    endloop
  endfacet
  facet normal 2.20526e-16 0.116748 -0.993162
    outer loop
      vertex 23.8333 -34.2127 -0.480757
      vertex 29.7917 -39.3063 -1.07951
      vertex 23.8333 -39.3063 -1.07951
    endloop
  endfacet
  facet normal 2.21502e-16 0.069898 -0.997554
    outer loop
      vertex 29.7917 -29.069 -0.120336
      vertex 29.7917 -34.2127 -0.480757
      vertex 23.8333 -29.069 -0.120336
    endloop
  endfacet
  facet normal 2.21502e-16 0.069898 -0.997554
    outer loop
      vertex 23.8333 -29.069 -0.120336
      vertex 29.7917 -34.2127 -0.480757
      vertex 23.8333 -34.2127 -0.480757
    endloop
  endfacet
  facet normal 2.21984e-16 0.0232742 -0.999729
    outer loop
      vertex 29.7917 -23.9 1.32302e-15
      vertex 29.7917 -29.069 -0.120336
      vertex 23.8333 -23.9 2.43561e-30
    endloop
  endfacet
  facet normal 2.21984e-16 0.0232742 -0.999729
    outer loop
      vertex 23.8333 -23.9 2.43561e-30
      vertex 29.7917 -29.069 -0.120336
      vertex 23.8333 -29.069 -0.120336
    endloop
  endfacet
  facet normal 2.21984e-16 -0.0232742 -0.999729
    outer loop
      vertex 29.7917 -18.731 -0.120336
      vertex 29.7917 -23.9 1.32302e-15
      vertex 23.8333 -18.731 -0.120336
    endloop
  endfacet
  facet normal 2.21984e-16 -0.0232742 -0.999729
    outer loop
      vertex 23.8333 -18.731 -0.120336
      vertex 29.7917 -23.9 1.32302e-15
      vertex 23.8333 -23.9 2.43561e-30
    endloop
  endfacet
  facet normal 2.21502e-16 -0.069898 -0.997554
    outer loop
      vertex 29.7917 -13.5873 -0.480757
      vertex 29.7917 -18.731 -0.120336
      vertex 23.8333 -13.5873 -0.480757
    endloop
  endfacet
  facet normal 2.21502e-16 -0.069898 -0.997554
    outer loop
      vertex 23.8333 -13.5873 -0.480757
      vertex 29.7917 -18.731 -0.120336
      vertex 23.8333 -18.731 -0.120336
    endloop
  endfacet
  facet normal 2.20526e-16 -0.116748 -0.993162
    outer loop
      vertex 29.7917 -8.49374 -1.07951
      vertex 29.7917 -13.5873 -0.480757
      vertex 23.8333 -8.49374 -1.07951
    endloop
  endfacet
  facet normal 2.20526e-16 -0.116748 -0.993162
    outer loop
      vertex 23.8333 -8.49374 -1.07951
      vertex 29.7917 -13.5873 -0.480757
      vertex 23.8333 -13.5873 -0.480757
    endloop
  endfacet
  facet normal 2.19039e-16 -0.163969 -0.986466
    outer loop
      vertex 29.7917 -3.47527 -1.91367
      vertex 29.7917 -8.49374 -1.07951
      vertex 23.8333 -3.47527 -1.91367
    endloop
  endfacet
  facet normal 2.19039e-16 -0.163969 -0.986466
    outer loop
      vertex 23.8333 -3.47527 -1.91367
      vertex 29.7917 -8.49374 -1.07951
      vertex 23.8333 -8.49374 -1.07951
    endloop
  endfacet
  facet normal 2.17012e-16 -0.211703 -0.977334
    outer loop
      vertex 29.7917 -3 -2.01662
      vertex 29.7917 -3.47527 -1.91367
      vertex 23.8333 -3 -2.01662
    endloop
  endfacet
  facet normal 2.17012e-16 -0.211703 -0.977334
    outer loop
      vertex 23.8333 -3 -2.01662
      vertex 29.7917 -3.47527 -1.91367
      vertex 23.8333 -3.47527 -1.91367
    endloop
  endfacet
  facet normal 0.0836222 0 0.996498
    outer loop
      vertex 17.975 0 41.375
      vertex 17.975 -3 41.375
      vertex 21.2155 -3 41.1031
    endloop
  endfacet
  facet normal 0.0836222 0 0.996498
    outer loop
      vertex 23.1961 -3.88029 40.9369
      vertex 17.975 0 41.375
      vertex 21.2155 -3 41.1031
    endloop
  endfacet
  facet normal 0.0836222 0 0.996498
    outer loop
      vertex 23.3484 -2 40.9241
      vertex 24.5031 0 40.8272
      vertex 17.975 0 41.375
    endloop
  endfacet
  facet normal 0.0836222 0 0.996498
    outer loop
      vertex 35.85 -3 39.875
      vertex 35.85 0 39.875
      vertex 29.1219 0 40.4396
    endloop
  endfacet
  facet normal 0.0836222 0 0.996498
    outer loop
      vertex 35.85 -3 39.875
      vertex 29.1219 0 40.4396
      vertex 30.2766 -2 40.3427
    endloop
  endfacet
  facet normal 0.0836222 0 0.996498
    outer loop
      vertex 23.1961 -3.88029 40.9369
      vertex 23.3484 -2 40.9241
      vertex 17.975 0 41.375
    endloop
  endfacet
  facet normal 0.0836222 0 0.996498
    outer loop
      vertex 23.1961 -3.88029 40.9369
      vertex 30.4289 -3.88029 40.3299
      vertex 23.3484 -2 40.9241
    endloop
  endfacet
  facet normal 0.0836222 0 0.996498
    outer loop
      vertex 30.2766 -2 40.3427
      vertex 32.4095 -3 40.1637
      vertex 35.85 -3 39.875
    endloop
  endfacet
  facet normal 0.0836222 0 0.996498
    outer loop
      vertex 30.2766 -2 40.3427
      vertex 30.4289 -3.88029 40.3299
      vertex 32.4095 -3 40.1637
    endloop
  endfacet
  facet normal 0.0836222 0 0.996498
    outer loop
      vertex 30.2766 -2 40.3427
      vertex 23.3484 -2 40.9241
      vertex 30.4289 -3.88029 40.3299
    endloop
  endfacet
  facet normal -0.406138 -0.913812 0
    outer loop
      vertex 21.2155 -3 41.1031
      vertex 21.2155 -3 28.0717
      vertex 23.1961 -3.88029 27.8252
    endloop
  endfacet
  facet normal -0.406138 -0.913812 0
    outer loop
      vertex 23.1961 -3.88029 40.9369
      vertex 21.2155 -3 41.1031
      vertex 23.1961 -3.88029 27.8252
    endloop
  endfacet
  facet normal -8.68879e-08 -1 0
    outer loop
      vertex 23.1961 -3.88029 40.9369
      vertex 23.1961 -3.88029 27.8252
      vertex 30.4289 -3.88029 26.9248
    endloop
  endfacet
  facet normal -8.68879e-08 -1 0
    outer loop
      vertex 30.4289 -3.88029 40.3299
      vertex 23.1961 -3.88029 40.9369
      vertex 30.4289 -3.88029 26.9248
    endloop
  endfacet
  facet normal 0.406139 -0.913811 0
    outer loop
      vertex 30.4289 -3.88029 40.3299
      vertex 30.4289 -3.88029 26.9248
      vertex 32.4095 -3 26.6783
    endloop
  endfacet
  facet normal 0.406139 -0.913811 0
    outer loop
      vertex 32.4095 -3 40.1637
      vertex 30.4289 -3.88029 40.3299
      vertex 32.4095 -3 26.6783
    endloop
  endfacet
  facet normal 0 -1 0
    outer loop
      vertex 35.85 -3 26.25
      vertex 35.85 -3 39.875
      vertex 32.4095 -3 40.1637
    endloop
  endfacet
  facet normal 0 -1 0
    outer loop
      vertex 32.4095 -3 26.6783
      vertex 35.85 -3 26.25
      vertex 32.4095 -3 40.1637
    endloop
  endfacet
endsolid OpenSCAD_Model
