solid OpenSCAD_Model
  facet normal 0.994522 0.104528 0
    outer loop
      vertex 2.4 -5.4 6
      vertex 2.34755 -4.90101 0
      vertex 2.34755 -4.90101 6
    endloop
  endfacet
  facet normal 0.994522 0.104528 0
    outer loop
      vertex 2.34755 -4.90101 0
      vertex 2.4 -5.4 6
      vertex 2.4 -5.4 0
    endloop
  endfacet
  facet normal 0.994522 0.104528 0
    outer loop
      vertex 2.4 -5.4 25.4
      vertex 2.34755 -4.90101 19.4
      vertex 2.34755 -4.90101 25.4
    endloop
  endfacet
  facet normal 0.994522 0.104528 0
    outer loop
      vertex 2.34755 -4.90101 19.4
      vertex 2.4 -5.4 25.4
      vertex 2.4 -5.4 19.4
    endloop
  endfacet
  facet normal -0.994522 0.104528 0
    outer loop
      vertex -2.4 -5.4 0
      vertex -2.34755 -4.90101 6
      vertex -2.34755 -4.90101 0
    endloop
  endfacet
  facet normal -0.994522 0.104528 0
    outer loop
      vertex -2.34755 -4.90101 6
      vertex -2.4 -5.4 0
      vertex -2.4 -5.4 6
    endloop
  endfacet
  facet normal -0.994522 0.104528 0
    outer loop
      vertex -2.4 -5.4 19.4
      vertex -2.34755 -4.90101 25.4
      vertex -2.34755 -4.90101 19.4
    endloop
  endfacet
  facet normal -0.994522 0.104528 0
    outer loop
      vertex -2.34755 -4.90101 25.4
      vertex -2.4 -5.4 19.4
      vertex -2.4 -5.4 25.4
    endloop
  endfacet
  facet normal 0 1 -0
    outer loop
      vertex 0.250868 -3.01315 0
      vertex -0.250868 -3.01315 6
      vertex 0.250868 -3.01315 6
    endloop
  endfacet
  facet normal 0 1 0
    outer loop
      vertex -0.250868 -3.01315 6
      vertex 0.250868 -3.01315 0
      vertex -0.250868 -3.01315 0
    endloop
  endfacet
  facet normal 0 1 -0
    outer loop
      vertex 0.250868 -3.01315 19.4
      vertex -0.250868 -3.01315 25.4
      vertex 0.250868 -3.01315 25.4
    endloop
  endfacet
  facet normal 0 1 0
    outer loop
      vertex -0.250868 -3.01315 25.4
      vertex 0.250868 -3.01315 19.4
      vertex -0.250868 -3.01315 19.4
    endloop
  endfacet
  facet normal 0.743145 0.66913 0
    outer loop
      vertex 1.94164 -3.98932 6
      vertex 1.60591 -3.61645 0
      vertex 1.60591 -3.61645 6
    endloop
  endfacet
  facet normal 0.743145 0.66913 0
    outer loop
      vertex 1.60591 -3.61645 0
      vertex 1.94164 -3.98932 6
      vertex 1.94164 -3.98932 0
    endloop
  endfacet
  facet normal 0.743145 0.66913 0
    outer loop
      vertex 1.94164 -3.98932 25.4
      vertex 1.60591 -3.61645 19.4
      vertex 1.60591 -3.61645 25.4
    endloop
  endfacet
  facet normal 0.743145 0.66913 0
    outer loop
      vertex 1.60591 -3.61645 19.4
      vertex 1.94164 -3.98932 25.4
      vertex 1.94164 -3.98932 19.4
    endloop
  endfacet
  facet normal 0.951056 0.309017 0
    outer loop
      vertex 2.34755 -4.90101 6
      vertex 2.19251 -4.42383 0
      vertex 2.19251 -4.42383 6
    endloop
  endfacet
  facet normal 0.951056 0.309017 0
    outer loop
      vertex 2.19251 -4.42383 0
      vertex 2.34755 -4.90101 6
      vertex 2.34755 -4.90101 0
    endloop
  endfacet
  facet normal 0.951056 0.309017 0
    outer loop
      vertex 2.34755 -4.90101 25.4
      vertex 2.19251 -4.42383 19.4
      vertex 2.19251 -4.42383 25.4
    endloop
  endfacet
  facet normal 0.951056 0.309017 0
    outer loop
      vertex 2.19251 -4.42383 19.4
      vertex 2.34755 -4.90101 25.4
      vertex 2.34755 -4.90101 19.4
    endloop
  endfacet
  facet normal -0.587785 0.809017 0
    outer loop
      vertex -1.2 -3.32154 19.4
      vertex -1.60591 -3.61645 25.4
      vertex -1.2 -3.32154 25.4
    endloop
  endfacet
  facet normal -0.587785 0.809017 0
    outer loop
      vertex -1.60591 -3.61645 25.4
      vertex -1.2 -3.32154 19.4
      vertex -1.60591 -3.61645 19.4
    endloop
  endfacet
  facet normal -0.587785 0.809017 0
    outer loop
      vertex -1.2 -3.32154 0
      vertex -1.60591 -3.61645 6
      vertex -1.2 -3.32154 6
    endloop
  endfacet
  facet normal -0.587785 0.809017 0
    outer loop
      vertex -1.60591 -3.61645 6
      vertex -1.2 -3.32154 0
      vertex -1.60591 -3.61645 0
    endloop
  endfacet
  facet normal -0.207911 0.978148 0
    outer loop
      vertex -0.250868 -3.01315 0
      vertex -0.74164 -3.11746 6
      vertex -0.250868 -3.01315 6
    endloop
  endfacet
  facet normal -0.207911 0.978148 0
    outer loop
      vertex -0.74164 -3.11746 6
      vertex -0.250868 -3.01315 0
      vertex -0.74164 -3.11746 0
    endloop
  endfacet
  facet normal -0.207911 0.978148 0
    outer loop
      vertex -0.250868 -3.01315 19.4
      vertex -0.74164 -3.11746 25.4
      vertex -0.250868 -3.01315 25.4
    endloop
  endfacet
  facet normal -0.207911 0.978148 0
    outer loop
      vertex -0.74164 -3.11746 25.4
      vertex -0.250868 -3.01315 19.4
      vertex -0.74164 -3.11746 19.4
    endloop
  endfacet
  facet normal 0.866025 -0.500001 0
    outer loop
      vertex 1.94164 -6.81068 6
      vertex 2.19251 -6.37617 0
      vertex 2.19251 -6.37617 6
    endloop
  endfacet
  facet normal 0.866025 -0.500001 0
    outer loop
      vertex 2.19251 -6.37617 0
      vertex 1.94164 -6.81068 6
      vertex 1.94164 -6.81068 0
    endloop
  endfacet
  facet normal 0.866025 -0.500001 0
    outer loop
      vertex 1.94164 -6.81068 25.4
      vertex 2.19251 -6.37617 19.4
      vertex 2.19251 -6.37617 25.4
    endloop
  endfacet
  facet normal 0.866025 -0.500001 0
    outer loop
      vertex 2.19251 -6.37617 19.4
      vertex 1.94164 -6.81068 25.4
      vertex 1.94164 -6.81068 19.4
    endloop
  endfacet
  facet normal 0.866025 0.500001 0
    outer loop
      vertex 2.19251 -4.42383 6
      vertex 1.94164 -3.98932 0
      vertex 1.94164 -3.98932 6
    endloop
  endfacet
  facet normal 0.866025 0.500001 0
    outer loop
      vertex 1.94164 -3.98932 0
      vertex 2.19251 -4.42383 6
      vertex 2.19251 -4.42383 0
    endloop
  endfacet
  facet normal 0.866025 0.500001 0
    outer loop
      vertex 2.19251 -4.42383 25.4
      vertex 1.94164 -3.98932 19.4
      vertex 1.94164 -3.98932 25.4
    endloop
  endfacet
  facet normal 0.866025 0.500001 0
    outer loop
      vertex 1.94164 -3.98932 19.4
      vertex 2.19251 -4.42383 25.4
      vertex 2.19251 -4.42383 19.4
    endloop
  endfacet
  facet normal 0.406737 0.913545 -0
    outer loop
      vertex 1.2 -3.32154 19.4
      vertex 0.74164 -3.11746 25.4
      vertex 1.2 -3.32154 25.4
    endloop
  endfacet
  facet normal 0.406737 0.913545 0
    outer loop
      vertex 0.74164 -3.11746 25.4
      vertex 1.2 -3.32154 19.4
      vertex 0.74164 -3.11746 19.4
    endloop
  endfacet
  facet normal 0.406737 0.913545 -0
    outer loop
      vertex 1.2 -3.32154 0
      vertex 0.74164 -3.11746 6
      vertex 1.2 -3.32154 6
    endloop
  endfacet
  facet normal 0.406737 0.913545 0
    outer loop
      vertex 0.74164 -3.11746 6
      vertex 1.2 -3.32154 0
      vertex 0.74164 -3.11746 0
    endloop
  endfacet
  facet normal 0.207911 0.978148 -0
    outer loop
      vertex 0.74164 -3.11746 0
      vertex 0.250868 -3.01315 6
      vertex 0.74164 -3.11746 6
    endloop
  endfacet
  facet normal 0.207911 0.978148 0
    outer loop
      vertex 0.250868 -3.01315 6
      vertex 0.74164 -3.11746 0
      vertex 0.250868 -3.01315 0
    endloop
  endfacet
  facet normal 0.207911 0.978148 -0
    outer loop
      vertex 0.74164 -3.11746 19.4
      vertex 0.250868 -3.01315 25.4
      vertex 0.74164 -3.11746 25.4
    endloop
  endfacet
  facet normal 0.207911 0.978148 0
    outer loop
      vertex 0.250868 -3.01315 25.4
      vertex 0.74164 -3.11746 19.4
      vertex 0.250868 -3.01315 19.4
    endloop
  endfacet
  facet normal 0.587785 0.809017 -0
    outer loop
      vertex 1.60591 -3.61645 0
      vertex 1.2 -3.32154 6
      vertex 1.60591 -3.61645 6
    endloop
  endfacet
  facet normal 0.587785 0.809017 0
    outer loop
      vertex 1.2 -3.32154 6
      vertex 1.60591 -3.61645 0
      vertex 1.2 -3.32154 0
    endloop
  endfacet
  facet normal 0.587785 0.809017 -0
    outer loop
      vertex 1.60591 -3.61645 19.4
      vertex 1.2 -3.32154 25.4
      vertex 1.60591 -3.61645 25.4
    endloop
  endfacet
  facet normal 0.587785 0.809017 0
    outer loop
      vertex 1.2 -3.32154 25.4
      vertex 1.60591 -3.61645 19.4
      vertex 1.2 -3.32154 19.4
    endloop
  endfacet
  facet normal -0.866025 0.500001 0
    outer loop
      vertex -2.19251 -4.42383 0
      vertex -1.94164 -3.98932 6
      vertex -1.94164 -3.98932 0
    endloop
  endfacet
  facet normal -0.866025 0.500001 0
    outer loop
      vertex -1.94164 -3.98932 6
      vertex -2.19251 -4.42383 0
      vertex -2.19251 -4.42383 6
    endloop
  endfacet
  facet normal -0.866025 0.500001 0
    outer loop
      vertex -2.19251 -4.42383 19.4
      vertex -1.94164 -3.98932 25.4
      vertex -1.94164 -3.98932 19.4
    endloop
  endfacet
  facet normal -0.866025 0.500001 0
    outer loop
      vertex -1.94164 -3.98932 25.4
      vertex -2.19251 -4.42383 19.4
      vertex -2.19251 -4.42383 25.4
    endloop
  endfacet
  facet normal -0.743145 0.66913 0
    outer loop
      vertex -1.94164 -3.98932 19.4
      vertex -1.60591 -3.61645 25.4
      vertex -1.60591 -3.61645 19.4
    endloop
  endfacet
  facet normal -0.743145 0.66913 0
    outer loop
      vertex -1.60591 -3.61645 25.4
      vertex -1.94164 -3.98932 19.4
      vertex -1.94164 -3.98932 25.4
    endloop
  endfacet
  facet normal -0.743145 0.66913 0
    outer loop
      vertex -1.94164 -3.98932 0
      vertex -1.60591 -3.61645 6
      vertex -1.60591 -3.61645 0
    endloop
  endfacet
  facet normal -0.743145 0.66913 0
    outer loop
      vertex -1.60591 -3.61645 6
      vertex -1.94164 -3.98932 0
      vertex -1.94164 -3.98932 6
    endloop
  endfacet
  facet normal -0.951056 0.309017 0
    outer loop
      vertex -2.34755 -4.90101 0
      vertex -2.19251 -4.42383 6
      vertex -2.19251 -4.42383 0
    endloop
  endfacet
  facet normal -0.951056 0.309017 0
    outer loop
      vertex -2.19251 -4.42383 6
      vertex -2.34755 -4.90101 0
      vertex -2.34755 -4.90101 6
    endloop
  endfacet
  facet normal -0.951056 0.309017 0
    outer loop
      vertex -2.34755 -4.90101 19.4
      vertex -2.19251 -4.42383 25.4
      vertex -2.19251 -4.42383 19.4
    endloop
  endfacet
  facet normal -0.951056 0.309017 0
    outer loop
      vertex -2.19251 -4.42383 25.4
      vertex -2.34755 -4.90101 19.4
      vertex -2.34755 -4.90101 25.4
    endloop
  endfacet
  facet normal 0 0 1
    outer loop
      vertex 2.34755 -4.90101 25.4
      vertex 2.34755 -5.89899 25.4
      vertex 2.4 -5.4 25.4
    endloop
  endfacet
  facet normal 0 0 1
    outer loop
      vertex 2.19251 -4.42383 25.4
      vertex 2.34755 -5.89899 25.4
      vertex 2.34755 -4.90101 25.4
    endloop
  endfacet
  facet normal 0 0 1
    outer loop
      vertex 2.19251 -4.42383 25.4
      vertex 2.19251 -6.37617 25.4
      vertex 2.34755 -5.89899 25.4
    endloop
  endfacet
  facet normal 0 0 1
    outer loop
      vertex 1.94164 -3.98932 25.4
      vertex 2.19251 -6.37617 25.4
      vertex 2.19251 -4.42383 25.4
    endloop
  endfacet
  facet normal 0 0 1
    outer loop
      vertex 1.94164 -3.98932 25.4
      vertex 1.94164 -6.81068 25.4
      vertex 2.19251 -6.37617 25.4
    endloop
  endfacet
  facet normal 0 0 1
    outer loop
      vertex 1.60591 -3.61645 25.4
      vertex 1.94164 -6.81068 25.4
      vertex 1.94164 -3.98932 25.4
    endloop
  endfacet
  facet normal 0 0 1
    outer loop
      vertex 1.60591 -3.61645 25.4
      vertex 1.60591 -7.18355 25.4
      vertex 1.94164 -6.81068 25.4
    endloop
  endfacet
  facet normal 0 0 1
    outer loop
      vertex 1.2 -3.32154 25.4
      vertex 1.60591 -7.18355 25.4
      vertex 1.60591 -3.61645 25.4
    endloop
  endfacet
  facet normal 0 0 1
    outer loop
      vertex 1.2 -3.32154 25.4
      vertex 1.2 -7.47846 25.4
      vertex 1.60591 -7.18355 25.4
    endloop
  endfacet
  facet normal 0 0 1
    outer loop
      vertex 0.74164 -3.11746 25.4
      vertex 1.2 -7.47846 25.4
      vertex 1.2 -3.32154 25.4
    endloop
  endfacet
  facet normal 0 0 1
    outer loop
      vertex 0.74164 -3.11746 25.4
      vertex 0.74164 -7.68254 25.4
      vertex 1.2 -7.47846 25.4
    endloop
  endfacet
  facet normal 0 0 1
    outer loop
      vertex 0.250868 -3.01315 25.4
      vertex 0.74164 -7.68254 25.4
      vertex 0.74164 -3.11746 25.4
    endloop
  endfacet
  facet normal 0 0 1
    outer loop
      vertex 0.250868 -3.01315 25.4
      vertex 0.250868 -7.78685 25.4
      vertex 0.74164 -7.68254 25.4
    endloop
  endfacet
  facet normal -0 0 1
    outer loop
      vertex -0.250868 -3.01315 25.4
      vertex 0.250868 -7.78685 25.4
      vertex 0.250868 -3.01315 25.4
    endloop
  endfacet
  facet normal 0 0 1
    outer loop
      vertex -0.250868 -3.01315 25.4
      vertex -0.250868 -7.78685 25.4
      vertex 0.250868 -7.78685 25.4
    endloop
  endfacet
  facet normal -0 0 1
    outer loop
      vertex -0.74164 -3.11746 25.4
      vertex -0.250868 -7.78685 25.4
      vertex -0.250868 -3.01315 25.4
    endloop
  endfacet
  facet normal 0 0 1
    outer loop
      vertex -0.74164 -3.11746 25.4
      vertex -0.74164 -7.68254 25.4
      vertex -0.250868 -7.78685 25.4
    endloop
  endfacet
  facet normal -0 0 1
    outer loop
      vertex -1.2 -3.32154 25.4
      vertex -0.74164 -7.68254 25.4
      vertex -0.74164 -3.11746 25.4
    endloop
  endfacet
  facet normal 0 0 1
    outer loop
      vertex -1.2 -3.32154 25.4
      vertex -1.2 -7.47846 25.4
      vertex -0.74164 -7.68254 25.4
    endloop
  endfacet
  facet normal -0 0 1
    outer loop
      vertex -1.60591 -3.61645 25.4
      vertex -1.2 -7.47846 25.4
      vertex -1.2 -3.32154 25.4
    endloop
  endfacet
  facet normal 0 0 1
    outer loop
      vertex -1.60591 -3.61645 25.4
      vertex -1.60591 -7.18355 25.4
      vertex -1.2 -7.47846 25.4
    endloop
  endfacet
  facet normal -0 0 1
    outer loop
      vertex -1.94164 -3.98932 25.4
      vertex -1.60591 -7.18355 25.4
      vertex -1.60591 -3.61645 25.4
    endloop
  endfacet
  facet normal 0 0 1
    outer loop
      vertex -1.94164 -3.98932 25.4
      vertex -1.94164 -6.81068 25.4
      vertex -1.60591 -7.18355 25.4
    endloop
  endfacet
  facet normal -0 0 1
    outer loop
      vertex -2.19251 -4.42383 25.4
      vertex -1.94164 -6.81068 25.4
      vertex -1.94164 -3.98932 25.4
    endloop
  endfacet
  facet normal 0 0 1
    outer loop
      vertex -2.19251 -4.42383 25.4
      vertex -2.19251 -6.37617 25.4
      vertex -1.94164 -6.81068 25.4
    endloop
  endfacet
  facet normal -0 0 1
    outer loop
      vertex -2.34755 -4.90101 25.4
      vertex -2.19251 -6.37617 25.4
      vertex -2.19251 -4.42383 25.4
    endloop
  endfacet
  facet normal 0 0 1
    outer loop
      vertex -2.34755 -4.90101 25.4
      vertex -2.34755 -5.89899 25.4
      vertex -2.19251 -6.37617 25.4
    endloop
  endfacet
  facet normal 0 -0 1
    outer loop
      vertex -2.34755 -5.89899 25.4
      vertex -2.34755 -4.90101 25.4
      vertex -2.4 -5.4 25.4
    endloop
  endfacet
  facet normal -0.406737 0.913545 0
    outer loop
      vertex -0.74164 -3.11746 0
      vertex -1.2 -3.32154 6
      vertex -0.74164 -3.11746 6
    endloop
  endfacet
  facet normal -0.406737 0.913545 0
    outer loop
      vertex -1.2 -3.32154 6
      vertex -0.74164 -3.11746 0
      vertex -1.2 -3.32154 0
    endloop
  endfacet
  facet normal -0.406737 0.913545 0
    outer loop
      vertex -0.74164 -3.11746 19.4
      vertex -1.2 -3.32154 25.4
      vertex -0.74164 -3.11746 25.4
    endloop
  endfacet
  facet normal -0.406737 0.913545 0
    outer loop
      vertex -1.2 -3.32154 25.4
      vertex -0.74164 -3.11746 19.4
      vertex -1.2 -3.32154 19.4
    endloop
  endfacet
  facet normal 0.994522 -0.104528 0
    outer loop
      vertex 2.34755 -5.89899 25.4
      vertex 2.4 -5.4 19.4
      vertex 2.4 -5.4 25.4
    endloop
  endfacet
  facet normal 0.994522 -0.104528 0
    outer loop
      vertex 2.4 -5.4 19.4
      vertex 2.34755 -5.89899 25.4
      vertex 2.34755 -5.89899 19.4
    endloop
  endfacet
  facet normal 0.994522 -0.104528 0
    outer loop
      vertex 2.34755 -5.89899 6
      vertex 2.4 -5.4 0
      vertex 2.4 -5.4 6
    endloop
  endfacet
  facet normal 0.994522 -0.104528 0
    outer loop
      vertex 2.4 -5.4 0
      vertex 2.34755 -5.89899 6
      vertex 2.34755 -5.89899 0
    endloop
  endfacet
  facet normal -0.207911 -0.978148 0
    outer loop
      vertex -0.74164 -7.68254 19.4
      vertex -0.250868 -7.78685 25.4
      vertex -0.74164 -7.68254 25.4
    endloop
  endfacet
  facet normal -0.207911 -0.978148 -0
    outer loop
      vertex -0.250868 -7.78685 25.4
      vertex -0.74164 -7.68254 19.4
      vertex -0.250868 -7.78685 19.4
    endloop
  endfacet
  facet normal -0.207911 -0.978148 0
    outer loop
      vertex -0.74164 -7.68254 0
      vertex -0.250868 -7.78685 6
      vertex -0.74164 -7.68254 6
    endloop
  endfacet
  facet normal -0.207911 -0.978148 -0
    outer loop
      vertex -0.250868 -7.78685 6
      vertex -0.74164 -7.68254 0
      vertex -0.250868 -7.78685 0
    endloop
  endfacet
  facet normal 0.207911 -0.978148 0
    outer loop
      vertex 0.250868 -7.78685 0
      vertex 0.74164 -7.68254 6
      vertex 0.250868 -7.78685 6
    endloop
  endfacet
  facet normal 0.207911 -0.978148 0
    outer loop
      vertex 0.74164 -7.68254 6
      vertex 0.250868 -7.78685 0
      vertex 0.74164 -7.68254 0
    endloop
  endfacet
  facet normal 0.207911 -0.978148 0
    outer loop
      vertex 0.250868 -7.78685 19.4
      vertex 0.74164 -7.68254 25.4
      vertex 0.250868 -7.78685 25.4
    endloop
  endfacet
  facet normal 0.207911 -0.978148 0
    outer loop
      vertex 0.74164 -7.68254 25.4
      vertex 0.250868 -7.78685 19.4
      vertex 0.74164 -7.68254 19.4
    endloop
  endfacet
  facet normal 0.587785 -0.809017 0
    outer loop
      vertex 1.2 -7.47846 19.4
      vertex 1.60591 -7.18355 25.4
      vertex 1.2 -7.47846 25.4
    endloop
  endfacet
  facet normal 0.587785 -0.809017 0
    outer loop
      vertex 1.60591 -7.18355 25.4
      vertex 1.2 -7.47846 19.4
      vertex 1.60591 -7.18355 19.4
    endloop
  endfacet
  facet normal 0.587785 -0.809017 0
    outer loop
      vertex 1.2 -7.47846 0
      vertex 1.60591 -7.18355 6
      vertex 1.2 -7.47846 6
    endloop
  endfacet
  facet normal 0.587785 -0.809017 0
    outer loop
      vertex 1.60591 -7.18355 6
      vertex 1.2 -7.47846 0
      vertex 1.60591 -7.18355 0
    endloop
  endfacet
  facet normal 0.743145 -0.66913 0
    outer loop
      vertex 1.60591 -7.18355 6
      vertex 1.94164 -6.81068 0
      vertex 1.94164 -6.81068 6
    endloop
  endfacet
  facet normal 0.743145 -0.66913 0
    outer loop
      vertex 1.94164 -6.81068 0
      vertex 1.60591 -7.18355 6
      vertex 1.60591 -7.18355 0
    endloop
  endfacet
  facet normal 0.743145 -0.66913 0
    outer loop
      vertex 1.60591 -7.18355 25.4
      vertex 1.94164 -6.81068 19.4
      vertex 1.94164 -6.81068 25.4
    endloop
  endfacet
  facet normal 0.743145 -0.66913 0
    outer loop
      vertex 1.94164 -6.81068 19.4
      vertex 1.60591 -7.18355 25.4
      vertex 1.60591 -7.18355 19.4
    endloop
  endfacet
  facet normal 0.951056 -0.309017 0
    outer loop
      vertex 2.19251 -6.37617 25.4
      vertex 2.34755 -5.89899 19.4
      vertex 2.34755 -5.89899 25.4
    endloop
  endfacet
  facet normal 0.951056 -0.309017 0
    outer loop
      vertex 2.34755 -5.89899 19.4
      vertex 2.19251 -6.37617 25.4
      vertex 2.19251 -6.37617 19.4
    endloop
  endfacet
  facet normal 0.951056 -0.309017 0
    outer loop
      vertex 2.19251 -6.37617 6
      vertex 2.34755 -5.89899 0
      vertex 2.34755 -5.89899 6
    endloop
  endfacet
  facet normal 0.951056 -0.309017 0
    outer loop
      vertex 2.34755 -5.89899 0
      vertex 2.19251 -6.37617 6
      vertex 2.19251 -6.37617 0
    endloop
  endfacet
  facet normal -0.406737 -0.913545 0
    outer loop
      vertex -1.2 -7.47846 0
      vertex -0.74164 -7.68254 6
      vertex -1.2 -7.47846 6
    endloop
  endfacet
  facet normal -0.406737 -0.913545 -0
    outer loop
      vertex -0.74164 -7.68254 6
      vertex -1.2 -7.47846 0
      vertex -0.74164 -7.68254 0
    endloop
  endfacet
  facet normal -0.406737 -0.913545 0
    outer loop
      vertex -1.2 -7.47846 19.4
      vertex -0.74164 -7.68254 25.4
      vertex -1.2 -7.47846 25.4
    endloop
  endfacet
  facet normal -0.406737 -0.913545 -0
    outer loop
      vertex -0.74164 -7.68254 25.4
      vertex -1.2 -7.47846 19.4
      vertex -0.74164 -7.68254 19.4
    endloop
  endfacet
  facet normal -0.866025 -0.500001 0
    outer loop
      vertex -1.94164 -6.81068 0
      vertex -2.19251 -6.37617 6
      vertex -2.19251 -6.37617 0
    endloop
  endfacet
  facet normal -0.866025 -0.500001 0
    outer loop
      vertex -2.19251 -6.37617 6
      vertex -1.94164 -6.81068 0
      vertex -1.94164 -6.81068 6
    endloop
  endfacet
  facet normal -0.866025 -0.500001 0
    outer loop
      vertex -1.94164 -6.81068 19.4
      vertex -2.19251 -6.37617 25.4
      vertex -2.19251 -6.37617 19.4
    endloop
  endfacet
  facet normal -0.866025 -0.500001 0
    outer loop
      vertex -2.19251 -6.37617 25.4
      vertex -1.94164 -6.81068 19.4
      vertex -1.94164 -6.81068 25.4
    endloop
  endfacet
  facet normal -0.994522 -0.104528 0
    outer loop
      vertex -2.34755 -5.89899 0
      vertex -2.4 -5.4 6
      vertex -2.4 -5.4 0
    endloop
  endfacet
  facet normal -0.994522 -0.104528 0
    outer loop
      vertex -2.4 -5.4 6
      vertex -2.34755 -5.89899 0
      vertex -2.34755 -5.89899 6
    endloop
  endfacet
  facet normal -0.994522 -0.104528 0
    outer loop
      vertex -2.34755 -5.89899 19.4
      vertex -2.4 -5.4 25.4
      vertex -2.4 -5.4 19.4
    endloop
  endfacet
  facet normal -0.994522 -0.104528 0
    outer loop
      vertex -2.4 -5.4 25.4
      vertex -2.34755 -5.89899 19.4
      vertex -2.34755 -5.89899 25.4
    endloop
  endfacet
  facet normal -0.951056 -0.309017 0
    outer loop
      vertex -2.19251 -6.37617 0
      vertex -2.34755 -5.89899 6
      vertex -2.34755 -5.89899 0
    endloop
  endfacet
  facet normal -0.951056 -0.309017 0
    outer loop
      vertex -2.34755 -5.89899 6
      vertex -2.19251 -6.37617 0
      vertex -2.19251 -6.37617 6
    endloop
  endfacet
  facet normal -0.951056 -0.309017 0
    outer loop
      vertex -2.19251 -6.37617 19.4
      vertex -2.34755 -5.89899 25.4
      vertex -2.34755 -5.89899 19.4
    endloop
  endfacet
  facet normal -0.951056 -0.309017 0
    outer loop
      vertex -2.34755 -5.89899 25.4
      vertex -2.19251 -6.37617 19.4
      vertex -2.19251 -6.37617 25.4
    endloop
  endfacet
  facet normal 0.406737 -0.913545 0
    outer loop
      vertex 0.74164 -7.68254 19.4
      vertex 1.2 -7.47846 25.4
      vertex 0.74164 -7.68254 25.4
    endloop
  endfacet
  facet normal 0.406737 -0.913545 0
    outer loop
      vertex 1.2 -7.47846 25.4
      vertex 0.74164 -7.68254 19.4
      vertex 1.2 -7.47846 19.4
    endloop
  endfacet
  facet normal 0.406737 -0.913545 0
    outer loop
      vertex 0.74164 -7.68254 0
      vertex 1.2 -7.47846 6
      vertex 0.74164 -7.68254 6
    endloop
  endfacet
  facet normal 0.406737 -0.913545 0
    outer loop
      vertex 1.2 -7.47846 6
      vertex 0.74164 -7.68254 0
      vertex 1.2 -7.47846 0
    endloop
  endfacet
  facet normal 0 -1 0
    outer loop
      vertex -0.250868 -7.78685 19.4
      vertex 0.250868 -7.78685 25.4
      vertex -0.250868 -7.78685 25.4
    endloop
  endfacet
  facet normal 0 -1 -0
    outer loop
      vertex 0.250868 -7.78685 25.4
      vertex -0.250868 -7.78685 19.4
      vertex 0.250868 -7.78685 19.4
    endloop
  endfacet
  facet normal 0 -1 0
    outer loop
      vertex -0.250868 -7.78685 0
      vertex 0.250868 -7.78685 6
      vertex -0.250868 -7.78685 6
    endloop
  endfacet
  facet normal 0 -1 -0
    outer loop
      vertex 0.250868 -7.78685 6
      vertex -0.250868 -7.78685 0
      vertex 0.250868 -7.78685 0
    endloop
  endfacet
  facet normal -0.587785 -0.809017 0
    outer loop
      vertex -1.60591 -7.18355 0
      vertex -1.2 -7.47846 6
      vertex -1.60591 -7.18355 6
    endloop
  endfacet
  facet normal -0.587785 -0.809017 -0
    outer loop
      vertex -1.2 -7.47846 6
      vertex -1.60591 -7.18355 0
      vertex -1.2 -7.47846 0
    endloop
  endfacet
  facet normal -0.587785 -0.809017 0
    outer loop
      vertex -1.60591 -7.18355 19.4
      vertex -1.2 -7.47846 25.4
      vertex -1.60591 -7.18355 25.4
    endloop
  endfacet
  facet normal -0.587785 -0.809017 -0
    outer loop
      vertex -1.2 -7.47846 25.4
      vertex -1.60591 -7.18355 19.4
      vertex -1.2 -7.47846 19.4
    endloop
  endfacet
  facet normal -0.743145 -0.66913 0
    outer loop
      vertex -1.60591 -7.18355 0
      vertex -1.94164 -6.81068 6
      vertex -1.94164 -6.81068 0
    endloop
  endfacet
  facet normal -0.743145 -0.66913 0
    outer loop
      vertex -1.94164 -6.81068 6
      vertex -1.60591 -7.18355 0
      vertex -1.60591 -7.18355 6
    endloop
  endfacet
  facet normal -0.743145 -0.66913 0
    outer loop
      vertex -1.60591 -7.18355 19.4
      vertex -1.94164 -6.81068 25.4
      vertex -1.94164 -6.81068 19.4
    endloop
  endfacet
  facet normal -0.743145 -0.66913 0
    outer loop
      vertex -1.94164 -6.81068 25.4
      vertex -1.60591 -7.18355 19.4
      vertex -1.60591 -7.18355 25.4
    endloop
  endfacet
  facet normal 0 0 -1
    outer loop
      vertex 2.34755 -5.89899 0
      vertex 2.34755 -4.90101 0
      vertex 2.4 -5.4 0
    endloop
  endfacet
  facet normal 0 0 -1
    outer loop
      vertex 2.19251 -6.37617 0
      vertex 2.34755 -4.90101 0
      vertex 2.34755 -5.89899 0
    endloop
  endfacet
  facet normal 0 0 -1
    outer loop
      vertex 2.19251 -6.37617 0
      vertex 2.19251 -4.42383 0
      vertex 2.34755 -4.90101 0
    endloop
  endfacet
  facet normal 0 0 -1
    outer loop
      vertex 1.94164 -6.81068 0
      vertex 2.19251 -4.42383 0
      vertex 2.19251 -6.37617 0
    endloop
  endfacet
  facet normal 0 0 -1
    outer loop
      vertex 1.94164 -6.81068 0
      vertex 1.94164 -3.98932 0
      vertex 2.19251 -4.42383 0
    endloop
  endfacet
  facet normal 0 0 -1
    outer loop
      vertex 1.60591 -7.18355 0
      vertex 1.94164 -3.98932 0
      vertex 1.94164 -6.81068 0
    endloop
  endfacet
  facet normal 0 0 -1
    outer loop
      vertex 1.60591 -7.18355 0
      vertex 1.60591 -3.61645 0
      vertex 1.94164 -3.98932 0
    endloop
  endfacet
  facet normal 0 0 -1
    outer loop
      vertex 1.2 -7.47846 0
      vertex 1.60591 -3.61645 0
      vertex 1.60591 -7.18355 0
    endloop
  endfacet
  facet normal 0 0 -1
    outer loop
      vertex 1.2 -7.47846 0
      vertex 1.2 -3.32154 0
      vertex 1.60591 -3.61645 0
    endloop
  endfacet
  facet normal 0 0 -1
    outer loop
      vertex 0.74164 -7.68254 0
      vertex 1.2 -3.32154 0
      vertex 1.2 -7.47846 0
    endloop
  endfacet
  facet normal 0 0 -1
    outer loop
      vertex 0.74164 -7.68254 0
      vertex 0.74164 -3.11746 0
      vertex 1.2 -3.32154 0
    endloop
  endfacet
  facet normal 0 0 -1
    outer loop
      vertex 0.250868 -7.78685 0
      vertex 0.74164 -3.11746 0
      vertex 0.74164 -7.68254 0
    endloop
  endfacet
  facet normal 0 0 -1
    outer loop
      vertex 0.250868 -7.78685 0
      vertex 0.250868 -3.01315 0
      vertex 0.74164 -3.11746 0
    endloop
  endfacet
  facet normal 0 0 -1
    outer loop
      vertex -0.250868 -7.78685 0
      vertex 0.250868 -3.01315 0
      vertex 0.250868 -7.78685 0
    endloop
  endfacet
  facet normal 0 0 -1
    outer loop
      vertex -0.250868 -7.78685 0
      vertex -0.250868 -3.01315 0
      vertex 0.250868 -3.01315 0
    endloop
  endfacet
  facet normal 0 0 -1
    outer loop
      vertex -0.74164 -7.68254 0
      vertex -0.250868 -3.01315 0
      vertex -0.250868 -7.78685 0
    endloop
  endfacet
  facet normal 0 0 -1
    outer loop
      vertex -0.74164 -7.68254 0
      vertex -0.74164 -3.11746 0
      vertex -0.250868 -3.01315 0
    endloop
  endfacet
  facet normal 0 0 -1
    outer loop
      vertex -1.2 -7.47846 0
      vertex -0.74164 -3.11746 0
      vertex -0.74164 -7.68254 0
    endloop
  endfacet
  facet normal 0 0 -1
    outer loop
      vertex -1.2 -7.47846 0
      vertex -1.2 -3.32154 0
      vertex -0.74164 -3.11746 0
    endloop
  endfacet
  facet normal 0 0 -1
    outer loop
      vertex -1.60591 -7.18355 0
      vertex -1.2 -3.32154 0
      vertex -1.2 -7.47846 0
    endloop
  endfacet
  facet normal 0 0 -1
    outer loop
      vertex -1.60591 -7.18355 0
      vertex -1.60591 -3.61645 0
      vertex -1.2 -3.32154 0
    endloop
  endfacet
  facet normal 0 0 -1
    outer loop
      vertex -1.94164 -6.81068 0
      vertex -1.60591 -3.61645 0
      vertex -1.60591 -7.18355 0
    endloop
  endfacet
  facet normal 0 0 -1
    outer loop
      vertex -1.94164 -6.81068 0
      vertex -1.94164 -3.98932 0
      vertex -1.60591 -3.61645 0
    endloop
  endfacet
  facet normal 0 0 -1
    outer loop
      vertex -2.19251 -6.37617 0
      vertex -1.94164 -3.98932 0
      vertex -1.94164 -6.81068 0
    endloop
  endfacet
  facet normal 0 0 -1
    outer loop
      vertex -2.19251 -6.37617 0
      vertex -2.19251 -4.42383 0
      vertex -1.94164 -3.98932 0
    endloop
  endfacet
  facet normal 0 0 -1
    outer loop
      vertex -2.34755 -5.89899 0
      vertex -2.19251 -4.42383 0
      vertex -2.19251 -6.37617 0
    endloop
  endfacet
  facet normal 0 0 -1
    outer loop
      vertex -2.34755 -5.89899 0
      vertex -2.34755 -4.90101 0
      vertex -2.19251 -4.42383 0
    endloop
  endfacet
  facet normal 0 -0 -1
    outer loop
      vertex -2.34755 -4.90101 0
      vertex -2.34755 -5.89899 0
      vertex -2.4 -5.4 0
    endloop
  endfacet
  facet normal 0.994522 0.104529 -0
    outer loop
      vertex 5 -5.4 9
      vertex 4.89074 -4.36044 19.4
      vertex 5 -5.4 19.4
    endloop
  endfacet
  facet normal 0.994522 0.104529 0
    outer loop
      vertex 4.89074 -4.36044 19.4
      vertex 5 -5.4 9
      vertex 4.89074 -4.36044 6
    endloop
  endfacet
  facet normal 0.994522 0.104529 0
    outer loop
      vertex 4.89074 -4.36044 6
      vertex 5 -5.4 9
      vertex 5 -5.4 6
    endloop
  endfacet
  facet normal -0.994522 0.104529 0
    outer loop
      vertex -5 -5.4 6
      vertex -4.89074 -4.36044 19.4
      vertex -4.89074 -4.36044 6
    endloop
  endfacet
  facet normal -0.994522 0.104529 0
    outer loop
      vertex -4.89074 -4.36044 19.4
      vertex -5 -5.4 6
      vertex -5 -5.4 19.4
    endloop
  endfacet
  facet normal 0 1 -0
    outer loop
      vertex 0.522642 -0.427391 6
      vertex -0.522642 -0.427391 19.4
      vertex 0.522642 -0.427391 19.4
    endloop
  endfacet
  facet normal 0 1 0
    outer loop
      vertex -0.522642 -0.427391 19.4
      vertex 0.522642 -0.427391 6
      vertex -0.522642 -0.427391 6
    endloop
  endfacet
  facet normal 0.587785 0.809017 -0
    outer loop
      vertex 3.34565 -1.68428 6
      vertex 2.5 -1.06987 19.4
      vertex 3.34565 -1.68428 19.4
    endloop
  endfacet
  facet normal 0.587785 0.809017 0
    outer loop
      vertex 2.5 -1.06987 19.4
      vertex 3.34565 -1.68428 6
      vertex 2.5 -1.06987 6
    endloop
  endfacet
  facet normal 0.406737 0.913545 -0
    outer loop
      vertex 2.5 -1.06987 6
      vertex 1.54508 -0.644718 19.4
      vertex 2.5 -1.06987 19.4
    endloop
  endfacet
  facet normal 0.406737 0.913545 0
    outer loop
      vertex 1.54508 -0.644718 19.4
      vertex 2.5 -1.06987 6
      vertex 1.54508 -0.644718 6
    endloop
  endfacet
  facet normal -0.587785 0.809017 0
    outer loop
      vertex -2.5 -1.06987 6
      vertex -3.34565 -1.68428 19.4
      vertex -2.5 -1.06987 19.4
    endloop
  endfacet
  facet normal -0.587785 0.809017 0
    outer loop
      vertex -3.34565 -1.68428 19.4
      vertex -2.5 -1.06987 6
      vertex -3.34565 -1.68428 6
    endloop
  endfacet
  facet normal -0.207911 0.978148 0
    outer loop
      vertex -0.522642 -0.427391 6
      vertex -1.54508 -0.644718 19.4
      vertex -0.522642 -0.427391 19.4
    endloop
  endfacet
  facet normal -0.207911 0.978148 0
    outer loop
      vertex -1.54508 -0.644718 19.4
      vertex -0.522642 -0.427391 6
      vertex -1.54508 -0.644718 6
    endloop
  endfacet
  facet normal 0.866025 0.5 0
    outer loop
      vertex 4.56773 -3.36632 19.4
      vertex 4.04508 -2.46107 6
      vertex 4.04508 -2.46107 19.4
    endloop
  endfacet
  facet normal 0.866025 0.5 0
    outer loop
      vertex 4.04508 -2.46107 6
      vertex 4.56773 -3.36632 19.4
      vertex 4.56773 -3.36632 6
    endloop
  endfacet
  facet normal 0.951057 0.309017 0
    outer loop
      vertex 4.89074 -4.36044 19.4
      vertex 4.56773 -3.36632 6
      vertex 4.56773 -3.36632 19.4
    endloop
  endfacet
  facet normal 0.951057 0.309017 0
    outer loop
      vertex 4.56773 -3.36632 6
      vertex 4.89074 -4.36044 19.4
      vertex 4.89074 -4.36044 6
    endloop
  endfacet
  facet normal 0.743145 0.669131 0
    outer loop
      vertex 4.04508 -2.46107 19.4
      vertex 3.34565 -1.68428 6
      vertex 3.34565 -1.68428 19.4
    endloop
  endfacet
  facet normal 0.743145 0.669131 0
    outer loop
      vertex 3.34565 -1.68428 6
      vertex 4.04508 -2.46107 19.4
      vertex 4.04508 -2.46107 6
    endloop
  endfacet
  facet normal 0.207911 0.978148 -0
    outer loop
      vertex 1.54508 -0.644718 6
      vertex 0.522642 -0.427391 19.4
      vertex 1.54508 -0.644718 19.4
    endloop
  endfacet
  facet normal 0.207911 0.978148 0
    outer loop
      vertex 0.522642 -0.427391 19.4
      vertex 1.54508 -0.644718 6
      vertex 0.522642 -0.427391 6
    endloop
  endfacet
  facet normal -0.866025 0.5 0
    outer loop
      vertex -4.56773 -3.36632 6
      vertex -4.04508 -2.46107 19.4
      vertex -4.04508 -2.46107 6
    endloop
  endfacet
  facet normal -0.866025 0.5 0
    outer loop
      vertex -4.04508 -2.46107 19.4
      vertex -4.56773 -3.36632 6
      vertex -4.56773 -3.36632 19.4
    endloop
  endfacet
  facet normal -0.743145 0.669131 0
    outer loop
      vertex -4.04508 -2.46107 6
      vertex -3.34565 -1.68428 19.4
      vertex -3.34565 -1.68428 6
    endloop
  endfacet
  facet normal -0.743145 0.669131 0
    outer loop
      vertex -3.34565 -1.68428 19.4
      vertex -4.04508 -2.46107 6
      vertex -4.04508 -2.46107 19.4
    endloop
  endfacet
  facet normal -0.951057 0.309017 0
    outer loop
      vertex -4.89074 -4.36044 6
      vertex -4.56773 -3.36632 19.4
      vertex -4.56773 -3.36632 6
    endloop
  endfacet
  facet normal -0.951057 0.309017 0
    outer loop
      vertex -4.56773 -3.36632 19.4
      vertex -4.89074 -4.36044 6
      vertex -4.89074 -4.36044 19.4
    endloop
  endfacet
  facet normal -0.406737 0.913545 0
    outer loop
      vertex -1.54508 -0.644718 6
      vertex -2.5 -1.06987 19.4
      vertex -1.54508 -0.644718 19.4
    endloop
  endfacet
  facet normal -0.406737 0.913545 0
    outer loop
      vertex -2.5 -1.06987 19.4
      vertex -1.54508 -0.644718 6
      vertex -2.5 -1.06987 6
    endloop
  endfacet
  facet normal 0.994522 -0.104529 0
    outer loop
      vertex 4.89074 -6.43956 9
      vertex 5 -5.4 6
      vertex 5 -5.4 9
    endloop
  endfacet
  facet normal 0.994522 -0.104529 0
    outer loop
      vertex 5 -5.4 6
      vertex 4.89074 -6.43956 9
      vertex 4.89074 -6.43956 6
    endloop
  endfacet
  facet normal -0.207911 -0.978148 0
    outer loop
      vertex -1.54508 -10.1553 6
      vertex -0.522642 -10.3726 9
      vertex -1.54508 -10.1553 9
    endloop
  endfacet
  facet normal -0.207911 -0.978148 -0
    outer loop
      vertex -0.522642 -10.3726 9
      vertex -1.54508 -10.1553 6
      vertex -0.522642 -10.3726 6
    endloop
  endfacet
  facet normal 0.207911 -0.978148 0
    outer loop
      vertex 0.522642 -10.3726 6
      vertex 1.54508 -10.1553 9
      vertex 0.522642 -10.3726 9
    endloop
  endfacet
  facet normal 0.207911 -0.978148 0
    outer loop
      vertex 1.54508 -10.1553 9
      vertex 0.522642 -10.3726 6
      vertex 1.54508 -10.1553 6
    endloop
  endfacet
  facet normal 0.743145 -0.669131 0
    outer loop
      vertex 3.34565 -9.11572 9
      vertex 4.04508 -8.33893 6
      vertex 4.04508 -8.33893 9
    endloop
  endfacet
  facet normal 0.743145 -0.669131 0
    outer loop
      vertex 4.04508 -8.33893 6
      vertex 3.34565 -9.11572 9
      vertex 3.34565 -9.11572 6
    endloop
  endfacet
  facet normal 0.951057 -0.309017 0
    outer loop
      vertex 4.56773 -7.43368 9
      vertex 4.89074 -6.43956 6
      vertex 4.89074 -6.43956 9
    endloop
  endfacet
  facet normal 0.951057 -0.309017 0
    outer loop
      vertex 4.89074 -6.43956 6
      vertex 4.56773 -7.43368 9
      vertex 4.56773 -7.43368 6
    endloop
  endfacet
  facet normal 0.866025 -0.5 0
    outer loop
      vertex 4.04508 -8.33893 9
      vertex 4.56773 -7.43368 6
      vertex 4.56773 -7.43368 9
    endloop
  endfacet
  facet normal 0.866025 -0.5 0
    outer loop
      vertex 4.56773 -7.43368 6
      vertex 4.04508 -8.33893 9
      vertex 4.04508 -8.33893 6
    endloop
  endfacet
  facet normal -0.406737 -0.913545 0
    outer loop
      vertex -2.5 -9.73013 6
      vertex -1.54508 -10.1553 9
      vertex -2.5 -9.73013 9
    endloop
  endfacet
  facet normal -0.406737 -0.913545 -0
    outer loop
      vertex -1.54508 -10.1553 9
      vertex -2.5 -9.73013 6
      vertex -1.54508 -10.1553 6
    endloop
  endfacet
  facet normal -0.866025 -0.5 0
    outer loop
      vertex -4.04508 -8.33893 6
      vertex -4.56773 -7.43368 9
      vertex -4.56773 -7.43368 6
    endloop
  endfacet
  facet normal -0.866025 -0.5 0
    outer loop
      vertex -4.56773 -7.43368 9
      vertex -4.04508 -8.33893 6
      vertex -4.04508 -8.33893 9
    endloop
  endfacet
  facet normal -0.994522 -0.104529 -0
    outer loop
      vertex -4.89074 -6.43956 9
      vertex -5 -5.4 6
      vertex -4.89074 -6.43956 6
    endloop
  endfacet
  facet normal -0.994522 -0.104529 0
    outer loop
      vertex -5 -5.4 6
      vertex -4.89074 -6.43956 9
      vertex -5 -5.4 19.4
    endloop
  endfacet
  facet normal -0.994522 -0.104529 0
    outer loop
      vertex -5 -5.4 19.4
      vertex -4.89074 -6.43956 9
      vertex -4.89074 -6.43956 19.4
    endloop
  endfacet
  facet normal -0.951057 -0.309017 0
    outer loop
      vertex -4.56773 -7.43368 6
      vertex -4.89074 -6.43956 9
      vertex -4.89074 -6.43956 6
    endloop
  endfacet
  facet normal -0.951057 -0.309017 0
    outer loop
      vertex -4.89074 -6.43956 9
      vertex -4.56773 -7.43368 6
      vertex -4.56773 -7.43368 9
    endloop
  endfacet
  facet normal 0.587785 -0.809017 0
    outer loop
      vertex 2.5 -9.73013 6
      vertex 3.34565 -9.11572 9
      vertex 2.5 -9.73013 9
    endloop
  endfacet
  facet normal 0.587785 -0.809017 0
    outer loop
      vertex 3.34565 -9.11572 9
      vertex 2.5 -9.73013 6
      vertex 3.34565 -9.11572 6
    endloop
  endfacet
  facet normal 0.406737 -0.913545 0
    outer loop
      vertex 1.54508 -10.1553 6
      vertex 2.5 -9.73013 9
      vertex 1.54508 -10.1553 9
    endloop
  endfacet
  facet normal 0.406737 -0.913545 0
    outer loop
      vertex 2.5 -9.73013 9
      vertex 1.54508 -10.1553 6
      vertex 2.5 -9.73013 6
    endloop
  endfacet
  facet normal 0 -1 0
    outer loop
      vertex -0.522642 -10.3726 6
      vertex 0.522642 -10.3726 9
      vertex -0.522642 -10.3726 9
    endloop
  endfacet
  facet normal 0 -1 -0
    outer loop
      vertex 0.522642 -10.3726 9
      vertex -0.522642 -10.3726 6
      vertex 0.522642 -10.3726 6
    endloop
  endfacet
  facet normal -0.587785 -0.809017 0
    outer loop
      vertex -3.34565 -9.11572 6
      vertex -2.5 -9.73013 9
      vertex -3.34565 -9.11572 9
    endloop
  endfacet
  facet normal -0.587785 -0.809017 -0
    outer loop
      vertex -2.5 -9.73013 9
      vertex -3.34565 -9.11572 6
      vertex -2.5 -9.73013 6
    endloop
  endfacet
  facet normal -0.743145 -0.669131 0
    outer loop
      vertex -3.34565 -9.11572 6
      vertex -4.04508 -8.33893 9
      vertex -4.04508 -8.33893 6
    endloop
  endfacet
  facet normal -0.743145 -0.669131 0
    outer loop
      vertex -4.04508 -8.33893 9
      vertex -3.34565 -9.11572 6
      vertex -3.34565 -9.11572 9
    endloop
  endfacet
  facet normal 0 0 -1
    outer loop
      vertex 2.4 -5.4 6
      vertex 5 -5.4 6
      vertex 4.89074 -6.43956 6
    endloop
  endfacet
  facet normal 0 0 -1
    outer loop
      vertex 2.34755 -5.89899 6
      vertex 4.89074 -6.43956 6
      vertex 4.56773 -7.43368 6
    endloop
  endfacet
  facet normal 0 0 -1
    outer loop
      vertex 5 -5.4 6
      vertex 2.4 -5.4 6
      vertex 4.89074 -4.36044 6
    endloop
  endfacet
  facet normal 0 0 -1
    outer loop
      vertex 2.19251 -6.37617 6
      vertex 4.56773 -7.43368 6
      vertex 4.04508 -8.33893 6
    endloop
  endfacet
  facet normal 0 0 -1
    outer loop
      vertex 2.34755 -4.90101 6
      vertex 4.89074 -4.36044 6
      vertex 2.4 -5.4 6
    endloop
  endfacet
  facet normal 0 0 -1
    outer loop
      vertex 1.94164 -6.81068 6
      vertex 4.04508 -8.33893 6
      vertex 3.34565 -9.11572 6
    endloop
  endfacet
  facet normal -0 0 -1
    outer loop
      vertex 4.89074 -4.36044 6
      vertex 2.34755 -4.90101 6
      vertex 4.56773 -3.36632 6
    endloop
  endfacet
  facet normal 0 0 -1
    outer loop
      vertex 1.60591 -7.18355 6
      vertex 3.34565 -9.11572 6
      vertex 2.5 -9.73013 6
    endloop
  endfacet
  facet normal 0 0 -1
    outer loop
      vertex 2.19251 -4.42383 6
      vertex 4.56773 -3.36632 6
      vertex 2.34755 -4.90101 6
    endloop
  endfacet
  facet normal -0 0 -1
    outer loop
      vertex 4.56773 -3.36632 6
      vertex 2.19251 -4.42383 6
      vertex 4.04508 -2.46107 6
    endloop
  endfacet
  facet normal 0 0 -1
    outer loop
      vertex 4.89074 -6.43956 6
      vertex 2.34755 -5.89899 6
      vertex 2.4 -5.4 6
    endloop
  endfacet
  facet normal 0 0 -1
    outer loop
      vertex 4.56773 -7.43368 6
      vertex 2.19251 -6.37617 6
      vertex 2.34755 -5.89899 6
    endloop
  endfacet
  facet normal 0 0 -1
    outer loop
      vertex 4.04508 -8.33893 6
      vertex 1.94164 -6.81068 6
      vertex 2.19251 -6.37617 6
    endloop
  endfacet
  facet normal 0 0 -1
    outer loop
      vertex 3.34565 -9.11572 6
      vertex 1.60591 -7.18355 6
      vertex 1.94164 -6.81068 6
    endloop
  endfacet
  facet normal 0 0 -1
    outer loop
      vertex 1.2 -7.47846 6
      vertex 2.5 -9.73013 6
      vertex 1.54508 -10.1553 6
    endloop
  endfacet
  facet normal 0 0 -1
    outer loop
      vertex 2.5 -9.73013 6
      vertex 1.2 -7.47846 6
      vertex 1.60591 -7.18355 6
    endloop
  endfacet
  facet normal 0 0 -1
    outer loop
      vertex 1.54508 -10.1553 6
      vertex 0.74164 -7.68254 6
      vertex 1.2 -7.47846 6
    endloop
  endfacet
  facet normal 0 0 -1
    outer loop
      vertex 0.522642 -10.3726 6
      vertex 0.74164 -7.68254 6
      vertex 1.54508 -10.1553 6
    endloop
  endfacet
  facet normal 0 0 -1
    outer loop
      vertex 0.522642 -10.3726 6
      vertex 0.250868 -7.78685 6
      vertex 0.74164 -7.68254 6
    endloop
  endfacet
  facet normal 0 0 -1
    outer loop
      vertex 0.522642 -10.3726 6
      vertex -0.250868 -7.78685 6
      vertex 0.250868 -7.78685 6
    endloop
  endfacet
  facet normal 0 0 -1
    outer loop
      vertex -0.522642 -10.3726 6
      vertex -0.250868 -7.78685 6
      vertex 0.522642 -10.3726 6
    endloop
  endfacet
  facet normal 0 0 -1
    outer loop
      vertex -0.522642 -10.3726 6
      vertex -0.74164 -7.68254 6
      vertex -0.250868 -7.78685 6
    endloop
  endfacet
  facet normal 0 0 -1
    outer loop
      vertex -1.54508 -10.1553 6
      vertex -0.74164 -7.68254 6
      vertex -0.522642 -10.3726 6
    endloop
  endfacet
  facet normal -0 0 -1
    outer loop
      vertex -0.74164 -7.68254 6
      vertex -1.54508 -10.1553 6
      vertex -1.2 -7.47846 6
    endloop
  endfacet
  facet normal 0 0 -1
    outer loop
      vertex -2.5 -9.73013 6
      vertex -1.2 -7.47846 6
      vertex -1.54508 -10.1553 6
    endloop
  endfacet
  facet normal -0 0 -1
    outer loop
      vertex -1.2 -7.47846 6
      vertex -2.5 -9.73013 6
      vertex -1.60591 -7.18355 6
    endloop
  endfacet
  facet normal 0 0 -1
    outer loop
      vertex -3.34565 -9.11572 6
      vertex -1.60591 -7.18355 6
      vertex -2.5 -9.73013 6
    endloop
  endfacet
  facet normal -0 0 -1
    outer loop
      vertex -1.60591 -7.18355 6
      vertex -3.34565 -9.11572 6
      vertex -1.94164 -6.81068 6
    endloop
  endfacet
  facet normal 0 0 -1
    outer loop
      vertex -4.04508 -8.33893 6
      vertex -1.94164 -6.81068 6
      vertex -3.34565 -9.11572 6
    endloop
  endfacet
  facet normal -0 0 -1
    outer loop
      vertex -1.94164 -6.81068 6
      vertex -4.04508 -8.33893 6
      vertex -2.19251 -6.37617 6
    endloop
  endfacet
  facet normal 0 0 -1
    outer loop
      vertex -4.56773 -7.43368 6
      vertex -2.19251 -6.37617 6
      vertex -4.04508 -8.33893 6
    endloop
  endfacet
  facet normal -0 0 -1
    outer loop
      vertex -2.19251 -6.37617 6
      vertex -4.56773 -7.43368 6
      vertex -2.34755 -5.89899 6
    endloop
  endfacet
  facet normal 0 0 -1
    outer loop
      vertex -2.4 -5.4 6
      vertex -3.34565 -1.68428 6
      vertex -2.5 -1.06987 6
    endloop
  endfacet
  facet normal 0 0 -1
    outer loop
      vertex -4.89074 -6.43956 6
      vertex -2.34755 -5.89899 6
      vertex -4.56773 -7.43368 6
    endloop
  endfacet
  facet normal 0 0 -1
    outer loop
      vertex -2.4 -5.4 6
      vertex -4.04508 -2.46107 6
      vertex -3.34565 -1.68428 6
    endloop
  endfacet
  facet normal -0 0 -1
    outer loop
      vertex -2.34755 -5.89899 6
      vertex -4.89074 -6.43956 6
      vertex -2.4 -5.4 6
    endloop
  endfacet
  facet normal 0 0 -1
    outer loop
      vertex -2.4 -5.4 6
      vertex -4.56773 -3.36632 6
      vertex -4.04508 -2.46107 6
    endloop
  endfacet
  facet normal 0 0 -1
    outer loop
      vertex -5 -5.4 6
      vertex -2.4 -5.4 6
      vertex -4.89074 -6.43956 6
    endloop
  endfacet
  facet normal 0 0 -1
    outer loop
      vertex -2.4 -5.4 6
      vertex -4.89074 -4.36044 6
      vertex -4.56773 -3.36632 6
    endloop
  endfacet
  facet normal 0 0 -1
    outer loop
      vertex -2.4 -5.4 6
      vertex -5 -5.4 6
      vertex -4.89074 -4.36044 6
    endloop
  endfacet
  facet normal 0 0 -1
    outer loop
      vertex 1.94164 -3.98932 6
      vertex 4.04508 -2.46107 6
      vertex 2.19251 -4.42383 6
    endloop
  endfacet
  facet normal -0 0 -1
    outer loop
      vertex 4.04508 -2.46107 6
      vertex 1.94164 -3.98932 6
      vertex 3.34565 -1.68428 6
    endloop
  endfacet
  facet normal 0 0 -1
    outer loop
      vertex 1.60591 -3.61645 6
      vertex 3.34565 -1.68428 6
      vertex 1.94164 -3.98932 6
    endloop
  endfacet
  facet normal -0 0 -1
    outer loop
      vertex 3.34565 -1.68428 6
      vertex 1.60591 -3.61645 6
      vertex 2.5 -1.06987 6
    endloop
  endfacet
  facet normal 0 0 -1
    outer loop
      vertex 1.2 -3.32154 6
      vertex 2.5 -1.06987 6
      vertex 1.60591 -3.61645 6
    endloop
  endfacet
  facet normal -0 0 -1
    outer loop
      vertex 2.5 -1.06987 6
      vertex 1.2 -3.32154 6
      vertex 1.54508 -0.644718 6
    endloop
  endfacet
  facet normal 0 0 -1
    outer loop
      vertex 0.74164 -3.11746 6
      vertex 1.54508 -0.644718 6
      vertex 1.2 -3.32154 6
    endloop
  endfacet
  facet normal 0 0 -1
    outer loop
      vertex 0.74164 -3.11746 6
      vertex 0.522642 -0.427391 6
      vertex 1.54508 -0.644718 6
    endloop
  endfacet
  facet normal 0 0 -1
    outer loop
      vertex 0.250868 -3.01315 6
      vertex 0.522642 -0.427391 6
      vertex 0.74164 -3.11746 6
    endloop
  endfacet
  facet normal 0 0 -1
    outer loop
      vertex -0.250868 -3.01315 6
      vertex 0.522642 -0.427391 6
      vertex 0.250868 -3.01315 6
    endloop
  endfacet
  facet normal 0 0 -1
    outer loop
      vertex -0.250868 -3.01315 6
      vertex -0.522642 -0.427391 6
      vertex 0.522642 -0.427391 6
    endloop
  endfacet
  facet normal 0 0 -1
    outer loop
      vertex -0.74164 -3.11746 6
      vertex -0.522642 -0.427391 6
      vertex -0.250868 -3.01315 6
    endloop
  endfacet
  facet normal 0 0 -1
    outer loop
      vertex -1.54508 -0.644718 6
      vertex -0.74164 -3.11746 6
      vertex -1.2 -3.32154 6
    endloop
  endfacet
  facet normal 0 0 -1
    outer loop
      vertex -0.74164 -3.11746 6
      vertex -1.54508 -0.644718 6
      vertex -0.522642 -0.427391 6
    endloop
  endfacet
  facet normal 0 0 -1
    outer loop
      vertex -2.5 -1.06987 6
      vertex -1.2 -3.32154 6
      vertex -1.60591 -3.61645 6
    endloop
  endfacet
  facet normal 0 0 -1
    outer loop
      vertex -2.5 -1.06987 6
      vertex -1.60591 -3.61645 6
      vertex -1.94164 -3.98932 6
    endloop
  endfacet
  facet normal 0 0 -1
    outer loop
      vertex -2.5 -1.06987 6
      vertex -1.94164 -3.98932 6
      vertex -2.19251 -4.42383 6
    endloop
  endfacet
  facet normal 0 0 -1
    outer loop
      vertex -2.5 -1.06987 6
      vertex -2.19251 -4.42383 6
      vertex -2.34755 -4.90101 6
    endloop
  endfacet
  facet normal 0 0 -1
    outer loop
      vertex -1.2 -3.32154 6
      vertex -2.5 -1.06987 6
      vertex -1.54508 -0.644718 6
    endloop
  endfacet
  facet normal 0 0 -1
    outer loop
      vertex -2.5 -1.06987 6
      vertex -2.34755 -4.90101 6
      vertex -2.4 -5.4 6
    endloop
  endfacet
  facet normal -0.986649 -0.162861 0
    outer loop
      vertex 0.0546303 -36.3998 12.525
      vertex -4.89074 -6.43956 19.4
      vertex -4.89074 -6.43956 9
    endloop
  endfacet
  facet normal -0.986649 -0.162861 0
    outer loop
      vertex -4.89074 -6.43956 19.4
      vertex 0.0546303 -36.3998 12.525
      vertex 0.0546303 -36.3998 18.875
    endloop
  endfacet
  facet normal 0.0538801 -0.121017 -0.991187
    outer loop
      vertex 3.27254 -38.2576 12.525
      vertex 1.54508 -10.1553 9
      vertex 3.75 -38.0451 12.525
    endloop
  endfacet
  facet normal 0.00391894 -0.0184375 0.999822
    outer loop
      vertex 3.27254 -38.2576 18.875
      vertex 0.522642 -10.3726 19.4
      vertex 2.76132 -38.3663 18.875
    endloop
  endfacet
  facet normal 0.406736 -0.913546 0
    outer loop
      vertex 3.27254 -38.2576 12.525
      vertex 3.75 -38.0451 18.875
      vertex 3.27254 -38.2576 18.875
    endloop
  endfacet
  facet normal 0.406736 -0.913546 0
    outer loop
      vertex 3.75 -38.0451 18.875
      vertex 3.27254 -38.2576 12.525
      vertex 3.75 -38.0451 12.525
    endloop
  endfacet
  facet normal 0.207909 -0.978148 0
    outer loop
      vertex 2.76132 -38.3663 12.525
      vertex 3.27254 -38.2576 18.875
      vertex 2.76132 -38.3663 18.875
    endloop
  endfacet
  facet normal 0.207909 -0.978148 0
    outer loop
      vertex 3.27254 -38.2576 18.875
      vertex 2.76132 -38.3663 12.525
      vertex 3.27254 -38.2576 12.525
    endloop
  endfacet
  facet normal -0.0582927 -0.130928 -0.989677
    outer loop
      vertex 1.25 -38.0451 12.525
      vertex -2.5 -9.73013 9
      vertex -1.54508 -10.1553 9
    endloop
  endfacet
  facet normal 0.866025 -0.5 0
    outer loop
      vertex 4.52254 -37.3495 18.875
      vertex 4.78386 -36.8968 12.525
      vertex 4.78386 -36.8968 18.875
    endloop
  endfacet
  facet normal 0.866025 -0.5 0
    outer loop
      vertex 4.78386 -36.8968 12.525
      vertex 4.52254 -37.3495 18.875
      vertex 4.52254 -37.3495 12.525
    endloop
  endfacet
  facet normal -0.951056 -0.309017 0
    outer loop
      vertex 0.216136 -36.8968 12.525
      vertex 0.0546303 -36.3998 18.875
      vertex 0.0546303 -36.3998 12.525
    endloop
  endfacet
  facet normal -0.951056 -0.309017 0
    outer loop
      vertex 0.0546303 -36.3998 18.875
      vertex 0.216136 -36.8968 12.525
      vertex 0.216136 -36.8968 18.875
    endloop
  endfacet
  facet normal 0 -0.124935 -0.992165
    outer loop
      vertex 2.23868 -38.3663 12.525
      vertex 0.522642 -10.3726 9
      vertex 2.76132 -38.3663 12.525
    endloop
  endfacet
  facet normal -0 -0.124935 -0.992165
    outer loop
      vertex 0.522642 -10.3726 9
      vertex 2.23868 -38.3663 12.525
      vertex -0.522642 -10.3726 9
    endloop
  endfacet
  facet normal -0.0242939 -0.0218744 0.999466
    outer loop
      vertex -3.34565 -9.11572 19.4
      vertex 0.477457 -37.3495 18.875
      vertex 0.827173 -37.7379 18.875
    endloop
  endfacet
  facet normal -0.024294 -0.0218745 0.999466
    outer loop
      vertex 0.477457 -37.3495 18.875
      vertex -3.34565 -9.11572 19.4
      vertex -4.04508 -8.33893 19.4
    endloop
  endfacet
  facet normal 0.336757 -0.109419 -0.935212
    outer loop
      vertex 4.78386 -36.8968 12.525
      vertex 4.56773 -7.43368 9
      vertex 4.94537 -36.3998 12.525
    endloop
  endfacet
  facet normal 0.0866802 -0.119305 -0.989067
    outer loop
      vertex 3.75 -38.0451 12.525
      vertex 3.34565 -9.11572 9
      vertex 4.17283 -37.7379 12.525
    endloop
  endfacet
  facet normal 1 0 0
    outer loop
      vertex 5 -35.88 12.525
      vertex 5 -5.4 19.4
      vertex 5 -35.88 18.875
    endloop
  endfacet
  facet normal 1 0 0
    outer loop
      vertex 5 -5.4 19.4
      vertex 5 -35.88 12.525
      vertex 5 -5.4 9
    endloop
  endfacet
  facet normal 0 0 1
    outer loop
      vertex 2.4 -5.4 19.4
      vertex 5 -5.4 19.4
      vertex 4.89074 -4.36044 19.4
    endloop
  endfacet
  facet normal 0 0 1
    outer loop
      vertex 2.34755 -4.90101 19.4
      vertex 4.89074 -4.36044 19.4
      vertex 4.56773 -3.36632 19.4
    endloop
  endfacet
  facet normal 0 0 1
    outer loop
      vertex 5 -5.4 19.4
      vertex 2.4 -5.4 19.4
      vertex 4.89074 -6.43956 19.4
    endloop
  endfacet
  facet normal 0 0 1
    outer loop
      vertex 2.19251 -4.42383 19.4
      vertex 4.56773 -3.36632 19.4
      vertex 4.04508 -2.46107 19.4
    endloop
  endfacet
  facet normal -0 0 1
    outer loop
      vertex 2.34755 -5.89899 19.4
      vertex 4.89074 -6.43956 19.4
      vertex 2.4 -5.4 19.4
    endloop
  endfacet
  facet normal 0 0 1
    outer loop
      vertex 1.94164 -3.98932 19.4
      vertex 4.04508 -2.46107 19.4
      vertex 3.34565 -1.68428 19.4
    endloop
  endfacet
  facet normal 0 0 1
    outer loop
      vertex 4.89074 -6.43956 19.4
      vertex 2.34755 -5.89899 19.4
      vertex 4.56773 -7.43368 19.4
    endloop
  endfacet
  facet normal 0 0 1
    outer loop
      vertex 1.60591 -3.61645 19.4
      vertex 3.34565 -1.68428 19.4
      vertex 2.5 -1.06987 19.4
    endloop
  endfacet
  facet normal -0 0 1
    outer loop
      vertex 2.19251 -6.37617 19.4
      vertex 4.56773 -7.43368 19.4
      vertex 2.34755 -5.89899 19.4
    endloop
  endfacet
  facet normal 0 0 1
    outer loop
      vertex 4.56773 -7.43368 19.4
      vertex 2.19251 -6.37617 19.4
      vertex 4.04508 -8.33893 19.4
    endloop
  endfacet
  facet normal 0 0 1
    outer loop
      vertex 4.89074 -4.36044 19.4
      vertex 2.34755 -4.90101 19.4
      vertex 2.4 -5.4 19.4
    endloop
  endfacet
  facet normal 0 0 1
    outer loop
      vertex 4.56773 -3.36632 19.4
      vertex 2.19251 -4.42383 19.4
      vertex 2.34755 -4.90101 19.4
    endloop
  endfacet
  facet normal 0 0 1
    outer loop
      vertex 4.04508 -2.46107 19.4
      vertex 1.94164 -3.98932 19.4
      vertex 2.19251 -4.42383 19.4
    endloop
  endfacet
  facet normal 0 0 1
    outer loop
      vertex 3.34565 -1.68428 19.4
      vertex 1.60591 -3.61645 19.4
      vertex 1.94164 -3.98932 19.4
    endloop
  endfacet
  facet normal 0 0 1
    outer loop
      vertex 1.2 -3.32154 19.4
      vertex 2.5 -1.06987 19.4
      vertex 1.54508 -0.644718 19.4
    endloop
  endfacet
  facet normal 0 0 1
    outer loop
      vertex 2.5 -1.06987 19.4
      vertex 1.2 -3.32154 19.4
      vertex 1.60591 -3.61645 19.4
    endloop
  endfacet
  facet normal 0 0 1
    outer loop
      vertex 1.54508 -0.644718 19.4
      vertex 0.74164 -3.11746 19.4
      vertex 1.2 -3.32154 19.4
    endloop
  endfacet
  facet normal 0 0 1
    outer loop
      vertex 0.522642 -0.427391 19.4
      vertex 0.74164 -3.11746 19.4
      vertex 1.54508 -0.644718 19.4
    endloop
  endfacet
  facet normal 0 0 1
    outer loop
      vertex 0.522642 -0.427391 19.4
      vertex 0.250868 -3.01315 19.4
      vertex 0.74164 -3.11746 19.4
    endloop
  endfacet
  facet normal 0 0 1
    outer loop
      vertex 0.522642 -0.427391 19.4
      vertex -0.250868 -3.01315 19.4
      vertex 0.250868 -3.01315 19.4
    endloop
  endfacet
  facet normal -0 0 1
    outer loop
      vertex -0.522642 -0.427391 19.4
      vertex -0.250868 -3.01315 19.4
      vertex 0.522642 -0.427391 19.4
    endloop
  endfacet
  facet normal 0 0 1
    outer loop
      vertex -0.522642 -0.427391 19.4
      vertex -0.74164 -3.11746 19.4
      vertex -0.250868 -3.01315 19.4
    endloop
  endfacet
  facet normal -0 0 1
    outer loop
      vertex -1.54508 -0.644718 19.4
      vertex -0.74164 -3.11746 19.4
      vertex -0.522642 -0.427391 19.4
    endloop
  endfacet
  facet normal 0 0 1
    outer loop
      vertex -0.74164 -3.11746 19.4
      vertex -1.54508 -0.644718 19.4
      vertex -1.2 -3.32154 19.4
    endloop
  endfacet
  facet normal -0 0 1
    outer loop
      vertex -2.5 -1.06987 19.4
      vertex -1.2 -3.32154 19.4
      vertex -1.54508 -0.644718 19.4
    endloop
  endfacet
  facet normal 0 0 1
    outer loop
      vertex -1.2 -3.32154 19.4
      vertex -2.5 -1.06987 19.4
      vertex -1.60591 -3.61645 19.4
    endloop
  endfacet
  facet normal -0 0 1
    outer loop
      vertex -3.34565 -1.68428 19.4
      vertex -1.60591 -3.61645 19.4
      vertex -2.5 -1.06987 19.4
    endloop
  endfacet
  facet normal 0 0 1
    outer loop
      vertex -1.60591 -3.61645 19.4
      vertex -3.34565 -1.68428 19.4
      vertex -1.94164 -3.98932 19.4
    endloop
  endfacet
  facet normal 0 0 1
    outer loop
      vertex -1.94164 -3.98932 19.4
      vertex -4.04508 -2.46107 19.4
      vertex -2.19251 -4.42383 19.4
    endloop
  endfacet
  facet normal -0 0 1
    outer loop
      vertex -4.04508 -2.46107 19.4
      vertex -1.94164 -3.98932 19.4
      vertex -3.34565 -1.68428 19.4
    endloop
  endfacet
  facet normal -0 0 1
    outer loop
      vertex 1.94164 -6.81068 19.4
      vertex 4.04508 -8.33893 19.4
      vertex 2.19251 -6.37617 19.4
    endloop
  endfacet
  facet normal 0 0 1
    outer loop
      vertex 4.04508 -8.33893 19.4
      vertex 1.94164 -6.81068 19.4
      vertex 3.34565 -9.11572 19.4
    endloop
  endfacet
  facet normal -0 0 1
    outer loop
      vertex 1.60591 -7.18355 19.4
      vertex 3.34565 -9.11572 19.4
      vertex 1.94164 -6.81068 19.4
    endloop
  endfacet
  facet normal 0 0 1
    outer loop
      vertex 3.34565 -9.11572 19.4
      vertex 1.60591 -7.18355 19.4
      vertex 2.5 -9.73013 19.4
    endloop
  endfacet
  facet normal -0 0 1
    outer loop
      vertex 1.2 -7.47846 19.4
      vertex 2.5 -9.73013 19.4
      vertex 1.60591 -7.18355 19.4
    endloop
  endfacet
  facet normal 0 0 1
    outer loop
      vertex 2.5 -9.73013 19.4
      vertex 1.2 -7.47846 19.4
      vertex 1.54508 -10.1553 19.4
    endloop
  endfacet
  facet normal -0 0 1
    outer loop
      vertex 0.74164 -7.68254 19.4
      vertex 1.54508 -10.1553 19.4
      vertex 1.2 -7.47846 19.4
    endloop
  endfacet
  facet normal 0 0 1
    outer loop
      vertex 0.74164 -7.68254 19.4
      vertex 0.522642 -10.3726 19.4
      vertex 1.54508 -10.1553 19.4
    endloop
  endfacet
  facet normal -0 0 1
    outer loop
      vertex 0.250868 -7.78685 19.4
      vertex 0.522642 -10.3726 19.4
      vertex 0.74164 -7.68254 19.4
    endloop
  endfacet
  facet normal -0 0 1
    outer loop
      vertex -0.250868 -7.78685 19.4
      vertex 0.522642 -10.3726 19.4
      vertex 0.250868 -7.78685 19.4
    endloop
  endfacet
  facet normal 0 0 1
    outer loop
      vertex -0.250868 -7.78685 19.4
      vertex -0.522642 -10.3726 19.4
      vertex 0.522642 -10.3726 19.4
    endloop
  endfacet
  facet normal 0 0 1
    outer loop
      vertex -0.74164 -7.68254 19.4
      vertex -0.522642 -10.3726 19.4
      vertex -0.250868 -7.78685 19.4
    endloop
  endfacet
  facet normal 0 0 1
    outer loop
      vertex -1.54508 -10.1553 19.4
      vertex -0.74164 -7.68254 19.4
      vertex -1.2 -7.47846 19.4
    endloop
  endfacet
  facet normal 0 0 1
    outer loop
      vertex -0.74164 -7.68254 19.4
      vertex -1.54508 -10.1553 19.4
      vertex -0.522642 -10.3726 19.4
    endloop
  endfacet
  facet normal 0 0 1
    outer loop
      vertex -2.5 -9.73013 19.4
      vertex -1.2 -7.47846 19.4
      vertex -1.60591 -7.18355 19.4
    endloop
  endfacet
  facet normal 0 0 1
    outer loop
      vertex -3.34565 -9.11572 19.4
      vertex -1.60591 -7.18355 19.4
      vertex -1.94164 -6.81068 19.4
    endloop
  endfacet
  facet normal 0 0 1
    outer loop
      vertex -4.04508 -8.33893 19.4
      vertex -1.94164 -6.81068 19.4
      vertex -2.19251 -6.37617 19.4
    endloop
  endfacet
  facet normal 0 0 1
    outer loop
      vertex -4.56773 -7.43368 19.4
      vertex -2.19251 -6.37617 19.4
      vertex -2.34755 -5.89899 19.4
    endloop
  endfacet
  facet normal 0 0 1
    outer loop
      vertex -1.2 -7.47846 19.4
      vertex -2.5 -9.73013 19.4
      vertex -1.54508 -10.1553 19.4
    endloop
  endfacet
  facet normal 0 0 1
    outer loop
      vertex -4.89074 -6.43956 19.4
      vertex -2.34755 -5.89899 19.4
      vertex -2.4 -5.4 19.4
    endloop
  endfacet
  facet normal -0 0 1
    outer loop
      vertex -4.56773 -3.36632 19.4
      vertex -2.19251 -4.42383 19.4
      vertex -4.04508 -2.46107 19.4
    endloop
  endfacet
  facet normal 0 0 1
    outer loop
      vertex -2.19251 -4.42383 19.4
      vertex -4.56773 -3.36632 19.4
      vertex -2.34755 -4.90101 19.4
    endloop
  endfacet
  facet normal 0 0 1
    outer loop
      vertex -1.60591 -7.18355 19.4
      vertex -3.34565 -9.11572 19.4
      vertex -2.5 -9.73013 19.4
    endloop
  endfacet
  facet normal -0 0 1
    outer loop
      vertex -4.89074 -4.36044 19.4
      vertex -2.34755 -4.90101 19.4
      vertex -4.56773 -3.36632 19.4
    endloop
  endfacet
  facet normal 0 0 1
    outer loop
      vertex -1.94164 -6.81068 19.4
      vertex -4.04508 -8.33893 19.4
      vertex -3.34565 -9.11572 19.4
    endloop
  endfacet
  facet normal 0 0 1
    outer loop
      vertex -2.34755 -4.90101 19.4
      vertex -4.89074 -4.36044 19.4
      vertex -2.4 -5.4 19.4
    endloop
  endfacet
  facet normal 0 0 1
    outer loop
      vertex -2.19251 -6.37617 19.4
      vertex -4.56773 -7.43368 19.4
      vertex -4.04508 -8.33893 19.4
    endloop
  endfacet
  facet normal 0 0 1
    outer loop
      vertex -5 -5.4 19.4
      vertex -2.4 -5.4 19.4
      vertex -4.89074 -4.36044 19.4
    endloop
  endfacet
  facet normal 0 0 1
    outer loop
      vertex -2.34755 -5.89899 19.4
      vertex -4.89074 -6.43956 19.4
      vertex -4.56773 -7.43368 19.4
    endloop
  endfacet
  facet normal 0 0 1
    outer loop
      vertex -2.4 -5.4 19.4
      vertex -5 -5.4 19.4
      vertex -4.89074 -6.43956 19.4
    endloop
  endfacet
  facet normal 0.130467 -0.117473 -0.984469
    outer loop
      vertex 3.34565 -9.11572 9
      vertex 4.52254 -37.3495 12.525
      vertex 4.17283 -37.7379 12.525
    endloop
  endfacet
  facet normal 0.130467 -0.117473 -0.984469
    outer loop
      vertex 4.52254 -37.3495 12.525
      vertex 3.34565 -9.11572 9
      vertex 4.04508 -8.33893 9
    endloop
  endfacet
  facet normal -0.00407091 -0.0191522 0.999808
    outer loop
      vertex -0.522642 -10.3726 19.4
      vertex -1.54508 -10.1553 19.4
      vertex 1.72746 -38.2576 18.875
    endloop
  endfacet
  facet normal -0.58207 -0.189126 -0.790839
    outer loop
      vertex 0.0546303 -36.3998 12.525
      vertex -4.89074 -6.43956 9
      vertex -4.56773 -7.43368 9
    endloop
  endfacet
  facet normal -0.743143 -0.669132 0
    outer loop
      vertex 0.827173 -37.7379 12.525
      vertex 0.477457 -37.3495 18.875
      vertex 0.477457 -37.3495 12.525
    endloop
  endfacet
  facet normal -0.743143 -0.669132 0
    outer loop
      vertex 0.477457 -37.3495 18.875
      vertex 0.827173 -37.7379 12.525
      vertex 0.827173 -37.7379 18.875
    endloop
  endfacet
  facet normal 0.00809445 -0.0181804 0.999802
    outer loop
      vertex 2.5 -9.73013 19.4
      vertex 1.54508 -10.1553 19.4
      vertex 3.75 -38.0451 18.875
    endloop
  endfacet
  facet normal 0.00809444 -0.0181804 0.999802
    outer loop
      vertex 3.75 -38.0451 18.875
      vertex 1.54508 -10.1553 19.4
      vertex 3.27254 -38.2576 18.875
    endloop
  endfacet
  facet normal 0.199141 -0.114974 -0.973203
    outer loop
      vertex 4.04508 -8.33893 9
      vertex 4.78386 -36.8968 12.525
      vertex 4.52254 -37.3495 12.525
    endloop
  endfacet
  facet normal 0.199141 -0.114974 -0.973203
    outer loop
      vertex 4.78386 -36.8968 12.525
      vertex 4.04508 -8.33893 9
      vertex 4.56773 -7.43368 9
    endloop
  endfacet
  facet normal 0.587786 -0.809017 0
    outer loop
      vertex 3.75 -38.0451 12.525
      vertex 4.17283 -37.7379 18.875
      vertex 3.75 -38.0451 18.875
    endloop
  endfacet
  facet normal 0.587786 -0.809017 0
    outer loop
      vertex 4.17283 -37.7379 18.875
      vertex 3.75 -38.0451 12.525
      vertex 4.17283 -37.7379 12.525
    endloop
  endfacet
  facet normal 0.0538802 -0.121017 -0.991187
    outer loop
      vertex 3.75 -38.0451 12.525
      vertex 1.54508 -10.1553 9
      vertex 2.5 -9.73013 9
    endloop
  endfacet
  facet normal 0.994522 -0.104529 0
    outer loop
      vertex 4.94537 -36.3998 18.875
      vertex 5 -35.88 12.525
      vertex 5 -35.88 18.875
    endloop
  endfacet
  facet normal 0.994522 -0.104529 0
    outer loop
      vertex 5 -35.88 12.525
      vertex 4.94537 -36.3998 18.875
      vertex 4.94537 -36.3998 12.525
    endloop
  endfacet
  facet normal 0.0261096 -0.122836 -0.992083
    outer loop
      vertex 3.27254 -38.2576 12.525
      vertex 0.522642 -10.3726 9
      vertex 1.54508 -10.1553 9
    endloop
  endfacet
  facet normal 0.951056 -0.309017 0
    outer loop
      vertex 4.78386 -36.8968 18.875
      vertex 4.94537 -36.3998 12.525
      vertex 4.94537 -36.3998 18.875
    endloop
  endfacet
  facet normal 0.951056 -0.309017 0
    outer loop
      vertex 4.94537 -36.3998 12.525
      vertex 4.78386 -36.8968 18.875
      vertex 4.78386 -36.8968 12.525
    endloop
  endfacet
  facet normal -0.108898 -0.0353832 0.993423
    outer loop
      vertex -4.56773 -7.43368 19.4
      vertex -4.89074 -6.43956 19.4
      vertex 0.0546303 -36.3998 18.875
    endloop
  endfacet
  facet normal -0.0582927 -0.130928 -0.989677
    outer loop
      vertex 1.25 -38.0451 12.525
      vertex -1.54508 -10.1553 9
      vertex 1.72746 -38.2576 12.525
    endloop
  endfacet
  facet normal -0.273544 -0.157931 -0.948805
    outer loop
      vertex 0.216136 -36.8968 12.525
      vertex -4.04508 -8.33893 9
      vertex 0.477457 -37.3495 12.525
    endloop
  endfacet
  facet normal -0.273544 -0.157931 -0.948805
    outer loop
      vertex -4.04508 -8.33893 9
      vertex 0.216136 -36.8968 12.525
      vertex -4.56773 -7.43368 9
    endloop
  endfacet
  facet normal -0.0271052 -0.12752 -0.991466
    outer loop
      vertex 1.72746 -38.2576 12.525
      vertex -1.54508 -10.1553 9
      vertex -0.522642 -10.3726 9
    endloop
  endfacet
  facet normal -0.207909 -0.978148 0
    outer loop
      vertex 1.72746 -38.2576 12.525
      vertex 2.23868 -38.3663 18.875
      vertex 1.72746 -38.2576 18.875
    endloop
  endfacet
  facet normal -0.207909 -0.978148 -0
    outer loop
      vertex 2.23868 -38.3663 18.875
      vertex 1.72746 -38.2576 12.525
      vertex 2.23868 -38.3663 12.525
    endloop
  endfacet
  facet normal -0.0271048 -0.12752 -0.991466
    outer loop
      vertex 1.72746 -38.2576 12.525
      vertex -0.522642 -10.3726 9
      vertex 2.23868 -38.3663 12.525
    endloop
  endfacet
  facet normal -0.582069 -0.189126 -0.79084
    outer loop
      vertex 0.0546303 -36.3998 12.525
      vertex -4.56773 -7.43368 9
      vertex 0.216136 -36.8968 12.525
    endloop
  endfacet
  facet normal 0.00391899 -0.0184375 0.999822
    outer loop
      vertex 1.54508 -10.1553 19.4
      vertex 0.522642 -10.3726 19.4
      vertex 3.27254 -38.2576 18.875
    endloop
  endfacet
  facet normal 0.0197309 -0.0177657 0.999647
    outer loop
      vertex 3.34565 -9.11572 19.4
      vertex 4.52254 -37.3495 18.875
      vertex 4.04508 -8.33893 19.4
    endloop
  endfacet
  facet normal 0.0197308 -0.0177658 0.999647
    outer loop
      vertex 4.52254 -37.3495 18.875
      vertex 3.34565 -9.11572 19.4
      vertex 4.17283 -37.7379 18.875
    endloop
  endfacet
  facet normal 0.0866801 -0.119305 -0.989067
    outer loop
      vertex 3.75 -38.0451 12.525
      vertex 2.5 -9.73013 9
      vertex 3.34565 -9.11572 9
    endloop
  endfacet
  facet normal 0.743143 -0.669132 0
    outer loop
      vertex 4.17283 -37.7379 18.875
      vertex 4.52254 -37.3495 12.525
      vertex 4.52254 -37.3495 18.875
    endloop
  endfacet
  facet normal 0.743143 -0.669132 0
    outer loop
      vertex 4.52254 -37.3495 12.525
      vertex 4.17283 -37.7379 18.875
      vertex 4.17283 -37.7379 12.525
    endloop
  endfacet
  facet normal 0.336758 -0.109419 -0.935212
    outer loop
      vertex 4.94537 -36.3998 12.525
      vertex 4.56773 -7.43368 9
      vertex 4.89074 -6.43956 9
    endloop
  endfacet
  facet normal 0.737811 -0.0775474 -0.670538
    outer loop
      vertex 5 -35.88 12.525
      vertex 4.89074 -6.43956 9
      vertex 5 -5.4 9
    endloop
  endfacet
  facet normal 0.737811 -0.0775474 -0.670538
    outer loop
      vertex 4.89074 -6.43956 9
      vertex 5 -35.88 12.525
      vertex 4.94537 -36.3998 12.525
    endloop
  endfacet
  facet normal 0.0304571 -0.0175844 0.999381
    outer loop
      vertex 4.04508 -8.33893 19.4
      vertex 4.78386 -36.8968 18.875
      vertex 4.56773 -7.43368 19.4
    endloop
  endfacet
  facet normal 0.0304571 -0.0175844 0.999381
    outer loop
      vertex 4.78386 -36.8968 18.875
      vertex 4.04508 -8.33893 19.4
      vertex 4.52254 -37.3495 18.875
    endloop
  endfacet
  facet normal 0.0535448 -0.0173978 0.998414
    outer loop
      vertex 4.94537 -36.3998 18.875
      vertex 4.56773 -7.43368 19.4
      vertex 4.78386 -36.8968 18.875
    endloop
  endfacet
  facet normal -0.00407085 -0.0191522 0.999808
    outer loop
      vertex 2.23868 -38.3663 18.875
      vertex -0.522642 -10.3726 19.4
      vertex 1.72746 -38.2576 18.875
    endloop
  endfacet
  facet normal 0 -0.0187509 0.999824
    outer loop
      vertex 0.522642 -10.3726 19.4
      vertex 2.23868 -38.3663 18.875
      vertex 2.76132 -38.3663 18.875
    endloop
  endfacet
  facet normal 0 -0.0187509 0.999824
    outer loop
      vertex 2.23868 -38.3663 18.875
      vertex 0.522642 -10.3726 19.4
      vertex -0.522642 -10.3726 19.4
    endloop
  endfacet
  facet normal -0.0428861 -0.0247603 0.998773
    outer loop
      vertex -4.04508 -8.33893 19.4
      vertex 0.216136 -36.8968 18.875
      vertex 0.477457 -37.3495 18.875
    endloop
  endfacet
  facet normal -0.0428861 -0.0247603 0.998773
    outer loop
      vertex 0.216136 -36.8968 18.875
      vertex -4.04508 -8.33893 19.4
      vertex -4.56773 -7.43368 19.4
    endloop
  endfacet
  facet normal -0.00877041 -0.0196987 0.999767
    outer loop
      vertex 1.72746 -38.2576 18.875
      vertex -1.54508 -10.1553 19.4
      vertex 1.25 -38.0451 18.875
    endloop
  endfacet
  facet normal -0.00877041 -0.0196987 0.999767
    outer loop
      vertex -1.54508 -10.1553 19.4
      vertex -2.5 -9.73013 19.4
      vertex 1.25 -38.0451 18.875
    endloop
  endfacet
  facet normal -0.0149006 -0.0205089 0.999679
    outer loop
      vertex 1.25 -38.0451 18.875
      vertex -3.34565 -9.11572 19.4
      vertex 0.827173 -37.7379 18.875
    endloop
  endfacet
  facet normal -0.0149006 -0.0205089 0.999679
    outer loop
      vertex -2.5 -9.73013 19.4
      vertex -3.34565 -9.11572 19.4
      vertex 1.25 -38.0451 18.875
    endloop
  endfacet
  facet normal 0.0261093 -0.122836 -0.992083
    outer loop
      vertex 2.76132 -38.3663 12.525
      vertex 0.522642 -10.3726 9
      vertex 3.27254 -38.2576 12.525
    endloop
  endfacet
  facet normal 0 -1 0
    outer loop
      vertex 2.23868 -38.3663 12.525
      vertex 2.76132 -38.3663 18.875
      vertex 2.23868 -38.3663 18.875
    endloop
  endfacet
  facet normal 0 -1 -0
    outer loop
      vertex 2.76132 -38.3663 18.875
      vertex 2.23868 -38.3663 12.525
      vertex 2.76132 -38.3663 12.525
    endloop
  endfacet
  facet normal 0.0130493 -0.0179608 0.999754
    outer loop
      vertex 4.17283 -37.7379 18.875
      vertex 3.34565 -9.11572 19.4
      vertex 3.75 -38.0451 18.875
    endloop
  endfacet
  facet normal 0.0130493 -0.0179608 0.999754
    outer loop
      vertex 3.34565 -9.11572 19.4
      vertex 2.5 -9.73013 19.4
      vertex 3.75 -38.0451 18.875
    endloop
  endfacet
  facet normal 0.0535449 -0.0173978 0.998414
    outer loop
      vertex 4.89074 -6.43956 19.4
      vertex 4.56773 -7.43368 19.4
      vertex 4.94537 -36.3998 18.875
    endloop
  endfacet
  facet normal 0.161698 -0.0169952 0.986694
    outer loop
      vertex 4.89074 -6.43956 19.4
      vertex 5 -35.88 18.875
      vertex 5 -5.4 19.4
    endloop
  endfacet
  facet normal 0.161698 -0.0169952 0.986694
    outer loop
      vertex 5 -35.88 18.875
      vertex 4.89074 -6.43956 19.4
      vertex 4.94537 -36.3998 18.875
    endloop
  endfacet
  facet normal -0.108898 -0.0353832 0.993423
    outer loop
      vertex 0.216136 -36.8968 18.875
      vertex -4.56773 -7.43368 19.4
      vertex 0.0546303 -36.3998 18.875
    endloop
  endfacet
  facet normal -0.159405 -0.143529 -0.976724
    outer loop
      vertex 0.477457 -37.3495 12.525
      vertex -3.34565 -9.11572 9
      vertex 0.827173 -37.7379 12.525
    endloop
  endfacet
  facet normal -0.159406 -0.14353 -0.976724
    outer loop
      vertex -3.34565 -9.11572 9
      vertex 0.477457 -37.3495 12.525
      vertex -4.04508 -8.33893 9
    endloop
  endfacet
  facet normal -0.406736 -0.913546 0
    outer loop
      vertex 1.25 -38.0451 12.525
      vertex 1.72746 -38.2576 18.875
      vertex 1.25 -38.0451 18.875
    endloop
  endfacet
  facet normal -0.406736 -0.913546 -0
    outer loop
      vertex 1.72746 -38.2576 18.875
      vertex 1.25 -38.0451 12.525
      vertex 1.72746 -38.2576 12.525
    endloop
  endfacet
  facet normal -0.0986592 -0.135793 -0.985813
    outer loop
      vertex 1.25 -38.0451 12.525
      vertex -3.34565 -9.11572 9
      vertex -2.5 -9.73013 9
    endloop
  endfacet
  facet normal -0.866025 -0.5 0
    outer loop
      vertex 0.477457 -37.3495 12.525
      vertex 0.216136 -36.8968 18.875
      vertex 0.216136 -36.8968 12.525
    endloop
  endfacet
  facet normal -0.866025 -0.5 0
    outer loop
      vertex 0.216136 -36.8968 18.875
      vertex 0.477457 -37.3495 12.525
      vertex 0.477457 -37.3495 18.875
    endloop
  endfacet
  facet normal -0.0986593 -0.135793 -0.985813
    outer loop
      vertex 0.827173 -37.7379 12.525
      vertex -3.34565 -9.11572 9
      vertex 1.25 -38.0451 12.525
    endloop
  endfacet
  facet normal -0.587786 -0.809017 0
    outer loop
      vertex 0.827173 -37.7379 12.525
      vertex 1.25 -38.0451 18.875
      vertex 0.827173 -37.7379 18.875
    endloop
  endfacet
  facet normal -0.587786 -0.809017 -0
    outer loop
      vertex 1.25 -38.0451 18.875
      vertex 0.827173 -37.7379 12.525
      vertex 1.25 -38.0451 12.525
    endloop
  endfacet
endsolid OpenSCAD_Model
