solid OpenSCAD_Model
  facet normal 0.866026 0.499999 0
    outer loop
      vertex 9.2 73.9349 -1.4
      vertex 9.95 72.6358 -1.9
      vertex 9.2 73.9349 -12.7
    endloop
  endfacet
  facet normal 0.866025 0.5 1.562e-07
    outer loop
      vertex 13.8 65.9674 -1.9
      vertex 9.2 73.9349 -12.7
      vertex 9.95 72.6358 -1.9
    endloop
  endfacet
  facet normal 0.866025 0.5 -2.88948e-08
    outer loop
      vertex 18.4 58 -12.7
      vertex 13.8 65.9674 -1.9
      vertex 17.65 59.299 -1.9
    endloop
  endfacet
  facet normal 0.866025 0.5 -0
    outer loop
      vertex 18.4 58 -12.7
      vertex 17.65 59.299 -1.9
      vertex 18.4 58 -1.4
    endloop
  endfacet
  facet normal 0.866025 0.5 2.14843e-07
    outer loop
      vertex 13.8 65.9674 -1.9
      vertex 18.4 58 -12.7
      vertex 9.2 73.9349 -12.7
    endloop
  endfacet
  facet normal 0.866026 0.499999 0
    outer loop
      vertex 9.2 73.9349 12.7
      vertex 9.95 72.6358 1.9
      vertex 9.2 73.9349 1.4
    endloop
  endfacet
  facet normal 0.866025 0.5 -1.562e-07
    outer loop
      vertex 9.2 73.9349 12.7
      vertex 13.8 65.9674 1.9
      vertex 9.95 72.6358 1.9
    endloop
  endfacet
  facet normal 0.866025 0.5 -2.14843e-07
    outer loop
      vertex 18.4 58 12.7
      vertex 13.8 65.9674 1.9
      vertex 9.2 73.9349 12.7
    endloop
  endfacet
  facet normal 0.866025 0.5 2.88948e-08
    outer loop
      vertex 13.8 65.9674 1.9
      vertex 18.4 58 12.7
      vertex 17.65 59.299 1.9
    endloop
  endfacet
  facet normal 0.866025 0.5 0
    outer loop
      vertex 17.65 59.299 1.9
      vertex 18.4 58 12.7
      vertex 18.4 58 1.4
    endloop
  endfacet
  facet normal -0.866026 0.499999 0
    outer loop
      vertex -9.2 73.9349 -12.7
      vertex -9.95 72.6358 -1.9
      vertex -9.2 73.9349 -1.4
    endloop
  endfacet
  facet normal -0.866025 0.5 1.562e-07
    outer loop
      vertex -9.2 73.9349 -12.7
      vertex -13.8 65.9674 -1.9
      vertex -9.95 72.6358 -1.9
    endloop
  endfacet
  facet normal -0.866025 0.5 2.14843e-07
    outer loop
      vertex -18.4 58 -12.7
      vertex -13.8 65.9674 -1.9
      vertex -9.2 73.9349 -12.7
    endloop
  endfacet
  facet normal -0.866025 0.5 -2.88948e-08
    outer loop
      vertex -13.8 65.9674 -1.9
      vertex -18.4 58 -12.7
      vertex -17.65 59.299 -1.9
    endloop
  endfacet
  facet normal -0.866025 0.5 0
    outer loop
      vertex -17.65 59.299 -1.9
      vertex -18.4 58 -12.7
      vertex -18.4 58 -1.4
    endloop
  endfacet
  facet normal -0.866026 0.499999 0
    outer loop
      vertex -9.2 73.9349 1.4
      vertex -9.95 72.6358 1.9
      vertex -9.2 73.9349 12.7
    endloop
  endfacet
  facet normal -0.866025 0.5 -1.562e-07
    outer loop
      vertex -13.8 65.9674 1.9
      vertex -9.2 73.9349 12.7
      vertex -9.95 72.6358 1.9
    endloop
  endfacet
  facet normal -0.866025 0.5 2.88948e-08
    outer loop
      vertex -18.4 58 12.7
      vertex -13.8 65.9674 1.9
      vertex -17.65 59.299 1.9
    endloop
  endfacet
  facet normal -0.866025 0.5 0
    outer loop
      vertex -18.4 58 12.7
      vertex -17.65 59.299 1.9
      vertex -18.4 58 1.4
    endloop
  endfacet
  facet normal -0.866025 0.5 -2.14843e-07
    outer loop
      vertex -13.8 65.9674 1.9
      vertex -18.4 58 12.7
      vertex -9.2 73.9349 12.7
    endloop
  endfacet
  facet normal 0 1 0
    outer loop
      vertex 9.2 73.9349 12.7
      vertex 7.7 73.9349 1.9
      vertex -9.2 73.9349 12.7
    endloop
  endfacet
  facet normal 0 1 0
    outer loop
      vertex 9.2 73.9349 12.7
      vertex 8.95735 73.9349 1.48088
      vertex 7.7 73.9349 1.9
    endloop
  endfacet
  facet normal -0 1 0
    outer loop
      vertex 8.95735 73.9349 1.48088
      vertex 9.2 73.9349 12.7
      vertex 9.2 73.9349 1.4
    endloop
  endfacet
  facet normal 0 1 -0
    outer loop
      vertex -7.7 73.9349 1.9
      vertex -9.2 73.9349 12.7
      vertex 7.7 73.9349 1.9
    endloop
  endfacet
  facet normal 0 1 -0
    outer loop
      vertex -8.95735 73.9349 1.48088
      vertex -9.2 73.9349 12.7
      vertex -7.7 73.9349 1.9
    endloop
  endfacet
  facet normal 0 1 0
    outer loop
      vertex -9.2 73.9349 12.7
      vertex -8.95735 73.9349 1.48088
      vertex -9.2 73.9349 1.4
    endloop
  endfacet
  facet normal 0 1 -0
    outer loop
      vertex 9.2 73.9349 -12.7
      vertex 8.95735 73.9349 -1.48088
      vertex 9.2 73.9349 -1.4
    endloop
  endfacet
  facet normal 0 1 0
    outer loop
      vertex 7.7 73.9349 -1.9
      vertex 9.2 73.9349 -12.7
      vertex -7.7 73.9349 -1.9
    endloop
  endfacet
  facet normal 0 1 0
    outer loop
      vertex 8.95735 73.9349 -1.48088
      vertex 9.2 73.9349 -12.7
      vertex 7.7 73.9349 -1.9
    endloop
  endfacet
  facet normal 0 1 0
    outer loop
      vertex -9.2 73.9349 -12.7
      vertex -8.95735 73.9349 -1.48088
      vertex -7.7 73.9349 -1.9
    endloop
  endfacet
  facet normal 0 1 0
    outer loop
      vertex -9.2 73.9349 -12.7
      vertex -7.7 73.9349 -1.9
      vertex 9.2 73.9349 -12.7
    endloop
  endfacet
  facet normal 0 1 0
    outer loop
      vertex -8.95735 73.9349 -1.48088
      vertex -9.2 73.9349 -12.7
      vertex -9.2 73.9349 -1.4
    endloop
  endfacet
  facet normal -0 0 1
    outer loop
      vertex 6.10548 61.525 12.7
      vertex 18.4 58 12.7
      vertex 9.2 73.9349 12.7
    endloop
  endfacet
  facet normal 0 0 1
    outer loop
      vertex 7.01138 57.2631 12.7
      vertex 18.4 58 12.7
      vertex 7.05 58 12.7
    endloop
  endfacet
  facet normal 0 0 1
    outer loop
      vertex 18.4 58 12.7
      vertex 7.01138 58.7369 12.7
      vertex 7.05 58 12.7
    endloop
  endfacet
  facet normal 0 0 1
    outer loop
      vertex 18.4 58 12.7
      vertex 6.89594 59.4658 12.7
      vertex 7.01138 58.7369 12.7
    endloop
  endfacet
  facet normal 0 0 1
    outer loop
      vertex 18.4 58 12.7
      vertex 6.70495 60.1786 12.7
      vertex 6.89594 59.4658 12.7
    endloop
  endfacet
  facet normal 0 0 1
    outer loop
      vertex 18.4 58 12.7
      vertex 6.44049 60.8675 12.7
      vertex 6.70495 60.1786 12.7
    endloop
  endfacet
  facet normal 0 0 1
    outer loop
      vertex 18.4 58 12.7
      vertex 6.10548 61.525 12.7
      vertex 6.44049 60.8675 12.7
    endloop
  endfacet
  facet normal 0 0 1
    outer loop
      vertex 9.2 73.9349 12.7
      vertex 5.70357 62.1439 12.7
      vertex 6.10548 61.525 12.7
    endloop
  endfacet
  facet normal 0 0 1
    outer loop
      vertex 9.2 73.9349 12.7
      vertex 5.23917 62.7174 12.7
      vertex 5.70357 62.1439 12.7
    endloop
  endfacet
  facet normal 0 0 1
    outer loop
      vertex 9.2 73.9349 12.7
      vertex 4.71737 63.2392 12.7
      vertex 5.23917 62.7174 12.7
    endloop
  endfacet
  facet normal 0 0 1
    outer loop
      vertex 9.2 73.9349 12.7
      vertex 4.14389 63.7036 12.7
      vertex 4.71737 63.2392 12.7
    endloop
  endfacet
  facet normal 0 0 1
    outer loop
      vertex 9.2 73.9349 12.7
      vertex 3.525 64.1055 12.7
      vertex 4.14389 63.7036 12.7
    endloop
  endfacet
  facet normal 0 0 1
    outer loop
      vertex 9.2 73.9349 12.7
      vertex 2.86749 64.4405 12.7
      vertex 3.525 64.1055 12.7
    endloop
  endfacet
  facet normal 0 0 1
    outer loop
      vertex 9.2 73.9349 12.7
      vertex 2.17857 64.7049 12.7
      vertex 2.86749 64.4405 12.7
    endloop
  endfacet
  facet normal 0 0 1
    outer loop
      vertex 9.2 73.9349 12.7
      vertex 1.46578 64.8959 12.7
      vertex 2.17857 64.7049 12.7
    endloop
  endfacet
  facet normal 0 0 1
    outer loop
      vertex 9.2 73.9349 12.7
      vertex 0.736925 65.0114 12.7
      vertex 1.46578 64.8959 12.7
    endloop
  endfacet
  facet normal 0 0 1
    outer loop
      vertex 9.2 73.9349 12.7
      vertex 0 65.05 12.7
      vertex 0.736925 65.0114 12.7
    endloop
  endfacet
  facet normal -0 0 1
    outer loop
      vertex -9.2 73.9349 12.7
      vertex 0 65.05 12.7
      vertex 9.2 73.9349 12.7
    endloop
  endfacet
  facet normal 0 0 1
    outer loop
      vertex 0 65.05 12.7
      vertex -9.2 73.9349 12.7
      vertex -0.736925 65.0114 12.7
    endloop
  endfacet
  facet normal 0 0 1
    outer loop
      vertex -0.736925 65.0114 12.7
      vertex -9.2 73.9349 12.7
      vertex -1.46578 64.8959 12.7
    endloop
  endfacet
  facet normal 0 0 1
    outer loop
      vertex -1.46578 64.8959 12.7
      vertex -9.2 73.9349 12.7
      vertex -2.17857 64.7049 12.7
    endloop
  endfacet
  facet normal 0 0 1
    outer loop
      vertex -2.17857 64.7049 12.7
      vertex -9.2 73.9349 12.7
      vertex -2.86749 64.4405 12.7
    endloop
  endfacet
  facet normal 0 0 1
    outer loop
      vertex -2.86749 64.4405 12.7
      vertex -9.2 73.9349 12.7
      vertex -3.525 64.1055 12.7
    endloop
  endfacet
  facet normal 0 0 1
    outer loop
      vertex -6.89594 59.4658 12.7
      vertex -18.4 58 12.7
      vertex -7.01138 58.7369 12.7
    endloop
  endfacet
  facet normal 0 0 1
    outer loop
      vertex -6.70495 60.1786 12.7
      vertex -18.4 58 12.7
      vertex -6.89594 59.4658 12.7
    endloop
  endfacet
  facet normal 0 0 1
    outer loop
      vertex -6.44049 60.8675 12.7
      vertex -18.4 58 12.7
      vertex -6.70495 60.1786 12.7
    endloop
  endfacet
  facet normal 0 0 1
    outer loop
      vertex -6.10548 61.525 12.7
      vertex -18.4 58 12.7
      vertex -6.44049 60.8675 12.7
    endloop
  endfacet
  facet normal 0 0 1
    outer loop
      vertex -18.4 58 12.7
      vertex -6.10548 61.525 12.7
      vertex -9.2 73.9349 12.7
    endloop
  endfacet
  facet normal 0 0 1
    outer loop
      vertex -5.70357 62.1439 12.7
      vertex -9.2 73.9349 12.7
      vertex -6.10548 61.525 12.7
    endloop
  endfacet
  facet normal 0 0 1
    outer loop
      vertex -5.23917 62.7174 12.7
      vertex -9.2 73.9349 12.7
      vertex -5.70357 62.1439 12.7
    endloop
  endfacet
  facet normal 0 0 1
    outer loop
      vertex -4.71737 63.2392 12.7
      vertex -9.2 73.9349 12.7
      vertex -5.23917 62.7174 12.7
    endloop
  endfacet
  facet normal 0 0 1
    outer loop
      vertex -4.14389 63.7036 12.7
      vertex -9.2 73.9349 12.7
      vertex -4.71737 63.2392 12.7
    endloop
  endfacet
  facet normal 0 0 1
    outer loop
      vertex -3.525 64.1055 12.7
      vertex -9.2 73.9349 12.7
      vertex -4.14389 63.7036 12.7
    endloop
  endfacet
  facet normal 0 0 1
    outer loop
      vertex 6.89594 56.5342 12.7
      vertex 18.4 58 12.7
      vertex 7.01138 57.2631 12.7
    endloop
  endfacet
  facet normal 0 0 1
    outer loop
      vertex 6.70495 55.8214 12.7
      vertex 18.4 58 12.7
      vertex 6.89594 56.5342 12.7
    endloop
  endfacet
  facet normal 0 0 1
    outer loop
      vertex 6.44049 55.1325 12.7
      vertex 18.4 58 12.7
      vertex 6.70495 55.8214 12.7
    endloop
  endfacet
  facet normal 0 0 1
    outer loop
      vertex 6.10548 54.475 12.7
      vertex 18.4 58 12.7
      vertex 6.44049 55.1325 12.7
    endloop
  endfacet
  facet normal 0 0 1
    outer loop
      vertex 18.4 58 12.7
      vertex 6.10548 54.475 12.7
      vertex 9.2 42.0651 12.7
    endloop
  endfacet
  facet normal -0 0 1
    outer loop
      vertex 5.70357 53.8561 12.7
      vertex 9.2 42.0651 12.7
      vertex 6.10548 54.475 12.7
    endloop
  endfacet
  facet normal -0 0 1
    outer loop
      vertex 5.23917 53.2826 12.7
      vertex 9.2 42.0651 12.7
      vertex 5.70357 53.8561 12.7
    endloop
  endfacet
  facet normal -0 0 1
    outer loop
      vertex 4.71737 52.7608 12.7
      vertex 9.2 42.0651 12.7
      vertex 5.23917 53.2826 12.7
    endloop
  endfacet
  facet normal -0 0 1
    outer loop
      vertex 4.14389 52.2964 12.7
      vertex 9.2 42.0651 12.7
      vertex 4.71737 52.7608 12.7
    endloop
  endfacet
  facet normal -0 0 1
    outer loop
      vertex 3.525 51.8945 12.7
      vertex 9.2 42.0651 12.7
      vertex 4.14389 52.2964 12.7
    endloop
  endfacet
  facet normal -0 0 1
    outer loop
      vertex 2.86749 51.5595 12.7
      vertex 9.2 42.0651 12.7
      vertex 3.525 51.8945 12.7
    endloop
  endfacet
  facet normal -0 0 1
    outer loop
      vertex 2.17857 51.2951 12.7
      vertex 9.2 42.0651 12.7
      vertex 2.86749 51.5595 12.7
    endloop
  endfacet
  facet normal -0 0 1
    outer loop
      vertex 1.46578 51.1041 12.7
      vertex 9.2 42.0651 12.7
      vertex 2.17857 51.2951 12.7
    endloop
  endfacet
  facet normal -0 0 1
    outer loop
      vertex 0.736925 50.9886 12.7
      vertex 9.2 42.0651 12.7
      vertex 1.46578 51.1041 12.7
    endloop
  endfacet
  facet normal -0 0 1
    outer loop
      vertex 0 50.95 12.7
      vertex 9.2 42.0651 12.7
      vertex 0.736925 50.9886 12.7
    endloop
  endfacet
  facet normal 0 0 1
    outer loop
      vertex -9.2 42.0651 12.7
      vertex 0 50.95 12.7
      vertex -0.736925 50.9886 12.7
    endloop
  endfacet
  facet normal 0 0 1
    outer loop
      vertex -9.2 42.0651 12.7
      vertex -0.736925 50.9886 12.7
      vertex -1.46578 51.1041 12.7
    endloop
  endfacet
  facet normal 0 0 1
    outer loop
      vertex -9.2 42.0651 12.7
      vertex -1.46578 51.1041 12.7
      vertex -2.17857 51.2951 12.7
    endloop
  endfacet
  facet normal 0 0 1
    outer loop
      vertex -9.2 42.0651 12.7
      vertex -2.17857 51.2951 12.7
      vertex -2.86749 51.5595 12.7
    endloop
  endfacet
  facet normal 0 0 1
    outer loop
      vertex -9.2 42.0651 12.7
      vertex -2.86749 51.5595 12.7
      vertex -3.525 51.8945 12.7
    endloop
  endfacet
  facet normal 0 0 1
    outer loop
      vertex -9.2 42.0651 12.7
      vertex -3.525 51.8945 12.7
      vertex -4.14389 52.2964 12.7
    endloop
  endfacet
  facet normal 0 0 1
    outer loop
      vertex -7.01138 58.7369 12.7
      vertex -18.4 58 12.7
      vertex -7.05 58 12.7
    endloop
  endfacet
  facet normal 0 0 1
    outer loop
      vertex 0 50.95 12.7
      vertex -9.2 42.0651 12.7
      vertex 9.2 42.0651 12.7
    endloop
  endfacet
  facet normal 0 0 1
    outer loop
      vertex -4.71737 52.7608 12.7
      vertex -9.2 42.0651 12.7
      vertex -4.14389 52.2964 12.7
    endloop
  endfacet
  facet normal 0 0 1
    outer loop
      vertex -5.23917 53.2826 12.7
      vertex -9.2 42.0651 12.7
      vertex -4.71737 52.7608 12.7
    endloop
  endfacet
  facet normal 0 0 1
    outer loop
      vertex -5.70357 53.8561 12.7
      vertex -9.2 42.0651 12.7
      vertex -5.23917 53.2826 12.7
    endloop
  endfacet
  facet normal 0 0 1
    outer loop
      vertex -6.10548 54.475 12.7
      vertex -9.2 42.0651 12.7
      vertex -5.70357 53.8561 12.7
    endloop
  endfacet
  facet normal 0 0 1
    outer loop
      vertex -18.4 58 12.7
      vertex -6.10548 54.475 12.7
      vertex -6.44049 55.1325 12.7
    endloop
  endfacet
  facet normal 0 0 1
    outer loop
      vertex -18.4 58 12.7
      vertex -6.44049 55.1325 12.7
      vertex -6.70495 55.8214 12.7
    endloop
  endfacet
  facet normal 0 0 1
    outer loop
      vertex -18.4 58 12.7
      vertex -6.70495 55.8214 12.7
      vertex -6.89594 56.5342 12.7
    endloop
  endfacet
  facet normal 0 0 1
    outer loop
      vertex -18.4 58 12.7
      vertex -6.89594 56.5342 12.7
      vertex -7.01138 57.2631 12.7
    endloop
  endfacet
  facet normal 0 0 1
    outer loop
      vertex -7.05 58 12.7
      vertex -18.4 58 12.7
      vertex -7.01138 57.2631 12.7
    endloop
  endfacet
  facet normal 0 0 1
    outer loop
      vertex -6.10548 54.475 12.7
      vertex -18.4 58 12.7
      vertex -9.2 42.0651 12.7
    endloop
  endfacet
  facet normal 0.866025 -0.5 0
    outer loop
      vertex 18.4 58 12.7
      vertex 17.65 56.701 1.9
      vertex 18.4 58 1.4
    endloop
  endfacet
  facet normal 0.866025 -0.5 -5.50903e-09
    outer loop
      vertex 18.4 58 12.7
      vertex 13.8 50.0326 1.9
      vertex 17.65 56.701 1.9
    endloop
  endfacet
  facet normal 0.866025 -0.5 -3.82364e-08
    outer loop
      vertex 9.2 42.0651 12.7
      vertex 13.8 50.0326 1.9
      vertex 18.4 58 12.7
    endloop
  endfacet
  facet normal 0.866025 -0.5 2.04063e-08
    outer loop
      vertex 13.8 50.0326 1.9
      vertex 9.2 42.0651 12.7
      vertex 9.95 43.3642 1.9
    endloop
  endfacet
  facet normal 0.866025 -0.5 0
    outer loop
      vertex 9.2 42.0651 1.4
      vertex 9.95 43.3642 1.9
      vertex 9.2 42.0651 12.7
    endloop
  endfacet
  facet normal 0.866025 -0.5 0
    outer loop
      vertex 17.65 56.701 -1.9
      vertex 18.4 58 -12.7
      vertex 18.4 58 -1.4
    endloop
  endfacet
  facet normal 0.866025 -0.5 5.50903e-09
    outer loop
      vertex 13.8 50.0326 -1.9
      vertex 18.4 58 -12.7
      vertex 17.65 56.701 -1.9
    endloop
  endfacet
  facet normal 0.866025 -0.5 -2.04063e-08
    outer loop
      vertex 9.2 42.0651 -12.7
      vertex 13.8 50.0326 -1.9
      vertex 9.95 43.3642 -1.9
    endloop
  endfacet
  facet normal 0.866025 -0.5 0
    outer loop
      vertex 9.2 42.0651 -12.7
      vertex 9.95 43.3642 -1.9
      vertex 9.2 42.0651 -1.4
    endloop
  endfacet
  facet normal 0.866025 -0.5 3.82364e-08
    outer loop
      vertex 13.8 50.0326 -1.9
      vertex 9.2 42.0651 -12.7
      vertex 18.4 58 -12.7
    endloop
  endfacet
  facet normal 0 0 -1
    outer loop
      vertex 3.1 56.0178 -12.7
      vertex 18.4 58 -12.7
      vertex 9.2 42.0651 -12.7
    endloop
  endfacet
  facet normal 0 0 -1
    outer loop
      vertex 3.63821 58.5499 -12.7
      vertex 18.4 58 -12.7
      vertex 3.696 58 -12.7
    endloop
  endfacet
  facet normal -0 0 -1
    outer loop
      vertex 18.4 58 -12.7
      vertex 3.63821 57.4501 -12.7
      vertex 3.696 58 -12.7
    endloop
  endfacet
  facet normal 0 0 -1
    outer loop
      vertex 18.4 58 -12.7
      vertex 3.61524 57.2316 -12.7
      vertex 3.63821 57.4501 -12.7
    endloop
  endfacet
  facet normal 0 0 -1
    outer loop
      vertex 18.4 58 -12.7
      vertex 3.44437 56.7057 -12.7
      vertex 3.61524 57.2316 -12.7
    endloop
  endfacet
  facet normal 0 0 -1
    outer loop
      vertex 18.4 58 -12.7
      vertex 3.37647 56.4967 -12.7
      vertex 3.44437 56.7057 -12.7
    endloop
  endfacet
  facet normal 0 0 -1
    outer loop
      vertex 18.4 58 -12.7
      vertex 3.1 56.0178 -12.7
      vertex 3.37647 56.4967 -12.7
    endloop
  endfacet
  facet normal 0 0 -1
    outer loop
      vertex 9.2 42.0651 -12.7
      vertex 2.99013 55.8275 -12.7
      vertex 3.1 56.0178 -12.7
    endloop
  endfacet
  facet normal 0 0 -1
    outer loop
      vertex 9.2 42.0651 -12.7
      vertex 2.8431 55.6642 -12.7
      vertex 2.99013 55.8275 -12.7
    endloop
  endfacet
  facet normal 0 0 -1
    outer loop
      vertex 9.2 42.0651 -12.7
      vertex 2.58266 55.375 -12.7
      vertex 2.8431 55.6642 -12.7
    endloop
  endfacet
  facet normal 0 0 -1
    outer loop
      vertex 9.2 42.0651 -12.7
      vertex -2.58266 55.375 -12.7
      vertex 2.58266 55.375 -12.7
    endloop
  endfacet
  facet normal 0 0 -1
    outer loop
      vertex -9.2 42.0651 -12.7
      vertex -2.58266 55.375 -12.7
      vertex 9.2 42.0651 -12.7
    endloop
  endfacet
  facet normal -0 0 -1
    outer loop
      vertex -2.58266 55.375 -12.7
      vertex -9.2 42.0651 -12.7
      vertex -2.8431 55.6642 -12.7
    endloop
  endfacet
  facet normal 0 0 -1
    outer loop
      vertex -18.4 58 -12.7
      vertex -3.44437 56.7057 -12.7
      vertex -3.37647 56.4967 -12.7
    endloop
  endfacet
  facet normal 0 0 -1
    outer loop
      vertex -3.61524 57.2316 -12.7
      vertex -18.4 58 -12.7
      vertex -3.63821 57.4501 -12.7
    endloop
  endfacet
  facet normal 0 0 -1
    outer loop
      vertex -3.44437 56.7057 -12.7
      vertex -18.4 58 -12.7
      vertex -3.61524 57.2316 -12.7
    endloop
  endfacet
  facet normal 0 0 -1
    outer loop
      vertex -3.1 56.0178 -12.7
      vertex -18.4 58 -12.7
      vertex -3.37647 56.4967 -12.7
    endloop
  endfacet
  facet normal 0 0 -1
    outer loop
      vertex -18.4 58 -12.7
      vertex -3.1 56.0178 -12.7
      vertex -9.2 42.0651 -12.7
    endloop
  endfacet
  facet normal -0 0 -1
    outer loop
      vertex -2.99013 55.8275 -12.7
      vertex -9.2 42.0651 -12.7
      vertex -3.1 56.0178 -12.7
    endloop
  endfacet
  facet normal -0 0 -1
    outer loop
      vertex -2.8431 55.6642 -12.7
      vertex -9.2 42.0651 -12.7
      vertex -2.99013 55.8275 -12.7
    endloop
  endfacet
  facet normal 0 0 -1
    outer loop
      vertex 3.61524 58.7684 -12.7
      vertex 18.4 58 -12.7
      vertex 3.63821 58.5499 -12.7
    endloop
  endfacet
  facet normal 0 0 -1
    outer loop
      vertex 3.44437 59.2943 -12.7
      vertex 18.4 58 -12.7
      vertex 3.61524 58.7684 -12.7
    endloop
  endfacet
  facet normal 0 0 -1
    outer loop
      vertex 3.37647 59.5033 -12.7
      vertex 18.4 58 -12.7
      vertex 3.44437 59.2943 -12.7
    endloop
  endfacet
  facet normal 0 0 -1
    outer loop
      vertex 3.1 59.9822 -12.7
      vertex 18.4 58 -12.7
      vertex 3.37647 59.5033 -12.7
    endloop
  endfacet
  facet normal 0 0 -1
    outer loop
      vertex 18.4 58 -12.7
      vertex 3.1 59.9822 -12.7
      vertex 9.2 73.9349 -12.7
    endloop
  endfacet
  facet normal 0 0 -1
    outer loop
      vertex 2.99013 60.1725 -12.7
      vertex 9.2 73.9349 -12.7
      vertex 3.1 59.9822 -12.7
    endloop
  endfacet
  facet normal 0 0 -1
    outer loop
      vertex 2.8431 60.3358 -12.7
      vertex 9.2 73.9349 -12.7
      vertex 2.99013 60.1725 -12.7
    endloop
  endfacet
  facet normal 0 0 -1
    outer loop
      vertex 2.58266 60.625 -12.7
      vertex 9.2 73.9349 -12.7
      vertex 2.8431 60.3358 -12.7
    endloop
  endfacet
  facet normal 0 0 -1
    outer loop
      vertex -2.58266 60.625 -12.7
      vertex 9.2 73.9349 -12.7
      vertex 2.58266 60.625 -12.7
    endloop
  endfacet
  facet normal 0 0 -1
    outer loop
      vertex -9.2 73.9349 -12.7
      vertex -2.58266 60.625 -12.7
      vertex -2.8431 60.3358 -12.7
    endloop
  endfacet
  facet normal 0 0 -1
    outer loop
      vertex -9.2 73.9349 -12.7
      vertex -2.8431 60.3358 -12.7
      vertex -2.99013 60.1725 -12.7
    endloop
  endfacet
  facet normal 0 0 -1
    outer loop
      vertex -18.4 58 -12.7
      vertex -3.44437 59.2943 -12.7
      vertex -3.61524 58.7684 -12.7
    endloop
  endfacet
  facet normal 0 0 -1
    outer loop
      vertex -3.63821 57.4501 -12.7
      vertex -18.4 58 -12.7
      vertex -3.696 58 -12.7
    endloop
  endfacet
  facet normal 0 0 -1
    outer loop
      vertex -3.696 58 -12.7
      vertex -18.4 58 -12.7
      vertex -3.63821 58.5499 -12.7
    endloop
  endfacet
  facet normal -0 0 -1
    outer loop
      vertex -3.63821 58.5499 -12.7
      vertex -18.4 58 -12.7
      vertex -3.61524 58.7684 -12.7
    endloop
  endfacet
  facet normal 0 0 -1
    outer loop
      vertex -2.58266 60.625 -12.7
      vertex -9.2 73.9349 -12.7
      vertex 9.2 73.9349 -12.7
    endloop
  endfacet
  facet normal 0 0 -1
    outer loop
      vertex -3.1 59.9822 -12.7
      vertex -9.2 73.9349 -12.7
      vertex -2.99013 60.1725 -12.7
    endloop
  endfacet
  facet normal 0 0 -1
    outer loop
      vertex -18.4 58 -12.7
      vertex -3.1 59.9822 -12.7
      vertex -3.37647 59.5033 -12.7
    endloop
  endfacet
  facet normal -0 0 -1
    outer loop
      vertex -3.44437 59.2943 -12.7
      vertex -18.4 58 -12.7
      vertex -3.37647 59.5033 -12.7
    endloop
  endfacet
  facet normal -0 0 -1
    outer loop
      vertex -3.1 59.9822 -12.7
      vertex -18.4 58 -12.7
      vertex -9.2 73.9349 -12.7
    endloop
  endfacet
  facet normal 0 -1 0
    outer loop
      vertex -9.2 42.0651 12.7
      vertex -7.7 42.0651 1.9
      vertex 9.2 42.0651 12.7
    endloop
  endfacet
  facet normal 0 -1 0
    outer loop
      vertex -9.2 42.0651 12.7
      vertex -8.95735 42.0651 1.48088
      vertex -7.7 42.0651 1.9
    endloop
  endfacet
  facet normal -0 -1 0
    outer loop
      vertex -8.95735 42.0651 1.48088
      vertex -9.2 42.0651 12.7
      vertex -9.2 42.0651 1.4
    endloop
  endfacet
  facet normal 0 -1 0
    outer loop
      vertex 7.7 42.0651 1.9
      vertex 9.2 42.0651 12.7
      vertex -7.7 42.0651 1.9
    endloop
  endfacet
  facet normal 0 -1 0
    outer loop
      vertex 8.95735 42.0651 1.48088
      vertex 9.2 42.0651 12.7
      vertex 7.7 42.0651 1.9
    endloop
  endfacet
  facet normal 0 -1 -0
    outer loop
      vertex 9.2 42.0651 12.7
      vertex 8.95735 42.0651 1.48088
      vertex 9.2 42.0651 1.4
    endloop
  endfacet
  facet normal 0 -1 0
    outer loop
      vertex -9.2 42.0651 -12.7
      vertex -8.95735 42.0651 -1.48088
      vertex -9.2 42.0651 -1.4
    endloop
  endfacet
  facet normal 0 -1 -0
    outer loop
      vertex -7.7 42.0651 -1.9
      vertex -9.2 42.0651 -12.7
      vertex 7.7 42.0651 -1.9
    endloop
  endfacet
  facet normal 0 -1 -0
    outer loop
      vertex -8.95735 42.0651 -1.48088
      vertex -9.2 42.0651 -12.7
      vertex -7.7 42.0651 -1.9
    endloop
  endfacet
  facet normal 0 -1 0
    outer loop
      vertex 9.2 42.0651 -12.7
      vertex 8.95735 42.0651 -1.48088
      vertex 7.7 42.0651 -1.9
    endloop
  endfacet
  facet normal 0 -1 0
    outer loop
      vertex 9.2 42.0651 -12.7
      vertex 7.7 42.0651 -1.9
      vertex -9.2 42.0651 -12.7
    endloop
  endfacet
  facet normal 0 -1 0
    outer loop
      vertex 8.95735 42.0651 -1.48088
      vertex 9.2 42.0651 -12.7
      vertex 9.2 42.0651 -1.4
    endloop
  endfacet
  facet normal -0.866025 -0.5 0
    outer loop
      vertex -18.4 58 -12.7
      vertex -17.65 56.701 -1.9
      vertex -18.4 58 -1.4
    endloop
  endfacet
  facet normal -0.866025 -0.5 5.50903e-09
    outer loop
      vertex -18.4 58 -12.7
      vertex -13.8 50.0326 -1.9
      vertex -17.65 56.701 -1.9
    endloop
  endfacet
  facet normal -0.866025 -0.5 3.82364e-08
    outer loop
      vertex -9.2 42.0651 -12.7
      vertex -13.8 50.0326 -1.9
      vertex -18.4 58 -12.7
    endloop
  endfacet
  facet normal -0.866025 -0.5 -2.04063e-08
    outer loop
      vertex -13.8 50.0326 -1.9
      vertex -9.2 42.0651 -12.7
      vertex -9.95 43.3642 -1.9
    endloop
  endfacet
  facet normal -0.866025 -0.5 -0
    outer loop
      vertex -9.2 42.0651 -1.4
      vertex -9.95 43.3642 -1.9
      vertex -9.2 42.0651 -12.7
    endloop
  endfacet
  facet normal -0.866025 -0.5 0
    outer loop
      vertex -17.65 56.701 1.9
      vertex -18.4 58 12.7
      vertex -18.4 58 1.4
    endloop
  endfacet
  facet normal -0.866025 -0.5 -5.50903e-09
    outer loop
      vertex -13.8 50.0326 1.9
      vertex -18.4 58 12.7
      vertex -17.65 56.701 1.9
    endloop
  endfacet
  facet normal -0.866025 -0.5 2.04063e-08
    outer loop
      vertex -9.2 42.0651 12.7
      vertex -13.8 50.0326 1.9
      vertex -9.95 43.3642 1.9
    endloop
  endfacet
  facet normal -0.866025 -0.5 -0
    outer loop
      vertex -9.2 42.0651 12.7
      vertex -9.95 43.3642 1.9
      vertex -9.2 42.0651 1.4
    endloop
  endfacet
  facet normal -0.866025 -0.5 -3.82364e-08
    outer loop
      vertex -13.8 50.0326 1.9
      vertex -9.2 42.0651 12.7
      vertex -18.4 58 12.7
    endloop
  endfacet
  facet normal 0.433013 0.25 -0.866026
    outer loop
      vertex 17.65 59.299 -1.9
      vertex 11.375 73.4586 -0.95
      vertex 19.075 60.1218 -0.95
    endloop
  endfacet
  facet normal 0.433011 0.249999 -0.866026
    outer loop
      vertex 13.8 65.9674 -1.9
      vertex 11.375 73.4586 -0.95
      vertex 17.65 59.299 -1.9
    endloop
  endfacet
  facet normal 0.433012 0.25 -0.866026
    outer loop
      vertex 11.375 73.4586 -0.95
      vertex 13.8 65.9674 -1.9
      vertex 9.95 72.6358 -1.9
    endloop
  endfacet
  facet normal 0 -0.5 -0.866025
    outer loop
      vertex -7.7 40.4197 -0.95
      vertex 7.7 42.0651 -1.9
      vertex 7.7 40.4197 -0.95
    endloop
  endfacet
  facet normal -0 -0.5 -0.866025
    outer loop
      vertex 7.7 42.0651 -1.9
      vertex -7.7 40.4197 -0.95
      vertex -7.7 42.0651 -1.9
    endloop
  endfacet
  facet normal 0.27735 -0.480384 0.83205
    outer loop
      vertex 9.2 42.0651 1.4
      vertex 11.375 42.5414 0.95
      vertex 9.95 43.3642 1.9
    endloop
  endfacet
  facet normal 0.27735 -0.480385 0.83205
    outer loop
      vertex 9.2 42.0651 1.4
      vertex 7.7 40.4197 0.95
      vertex 11.375 42.5414 0.95
    endloop
  endfacet
  facet normal 0.27735 -0.480385 0.83205
    outer loop
      vertex 7.7 40.4197 0.95
      vertex 9.2 42.0651 1.4
      vertex 8.95735 42.0651 1.48088
    endloop
  endfacet
  facet normal 0.27735 0.480385 -0.83205
    outer loop
      vertex 8.95735 73.9349 -1.48088
      vertex 7.7 73.9349 -1.9
      vertex 7.7 75.5803 -0.95
    endloop
  endfacet
  facet normal 0 1 -0
    outer loop
      vertex 7.7 75.5803 -0.95
      vertex -7.7 75.5803 0.95
      vertex 7.7 75.5803 0.95
    endloop
  endfacet
  facet normal 0 1 0
    outer loop
      vertex -7.7 75.5803 0.95
      vertex 7.7 75.5803 -0.95
      vertex -7.7 75.5803 -0.95
    endloop
  endfacet
  facet normal 1 -0 0
    outer loop
      vertex 19.075 55.8782 0.95
      vertex 19.075 60.1218 -0.95
      vertex 19.075 60.1218 0.95
    endloop
  endfacet
  facet normal 1 0 0
    outer loop
      vertex 19.075 60.1218 -0.95
      vertex 19.075 55.8782 0.95
      vertex 19.075 55.8782 -0.95
    endloop
  endfacet
  facet normal -0.5 -0.866026 0
    outer loop
      vertex -11.375 42.5414 -0.95
      vertex -7.7 40.4197 0.95
      vertex -11.375 42.5414 0.95
    endloop
  endfacet
  facet normal -0.5 -0.866026 -0
    outer loop
      vertex -7.7 40.4197 0.95
      vertex -11.375 42.5414 -0.95
      vertex -7.7 40.4197 -0.95
    endloop
  endfacet
  facet normal 0.27735 -0.480385 0.83205
    outer loop
      vertex 7.7 42.0651 1.9
      vertex 7.7 40.4197 0.95
      vertex 8.95735 42.0651 1.48088
    endloop
  endfacet
  facet normal 0.866025 -0.5 0
    outer loop
      vertex 11.375 42.5414 0.95
      vertex 19.075 55.8782 -0.95
      vertex 19.075 55.8782 0.95
    endloop
  endfacet
  facet normal 0.866025 -0.5 0
    outer loop
      vertex 19.075 55.8782 -0.95
      vertex 11.375 42.5414 0.95
      vertex 11.375 42.5414 -0.95
    endloop
  endfacet
  facet normal 0.433013 -0.25 -0.866025
    outer loop
      vertex 11.375 42.5414 -0.95
      vertex 9.95 43.3642 -1.9
      vertex 19.075 55.8782 -0.95
    endloop
  endfacet
  facet normal -0.433013 -0.25 0.866025
    outer loop
      vertex -13.8 50.0326 1.9
      vertex -11.375 42.5414 0.95
      vertex -9.95 43.3642 1.9
    endloop
  endfacet
  facet normal -0.433013 -0.25 0.866026
    outer loop
      vertex -11.375 42.5414 0.95
      vertex -13.8 50.0326 1.9
      vertex -17.65 56.701 1.9
    endloop
  endfacet
  facet normal 0.27735 -0.480384 -0.83205
    outer loop
      vertex 11.375 42.5414 -0.95
      vertex 9.2 42.0651 -1.4
      vertex 9.95 43.3642 -1.9
    endloop
  endfacet
  facet normal 0.27735 -0.480385 -0.83205
    outer loop
      vertex 9.2 42.0651 -1.4
      vertex 7.7 40.4197 -0.95
      vertex 8.95735 42.0651 -1.48088
    endloop
  endfacet
  facet normal 0.27735 -0.480385 -0.83205
    outer loop
      vertex 7.7 40.4197 -0.95
      vertex 9.2 42.0651 -1.4
      vertex 11.375 42.5414 -0.95
    endloop
  endfacet
  facet normal 0.5 -0.866025 0
    outer loop
      vertex 7.7 40.4197 -0.95
      vertex 11.375 42.5414 0.95
      vertex 7.7 40.4197 0.95
    endloop
  endfacet
  facet normal 0.5 -0.866025 0
    outer loop
      vertex 11.375 42.5414 0.95
      vertex 7.7 40.4197 -0.95
      vertex 11.375 42.5414 -0.95
    endloop
  endfacet
  facet normal -0.27735 -0.480385 -0.83205
    outer loop
      vertex -7.7 40.4197 -0.95
      vertex -9.2 42.0651 -1.4
      vertex -8.95735 42.0651 -1.48088
    endloop
  endfacet
  facet normal -0.27735 -0.480384 -0.83205
    outer loop
      vertex -9.2 42.0651 -1.4
      vertex -11.375 42.5414 -0.95
      vertex -9.95 43.3642 -1.9
    endloop
  endfacet
  facet normal -0.27735 -0.480385 -0.83205
    outer loop
      vertex -11.375 42.5414 -0.95
      vertex -9.2 42.0651 -1.4
      vertex -7.7 40.4197 -0.95
    endloop
  endfacet
  facet normal -0.27735 0.480385 0.83205
    outer loop
      vertex -7.7 75.5803 0.95
      vertex -9.2 73.9349 1.4
      vertex -8.95735 73.9349 1.48088
    endloop
  endfacet
  facet normal -0.277349 0.480383 0.832051
    outer loop
      vertex -9.2 73.9349 1.4
      vertex -11.375 73.4586 0.95
      vertex -9.95 72.6358 1.9
    endloop
  endfacet
  facet normal -0.277349 0.480384 0.832051
    outer loop
      vertex -11.375 73.4586 0.95
      vertex -9.2 73.9349 1.4
      vertex -7.7 75.5803 0.95
    endloop
  endfacet
  facet normal -0.866025 -0.5 0
    outer loop
      vertex -11.375 42.5414 -0.95
      vertex -19.075 55.8782 0.95
      vertex -19.075 55.8782 -0.95
    endloop
  endfacet
  facet normal -0.866025 -0.5 0
    outer loop
      vertex -19.075 55.8782 0.95
      vertex -11.375 42.5414 -0.95
      vertex -11.375 42.5414 0.95
    endloop
  endfacet
  facet normal -0.433013 -0.25 0.866026
    outer loop
      vertex -17.65 56.701 1.9
      vertex -19.075 55.8782 0.95
      vertex -11.375 42.5414 0.95
    endloop
  endfacet
  facet normal 0.866025 0.5 0
    outer loop
      vertex 19.075 60.1218 0.95
      vertex 11.375 73.4586 -0.95
      vertex 11.375 73.4586 0.95
    endloop
  endfacet
  facet normal 0.866025 0.5 0
    outer loop
      vertex 11.375 73.4586 -0.95
      vertex 19.075 60.1218 0.95
      vertex 19.075 60.1218 -0.95
    endloop
  endfacet
  facet normal 0.433013 0.25 0.866026
    outer loop
      vertex 19.075 60.1218 0.95
      vertex 11.375 73.4586 0.95
      vertex 17.65 59.299 1.9
    endloop
  endfacet
  facet normal 0.433013 -0.25 0.866025
    outer loop
      vertex 19.075 55.8782 0.95
      vertex 9.95 43.3642 1.9
      vertex 11.375 42.5414 0.95
    endloop
  endfacet
  facet normal 0.433013 -0.25 0.866026
    outer loop
      vertex 13.8 50.0326 1.9
      vertex 19.075 55.8782 0.95
      vertex 17.65 56.701 1.9
    endloop
  endfacet
  facet normal 0.433012 -0.25 0.866026
    outer loop
      vertex 19.075 55.8782 0.95
      vertex 13.8 50.0326 1.9
      vertex 9.95 43.3642 1.9
    endloop
  endfacet
  facet normal 0.27735 -0.480385 -0.83205
    outer loop
      vertex 8.95735 42.0651 -1.48088
      vertex 7.7 40.4197 -0.95
      vertex 7.7 42.0651 -1.9
    endloop
  endfacet
  facet normal 0.433013 -0.25 -0.866026
    outer loop
      vertex 19.075 55.8782 -0.95
      vertex 13.8 50.0326 -1.9
      vertex 17.65 56.701 -1.9
    endloop
  endfacet
  facet normal 0.433012 -0.25 -0.866026
    outer loop
      vertex 13.8 50.0326 -1.9
      vertex 19.075 55.8782 -0.95
      vertex 9.95 43.3642 -1.9
    endloop
  endfacet
  facet normal 0 -1 0
    outer loop
      vertex -7.7 40.4197 -0.95
      vertex 7.7 40.4197 0.95
      vertex -7.7 40.4197 0.95
    endloop
  endfacet
  facet normal 0 -1 -0
    outer loop
      vertex 7.7 40.4197 0.95
      vertex -7.7 40.4197 -0.95
      vertex 7.7 40.4197 -0.95
    endloop
  endfacet
  facet normal -0.27735 -0.480385 0.83205
    outer loop
      vertex -7.7 42.0651 1.9
      vertex -8.95735 42.0651 1.48088
      vertex -7.7 40.4197 0.95
    endloop
  endfacet
  facet normal -0.27735 -0.480385 -0.83205
    outer loop
      vertex -7.7 40.4197 -0.95
      vertex -8.95735 42.0651 -1.48088
      vertex -7.7 42.0651 -1.9
    endloop
  endfacet
  facet normal 0.499999 0.866026 -0
    outer loop
      vertex 11.375 73.4586 -0.95
      vertex 7.7 75.5803 0.95
      vertex 11.375 73.4586 0.95
    endloop
  endfacet
  facet normal 0.499999 0.866026 0
    outer loop
      vertex 7.7 75.5803 0.95
      vertex 11.375 73.4586 -0.95
      vertex 7.7 75.5803 -0.95
    endloop
  endfacet
  facet normal 0.277349 0.480383 -0.832051
    outer loop
      vertex 9.2 73.9349 -1.4
      vertex 11.375 73.4586 -0.95
      vertex 9.95 72.6358 -1.9
    endloop
  endfacet
  facet normal 0.277349 0.480384 -0.832051
    outer loop
      vertex 9.2 73.9349 -1.4
      vertex 7.7 75.5803 -0.95
      vertex 11.375 73.4586 -0.95
    endloop
  endfacet
  facet normal 0.27735 0.480385 -0.83205
    outer loop
      vertex 7.7 75.5803 -0.95
      vertex 9.2 73.9349 -1.4
      vertex 8.95735 73.9349 -1.48088
    endloop
  endfacet
  facet normal 0.27735 0.480385 0.83205
    outer loop
      vertex 7.7 75.5803 0.95
      vertex 7.7 73.9349 1.9
      vertex 8.95735 73.9349 1.48088
    endloop
  endfacet
  facet normal -0.433012 0.25 0.866026
    outer loop
      vertex -11.375 73.4586 0.95
      vertex -13.8 65.9674 1.9
      vertex -9.95 72.6358 1.9
    endloop
  endfacet
  facet normal -0.433011 0.249999 0.866026
    outer loop
      vertex -13.8 65.9674 1.9
      vertex -11.375 73.4586 0.95
      vertex -17.65 59.299 1.9
    endloop
  endfacet
  facet normal -0.433013 0.25 -0.866026
    outer loop
      vertex -17.65 59.299 -1.9
      vertex -19.075 60.1218 -0.95
      vertex -11.375 73.4586 -0.95
    endloop
  endfacet
  facet normal 0.554699 0 0.832051
    outer loop
      vertex 19.075 60.1218 0.95
      vertex 18.4 58 1.4
      vertex 19.075 55.8782 0.95
    endloop
  endfacet
  facet normal 0.5547 -1.83855e-07 0.832051
    outer loop
      vertex 18.4 58 1.4
      vertex 19.075 60.1218 0.95
      vertex 17.65 59.299 1.9
    endloop
  endfacet
  facet normal 0.5547 1.83855e-07 0.832051
    outer loop
      vertex 19.075 55.8782 0.95
      vertex 18.4 58 1.4
      vertex 17.65 56.701 1.9
    endloop
  endfacet
  facet normal 0.554699 0 -0.832051
    outer loop
      vertex 19.075 55.8782 -0.95
      vertex 18.4 58 -1.4
      vertex 19.075 60.1218 -0.95
    endloop
  endfacet
  facet normal 0.5547 1.83855e-07 -0.832051
    outer loop
      vertex 18.4 58 -1.4
      vertex 19.075 55.8782 -0.95
      vertex 17.65 56.701 -1.9
    endloop
  endfacet
  facet normal 0.5547 -1.83855e-07 -0.832051
    outer loop
      vertex 19.075 60.1218 -0.95
      vertex 18.4 58 -1.4
      vertex 17.65 59.299 -1.9
    endloop
  endfacet
  facet normal -0.27735 0.480385 -0.83205
    outer loop
      vertex -7.7 73.9349 -1.9
      vertex -8.95735 73.9349 -1.48088
      vertex -7.7 75.5803 -0.95
    endloop
  endfacet
  facet normal 0 0.5 -0.866025
    outer loop
      vertex -7.7 73.9349 -1.9
      vertex 7.7 75.5803 -0.95
      vertex 7.7 73.9349 -1.9
    endloop
  endfacet
  facet normal 0 0.5 -0.866025
    outer loop
      vertex 7.7 75.5803 -0.95
      vertex -7.7 73.9349 -1.9
      vertex -7.7 75.5803 -0.95
    endloop
  endfacet
  facet normal -0.866025 0.5 0
    outer loop
      vertex -19.075 60.1218 -0.95
      vertex -11.375 73.4586 0.95
      vertex -11.375 73.4586 -0.95
    endloop
  endfacet
  facet normal -0.866025 0.5 0
    outer loop
      vertex -11.375 73.4586 0.95
      vertex -19.075 60.1218 -0.95
      vertex -19.075 60.1218 0.95
    endloop
  endfacet
  facet normal -1 0 0
    outer loop
      vertex -19.075 55.8782 -0.95
      vertex -19.075 60.1218 0.95
      vertex -19.075 60.1218 -0.95
    endloop
  endfacet
  facet normal -1 -0 0
    outer loop
      vertex -19.075 60.1218 0.95
      vertex -19.075 55.8782 -0.95
      vertex -19.075 55.8782 0.95
    endloop
  endfacet
  facet normal -0.5547 -1.83855e-07 0.832051
    outer loop
      vertex -17.65 59.299 1.9
      vertex -19.075 60.1218 0.95
      vertex -18.4 58 1.4
    endloop
  endfacet
  facet normal -0.5547 1.83855e-07 0.832051
    outer loop
      vertex -18.4 58 1.4
      vertex -19.075 55.8782 0.95
      vertex -17.65 56.701 1.9
    endloop
  endfacet
  facet normal -0.554699 0 0.832051
    outer loop
      vertex -19.075 55.8782 0.95
      vertex -18.4 58 1.4
      vertex -19.075 60.1218 0.95
    endloop
  endfacet
  facet normal -0.27735 -0.480385 0.83205
    outer loop
      vertex -9.2 42.0651 1.4
      vertex -7.7 40.4197 0.95
      vertex -8.95735 42.0651 1.48088
    endloop
  endfacet
  facet normal -0.27735 -0.480385 0.83205
    outer loop
      vertex -9.2 42.0651 1.4
      vertex -11.375 42.5414 0.95
      vertex -7.7 40.4197 0.95
    endloop
  endfacet
  facet normal -0.27735 -0.480384 0.83205
    outer loop
      vertex -11.375 42.5414 0.95
      vertex -9.2 42.0651 1.4
      vertex -9.95 43.3642 1.9
    endloop
  endfacet
  facet normal -0.433012 0.25 -0.866026
    outer loop
      vertex -13.8 65.9674 -1.9
      vertex -11.375 73.4586 -0.95
      vertex -9.95 72.6358 -1.9
    endloop
  endfacet
  facet normal -0.433011 0.249999 -0.866026
    outer loop
      vertex -11.375 73.4586 -0.95
      vertex -13.8 65.9674 -1.9
      vertex -17.65 59.299 -1.9
    endloop
  endfacet
  facet normal 0.433011 0.249999 0.866026
    outer loop
      vertex 11.375 73.4586 0.95
      vertex 13.8 65.9674 1.9
      vertex 17.65 59.299 1.9
    endloop
  endfacet
  facet normal 0.433012 0.25 0.866026
    outer loop
      vertex 13.8 65.9674 1.9
      vertex 11.375 73.4586 0.95
      vertex 9.95 72.6358 1.9
    endloop
  endfacet
  facet normal 0.277349 0.480383 0.832051
    outer loop
      vertex 11.375 73.4586 0.95
      vertex 9.2 73.9349 1.4
      vertex 9.95 72.6358 1.9
    endloop
  endfacet
  facet normal 0.27735 0.480385 0.83205
    outer loop
      vertex 9.2 73.9349 1.4
      vertex 7.7 75.5803 0.95
      vertex 8.95735 73.9349 1.48088
    endloop
  endfacet
  facet normal 0.277349 0.480384 0.832051
    outer loop
      vertex 7.7 75.5803 0.95
      vertex 9.2 73.9349 1.4
      vertex 11.375 73.4586 0.95
    endloop
  endfacet
  facet normal -0.433013 -0.25 -0.866026
    outer loop
      vertex -11.375 42.5414 -0.95
      vertex -19.075 55.8782 -0.95
      vertex -17.65 56.701 -1.9
    endloop
  endfacet
  facet normal -0.5547 1.83855e-07 -0.832051
    outer loop
      vertex -17.65 56.701 -1.9
      vertex -19.075 55.8782 -0.95
      vertex -18.4 58 -1.4
    endloop
  endfacet
  facet normal -0.5547 -1.83855e-07 -0.832051
    outer loop
      vertex -18.4 58 -1.4
      vertex -19.075 60.1218 -0.95
      vertex -17.65 59.299 -1.9
    endloop
  endfacet
  facet normal -0.554699 -0 -0.832051
    outer loop
      vertex -19.075 60.1218 -0.95
      vertex -18.4 58 -1.4
      vertex -19.075 55.8782 -0.95
    endloop
  endfacet
  facet normal -0.433013 0.25 0.866026
    outer loop
      vertex -11.375 73.4586 0.95
      vertex -19.075 60.1218 0.95
      vertex -17.65 59.299 1.9
    endloop
  endfacet
  facet normal 0 -0.5 0.866025
    outer loop
      vertex -7.7 42.0651 1.9
      vertex 7.7 40.4197 0.95
      vertex 7.7 42.0651 1.9
    endloop
  endfacet
  facet normal 0 -0.5 0.866025
    outer loop
      vertex 7.7 40.4197 0.95
      vertex -7.7 42.0651 1.9
      vertex -7.7 40.4197 0.95
    endloop
  endfacet
  facet normal -0.499999 0.866026 0
    outer loop
      vertex -7.7 75.5803 -0.95
      vertex -11.375 73.4586 0.95
      vertex -7.7 75.5803 0.95
    endloop
  endfacet
  facet normal -0.499999 0.866026 0
    outer loop
      vertex -11.375 73.4586 0.95
      vertex -7.7 75.5803 -0.95
      vertex -11.375 73.4586 -0.95
    endloop
  endfacet
  facet normal -0.27735 0.480385 -0.83205
    outer loop
      vertex -9.2 73.9349 -1.4
      vertex -7.7 75.5803 -0.95
      vertex -8.95735 73.9349 -1.48088
    endloop
  endfacet
  facet normal -0.277349 0.480384 -0.832051
    outer loop
      vertex -9.2 73.9349 -1.4
      vertex -11.375 73.4586 -0.95
      vertex -7.7 75.5803 -0.95
    endloop
  endfacet
  facet normal -0.277349 0.480383 -0.832051
    outer loop
      vertex -11.375 73.4586 -0.95
      vertex -9.2 73.9349 -1.4
      vertex -9.95 72.6358 -1.9
    endloop
  endfacet
  facet normal -0 0.5 0.866025
    outer loop
      vertex -7.7 75.5803 0.95
      vertex 7.7 73.9349 1.9
      vertex 7.7 75.5803 0.95
    endloop
  endfacet
  facet normal 0 0.5 0.866025
    outer loop
      vertex 7.7 73.9349 1.9
      vertex -7.7 75.5803 0.95
      vertex -7.7 73.9349 1.9
    endloop
  endfacet
  facet normal -0.433013 -0.25 -0.866025
    outer loop
      vertex -11.375 42.5414 -0.95
      vertex -13.8 50.0326 -1.9
      vertex -9.95 43.3642 -1.9
    endloop
  endfacet
  facet normal -0.433013 -0.25 -0.866026
    outer loop
      vertex -13.8 50.0326 -1.9
      vertex -11.375 42.5414 -0.95
      vertex -17.65 56.701 -1.9
    endloop
  endfacet
  facet normal -0.27735 0.480385 0.83205
    outer loop
      vertex -7.7 75.5803 0.95
      vertex -8.95735 73.9349 1.48088
      vertex -7.7 73.9349 1.9
    endloop
  endfacet
  facet normal 0.99863 0.0523353 0
    outer loop
      vertex 7.05 58 14.2
      vertex 7.01138 58.7369 12.7
      vertex 7.01138 58.7369 14.2
    endloop
  endfacet
  facet normal 0.99863 0.0523353 0
    outer loop
      vertex 7.01138 58.7369 12.7
      vertex 7.05 58 14.2
      vertex 7.05 58 12.7
    endloop
  endfacet
  facet normal -0.99863 0.0523353 0
    outer loop
      vertex -7.05 58 12.7
      vertex -7.01138 58.7369 14.2
      vertex -7.01138 58.7369 12.7
    endloop
  endfacet
  facet normal -0.99863 0.0523353 0
    outer loop
      vertex -7.01138 58.7369 14.2
      vertex -7.05 58 12.7
      vertex -7.05 58 14.2
    endloop
  endfacet
  facet normal -0.0523351 0.99863 0
    outer loop
      vertex 0 65.05 12.7
      vertex -0.736925 65.0114 14.2
      vertex 0 65.05 14.2
    endloop
  endfacet
  facet normal -0.0523351 0.99863 0
    outer loop
      vertex -0.736925 65.0114 14.2
      vertex 0 65.05 12.7
      vertex -0.736925 65.0114 12.7
    endloop
  endfacet
  facet normal 0.0523351 -0.99863 0
    outer loop
      vertex 0 50.95 12.7
      vertex 0.736925 50.9886 14.2
      vertex 0 50.95 14.2
    endloop
  endfacet
  facet normal 0.0523351 -0.99863 0
    outer loop
      vertex 0.736925 50.9886 14.2
      vertex 0 50.95 12.7
      vertex 0.736925 50.9886 12.7
    endloop
  endfacet
  facet normal 0.629319 0.777147 -0
    outer loop
      vertex 4.71737 63.2392 12.7
      vertex 4.14389 63.7036 14.2
      vertex 4.71737 63.2392 14.2
    endloop
  endfacet
  facet normal 0.629319 0.777147 0
    outer loop
      vertex 4.14389 63.7036 14.2
      vertex 4.71737 63.2392 12.7
      vertex 4.14389 63.7036 12.7
    endloop
  endfacet
  facet normal -0.707107 0.707106 0
    outer loop
      vertex -5.23917 62.7174 12.7
      vertex -4.71737 63.2392 14.2
      vertex -4.71737 63.2392 12.7
    endloop
  endfacet
  facet normal -0.707107 0.707106 0
    outer loop
      vertex -4.71737 63.2392 14.2
      vertex -5.23917 62.7174 12.7
      vertex -5.23917 62.7174 14.2
    endloop
  endfacet
  facet normal -0.453988 0.891008 0
    outer loop
      vertex -2.86749 64.4405 12.7
      vertex -3.525 64.1055 14.2
      vertex -2.86749 64.4405 14.2
    endloop
  endfacet
  facet normal -0.453988 0.891008 0
    outer loop
      vertex -3.525 64.1055 14.2
      vertex -2.86749 64.4405 12.7
      vertex -3.525 64.1055 12.7
    endloop
  endfacet
  facet normal 0.83867 -0.544639 0
    outer loop
      vertex 5.70357 53.8561 14.2
      vertex 6.10548 54.475 12.7
      vertex 6.10548 54.475 14.2
    endloop
  endfacet
  facet normal 0.83867 -0.544639 0
    outer loop
      vertex 6.10548 54.475 12.7
      vertex 5.70357 53.8561 14.2
      vertex 5.70357 53.8561 12.7
    endloop
  endfacet
  facet normal 0.891007 0.453989 0
    outer loop
      vertex 6.44049 60.8675 14.2
      vertex 6.10548 61.525 12.7
      vertex 6.10548 61.525 14.2
    endloop
  endfacet
  facet normal 0.891007 0.453989 0
    outer loop
      vertex 6.10548 61.525 12.7
      vertex 6.44049 60.8675 14.2
      vertex 6.44049 60.8675 12.7
    endloop
  endfacet
  facet normal 0.358374 0.933578 -0
    outer loop
      vertex 2.86749 64.4405 12.7
      vertex 2.17857 64.7049 14.2
      vertex 2.86749 64.4405 14.2
    endloop
  endfacet
  facet normal 0.358374 0.933578 0
    outer loop
      vertex 2.17857 64.7049 14.2
      vertex 2.86749 64.4405 12.7
      vertex 2.17857 64.7049 12.7
    endloop
  endfacet
  facet normal 0.544639 0.838671 -0
    outer loop
      vertex 4.14389 63.7036 12.7
      vertex 3.525 64.1055 14.2
      vertex 4.14389 63.7036 14.2
    endloop
  endfacet
  facet normal 0.544639 0.838671 0
    outer loop
      vertex 3.525 64.1055 14.2
      vertex 4.14389 63.7036 12.7
      vertex 3.525 64.1055 12.7
    endloop
  endfacet
  facet normal -0.891007 0.453989 0
    outer loop
      vertex -6.44049 60.8675 12.7
      vertex -6.10548 61.525 14.2
      vertex -6.10548 61.525 12.7
    endloop
  endfacet
  facet normal -0.891007 0.453989 0
    outer loop
      vertex -6.10548 61.525 14.2
      vertex -6.44049 60.8675 12.7
      vertex -6.44049 60.8675 14.2
    endloop
  endfacet
  facet normal -0.83867 0.544639 0
    outer loop
      vertex -6.10548 61.525 12.7
      vertex -5.70357 62.1439 14.2
      vertex -5.70357 62.1439 12.7
    endloop
  endfacet
  facet normal -0.83867 0.544639 0
    outer loop
      vertex -5.70357 62.1439 14.2
      vertex -6.10548 61.525 12.7
      vertex -6.10548 61.525 14.2
    endloop
  endfacet
  facet normal 0 0 1
    outer loop
      vertex 3.65118 58 14.2
      vertex 7.05 58 14.2
      vertex 7.01138 58.7369 14.2
    endloop
  endfacet
  facet normal -0 0 1
    outer loop
      vertex 3.57139 58.7591 14.2
      vertex 7.01138 58.7369 14.2
      vertex 6.89594 59.4658 14.2
    endloop
  endfacet
  facet normal 0 0 1
    outer loop
      vertex 7.05 58 14.2
      vertex 3.65118 58 14.2
      vertex 7.01138 57.2631 14.2
    endloop
  endfacet
  facet normal 0 0 1
    outer loop
      vertex 3.57139 58.7591 14.2
      vertex 6.89594 59.4658 14.2
      vertex 6.70495 60.1786 14.2
    endloop
  endfacet
  facet normal -0 0 1
    outer loop
      vertex 3.62987 57.7973 14.2
      vertex 7.01138 57.2631 14.2
      vertex 3.65118 58 14.2
    endloop
  endfacet
  facet normal 0 0 1
    outer loop
      vertex 3.33552 59.4851 14.2
      vertex 6.70495 60.1786 14.2
      vertex 6.44049 60.8675 14.2
    endloop
  endfacet
  facet normal 0 0 1
    outer loop
      vertex 3.57139 57.2409 14.2
      vertex 7.01138 57.2631 14.2
      vertex 3.62987 57.7973 14.2
    endloop
  endfacet
  facet normal 0 0 1
    outer loop
      vertex 3.33552 59.4851 14.2
      vertex 6.44049 60.8675 14.2
      vertex 6.10548 61.525 14.2
    endloop
  endfacet
  facet normal 0 0 1
    outer loop
      vertex 7.01138 57.2631 14.2
      vertex 3.57139 57.2409 14.2
      vertex 6.89594 56.5342 14.2
    endloop
  endfacet
  facet normal 0 0 1
    outer loop
      vertex 2.95387 60.1461 14.2
      vertex 6.10548 61.525 14.2
      vertex 5.70357 62.1439 14.2
    endloop
  endfacet
  facet normal 0 0 1
    outer loop
      vertex 6.89594 56.5342 14.2
      vertex 3.57139 57.2409 14.2
      vertex 6.70495 55.8214 14.2
    endloop
  endfacet
  facet normal 0 0 1
    outer loop
      vertex 2.95387 60.1461 14.2
      vertex 5.70357 62.1439 14.2
      vertex 5.23917 62.7174 14.2
    endloop
  endfacet
  facet normal -0 0 1
    outer loop
      vertex 3.50839 57.047 14.2
      vertex 6.70495 55.8214 14.2
      vertex 3.57139 57.2409 14.2
    endloop
  endfacet
  facet normal 0 0 1
    outer loop
      vertex 2.52267 60.625 14.2
      vertex 5.23917 62.7174 14.2
      vertex 4.71737 63.2392 14.2
    endloop
  endfacet
  facet normal -0 0 1
    outer loop
      vertex 3.33552 56.5149 14.2
      vertex 6.70495 55.8214 14.2
      vertex 3.50839 57.047 14.2
    endloop
  endfacet
  facet normal 0 0 1
    outer loop
      vertex 2.52267 60.625 14.2
      vertex 4.71737 63.2392 14.2
      vertex 4.14389 63.7036 14.2
    endloop
  endfacet
  facet normal 0 0 1
    outer loop
      vertex 6.70495 55.8214 14.2
      vertex 3.33552 56.5149 14.2
      vertex 6.44049 55.1325 14.2
    endloop
  endfacet
  facet normal 0 0 1
    outer loop
      vertex 6.44049 55.1325 14.2
      vertex 3.33552 56.5149 14.2
      vertex 6.10548 54.475 14.2
    endloop
  endfacet
  facet normal 0 0 1
    outer loop
      vertex 7.01138 58.7369 14.2
      vertex 3.62987 58.2027 14.2
      vertex 3.65118 58 14.2
    endloop
  endfacet
  facet normal 0 0 1
    outer loop
      vertex 7.01138 58.7369 14.2
      vertex 3.57139 58.7591 14.2
      vertex 3.62987 58.2027 14.2
    endloop
  endfacet
  facet normal 0 0 1
    outer loop
      vertex 2.52267 60.625 14.2
      vertex 4.14389 63.7036 14.2
      vertex 3.525 64.1055 14.2
    endloop
  endfacet
  facet normal 0 0 1
    outer loop
      vertex 6.70495 60.1786 14.2
      vertex 3.50839 58.953 14.2
      vertex 3.57139 58.7591 14.2
    endloop
  endfacet
  facet normal 0 0 1
    outer loop
      vertex 6.70495 60.1786 14.2
      vertex 3.33552 59.4851 14.2
      vertex 3.50839 58.953 14.2
    endloop
  endfacet
  facet normal 0 0 1
    outer loop
      vertex 6.10548 61.525 14.2
      vertex 3.23358 59.6616 14.2
      vertex 3.33552 59.4851 14.2
    endloop
  endfacet
  facet normal 0 0 1
    outer loop
      vertex 6.10548 61.525 14.2
      vertex 2.95387 60.1461 14.2
      vertex 3.23358 59.6616 14.2
    endloop
  endfacet
  facet normal 0 0 1
    outer loop
      vertex 2.52267 60.625 14.2
      vertex 3.525 64.1055 14.2
      vertex 2.86749 64.4405 14.2
    endloop
  endfacet
  facet normal 0 0 1
    outer loop
      vertex 5.23917 62.7174 14.2
      vertex 2.57953 60.5619 14.2
      vertex 2.95387 60.1461 14.2
    endloop
  endfacet
  facet normal 0 0 1
    outer loop
      vertex 5.23917 62.7174 14.2
      vertex 2.52267 60.625 14.2
      vertex 2.57953 60.5619 14.2
    endloop
  endfacet
  facet normal 0 0 1
    outer loop
      vertex 2.17857 64.7049 14.2
      vertex 2.52267 60.625 14.2
      vertex 2.86749 64.4405 14.2
    endloop
  endfacet
  facet normal 0 0 1
    outer loop
      vertex 1.46578 64.8959 14.2
      vertex 2.52267 60.625 14.2
      vertex 2.17857 64.7049 14.2
    endloop
  endfacet
  facet normal 0 0 1
    outer loop
      vertex 0.736925 65.0114 14.2
      vertex 2.52267 60.625 14.2
      vertex 1.46578 64.8959 14.2
    endloop
  endfacet
  facet normal 0 0 1
    outer loop
      vertex 0 65.05 14.2
      vertex 2.52267 60.625 14.2
      vertex 0.736925 65.0114 14.2
    endloop
  endfacet
  facet normal 0 0 1
    outer loop
      vertex -2.52267 60.625 14.2
      vertex 0 65.05 14.2
      vertex -0.736925 65.0114 14.2
    endloop
  endfacet
  facet normal 0 0 1
    outer loop
      vertex -2.52267 60.625 14.2
      vertex -0.736925 65.0114 14.2
      vertex -1.46578 64.8959 14.2
    endloop
  endfacet
  facet normal 0 0 1
    outer loop
      vertex -2.52267 60.625 14.2
      vertex -1.46578 64.8959 14.2
      vertex -2.17857 64.7049 14.2
    endloop
  endfacet
  facet normal 0 0 1
    outer loop
      vertex 0 65.05 14.2
      vertex -2.52267 60.625 14.2
      vertex 2.52267 60.625 14.2
    endloop
  endfacet
  facet normal -0 0 1
    outer loop
      vertex -2.86749 64.4405 14.2
      vertex -2.52267 60.625 14.2
      vertex -2.17857 64.7049 14.2
    endloop
  endfacet
  facet normal -0 0 1
    outer loop
      vertex -3.525 64.1055 14.2
      vertex -2.52267 60.625 14.2
      vertex -2.86749 64.4405 14.2
    endloop
  endfacet
  facet normal -0 0 1
    outer loop
      vertex -4.14389 63.7036 14.2
      vertex -2.52267 60.625 14.2
      vertex -3.525 64.1055 14.2
    endloop
  endfacet
  facet normal -0 0 1
    outer loop
      vertex -4.71737 63.2392 14.2
      vertex -2.52267 60.625 14.2
      vertex -4.14389 63.7036 14.2
    endloop
  endfacet
  facet normal -0 0 1
    outer loop
      vertex -5.23917 62.7174 14.2
      vertex -2.52267 60.625 14.2
      vertex -4.71737 63.2392 14.2
    endloop
  endfacet
  facet normal 0 0 1
    outer loop
      vertex -2.52267 60.625 14.2
      vertex -5.23917 62.7174 14.2
      vertex -2.57953 60.5619 14.2
    endloop
  endfacet
  facet normal 0 0 1
    outer loop
      vertex -2.57953 60.5619 14.2
      vertex -5.23917 62.7174 14.2
      vertex -2.95387 60.1461 14.2
    endloop
  endfacet
  facet normal -0 0 1
    outer loop
      vertex -5.70357 62.1439 14.2
      vertex -2.95387 60.1461 14.2
      vertex -5.23917 62.7174 14.2
    endloop
  endfacet
  facet normal -0 0 1
    outer loop
      vertex -6.10548 61.525 14.2
      vertex -2.95387 60.1461 14.2
      vertex -5.70357 62.1439 14.2
    endloop
  endfacet
  facet normal 0 0 1
    outer loop
      vertex -2.95387 60.1461 14.2
      vertex -6.10548 61.525 14.2
      vertex -3.23358 59.6616 14.2
    endloop
  endfacet
  facet normal 0 0 1
    outer loop
      vertex -3.23358 59.6616 14.2
      vertex -6.10548 61.525 14.2
      vertex -3.33552 59.4851 14.2
    endloop
  endfacet
  facet normal -0 0 1
    outer loop
      vertex 3.23358 56.3384 14.2
      vertex 6.10548 54.475 14.2
      vertex 3.33552 56.5149 14.2
    endloop
  endfacet
  facet normal -0 0 1
    outer loop
      vertex 2.95387 55.8539 14.2
      vertex 6.10548 54.475 14.2
      vertex 3.23358 56.3384 14.2
    endloop
  endfacet
  facet normal 0 0 1
    outer loop
      vertex 6.10548 54.475 14.2
      vertex 2.95387 55.8539 14.2
      vertex 5.70357 53.8561 14.2
    endloop
  endfacet
  facet normal 0 0 1
    outer loop
      vertex 5.70357 53.8561 14.2
      vertex 2.95387 55.8539 14.2
      vertex 5.23917 53.2826 14.2
    endloop
  endfacet
  facet normal -0 0 1
    outer loop
      vertex 2.57953 55.4381 14.2
      vertex 5.23917 53.2826 14.2
      vertex 2.95387 55.8539 14.2
    endloop
  endfacet
  facet normal -0 0 1
    outer loop
      vertex 2.52267 55.375 14.2
      vertex 5.23917 53.2826 14.2
      vertex 2.57953 55.4381 14.2
    endloop
  endfacet
  facet normal 0 0 1
    outer loop
      vertex 5.23917 53.2826 14.2
      vertex 2.52267 55.375 14.2
      vertex 4.71737 52.7608 14.2
    endloop
  endfacet
  facet normal 0 0 1
    outer loop
      vertex 4.71737 52.7608 14.2
      vertex 2.52267 55.375 14.2
      vertex 4.14389 52.2964 14.2
    endloop
  endfacet
  facet normal 0 0 1
    outer loop
      vertex 4.14389 52.2964 14.2
      vertex 2.52267 55.375 14.2
      vertex 3.525 51.8945 14.2
    endloop
  endfacet
  facet normal 0 0 1
    outer loop
      vertex 3.525 51.8945 14.2
      vertex 2.52267 55.375 14.2
      vertex 2.86749 51.5595 14.2
    endloop
  endfacet
  facet normal 0 0 1
    outer loop
      vertex 2.52267 55.375 14.2
      vertex 2.17857 51.2951 14.2
      vertex 2.86749 51.5595 14.2
    endloop
  endfacet
  facet normal 0 0 1
    outer loop
      vertex 2.52267 55.375 14.2
      vertex 1.46578 51.1041 14.2
      vertex 2.17857 51.2951 14.2
    endloop
  endfacet
  facet normal 0 0 1
    outer loop
      vertex 2.52267 55.375 14.2
      vertex 0.736925 50.9886 14.2
      vertex 1.46578 51.1041 14.2
    endloop
  endfacet
  facet normal 0 0 1
    outer loop
      vertex 2.52267 55.375 14.2
      vertex 0 50.95 14.2
      vertex 0.736925 50.9886 14.2
    endloop
  endfacet
  facet normal -0 0 1
    outer loop
      vertex -2.52267 55.375 14.2
      vertex 0 50.95 14.2
      vertex 2.52267 55.375 14.2
    endloop
  endfacet
  facet normal 0 0 1
    outer loop
      vertex 0 50.95 14.2
      vertex -2.52267 55.375 14.2
      vertex -0.736925 50.9886 14.2
    endloop
  endfacet
  facet normal 0 0 1
    outer loop
      vertex -0.736925 50.9886 14.2
      vertex -2.52267 55.375 14.2
      vertex -1.46578 51.1041 14.2
    endloop
  endfacet
  facet normal 0 0 1
    outer loop
      vertex -1.46578 51.1041 14.2
      vertex -2.52267 55.375 14.2
      vertex -2.17857 51.2951 14.2
    endloop
  endfacet
  facet normal 0 0 1
    outer loop
      vertex -5.23917 53.2826 14.2
      vertex -2.52267 55.375 14.2
      vertex -2.57953 55.4381 14.2
    endloop
  endfacet
  facet normal 0 0 1
    outer loop
      vertex -2.52267 55.375 14.2
      vertex -2.86749 51.5595 14.2
      vertex -2.17857 51.2951 14.2
    endloop
  endfacet
  facet normal 0 0 1
    outer loop
      vertex -5.23917 53.2826 14.2
      vertex -2.57953 55.4381 14.2
      vertex -2.95387 55.8539 14.2
    endloop
  endfacet
  facet normal 0 0 1
    outer loop
      vertex -6.10548 54.475 14.2
      vertex -2.95387 55.8539 14.2
      vertex -3.23358 56.3384 14.2
    endloop
  endfacet
  facet normal 0 0 1
    outer loop
      vertex -6.10548 54.475 14.2
      vertex -3.23358 56.3384 14.2
      vertex -3.33552 56.5149 14.2
    endloop
  endfacet
  facet normal 0 0 1
    outer loop
      vertex -6.70495 55.8214 14.2
      vertex -3.33552 56.5149 14.2
      vertex -3.50839 57.047 14.2
    endloop
  endfacet
  facet normal 0 0 1
    outer loop
      vertex -2.52267 55.375 14.2
      vertex -3.525 51.8945 14.2
      vertex -2.86749 51.5595 14.2
    endloop
  endfacet
  facet normal 0 0 1
    outer loop
      vertex -6.70495 55.8214 14.2
      vertex -3.50839 57.047 14.2
      vertex -3.57139 57.2409 14.2
    endloop
  endfacet
  facet normal -0 0 1
    outer loop
      vertex -7.01138 57.2631 14.2
      vertex -3.57139 57.2409 14.2
      vertex -3.62987 57.7973 14.2
    endloop
  endfacet
  facet normal 0 0 1
    outer loop
      vertex -7.01138 57.2631 14.2
      vertex -3.62987 57.7973 14.2
      vertex -3.65118 58 14.2
    endloop
  endfacet
  facet normal -0 0 1
    outer loop
      vertex -6.44049 60.8675 14.2
      vertex -3.33552 59.4851 14.2
      vertex -6.10548 61.525 14.2
    endloop
  endfacet
  facet normal 0 0 1
    outer loop
      vertex -2.52267 55.375 14.2
      vertex -4.14389 52.2964 14.2
      vertex -3.525 51.8945 14.2
    endloop
  endfacet
  facet normal -0 0 1
    outer loop
      vertex -6.70495 60.1786 14.2
      vertex -3.33552 59.4851 14.2
      vertex -6.44049 60.8675 14.2
    endloop
  endfacet
  facet normal 0 0 1
    outer loop
      vertex -2.52267 55.375 14.2
      vertex -4.71737 52.7608 14.2
      vertex -4.14389 52.2964 14.2
    endloop
  endfacet
  facet normal 0 0 1
    outer loop
      vertex -3.33552 59.4851 14.2
      vertex -6.70495 60.1786 14.2
      vertex -3.50839 58.953 14.2
    endloop
  endfacet
  facet normal 0 0 1
    outer loop
      vertex -2.52267 55.375 14.2
      vertex -5.23917 53.2826 14.2
      vertex -4.71737 52.7608 14.2
    endloop
  endfacet
  facet normal 0 0 1
    outer loop
      vertex -3.50839 58.953 14.2
      vertex -6.70495 60.1786 14.2
      vertex -3.57139 58.7591 14.2
    endloop
  endfacet
  facet normal 0 0 1
    outer loop
      vertex -2.95387 55.8539 14.2
      vertex -5.70357 53.8561 14.2
      vertex -5.23917 53.2826 14.2
    endloop
  endfacet
  facet normal -0 0 1
    outer loop
      vertex -6.89594 59.4658 14.2
      vertex -3.57139 58.7591 14.2
      vertex -6.70495 60.1786 14.2
    endloop
  endfacet
  facet normal 0 0 1
    outer loop
      vertex -2.95387 55.8539 14.2
      vertex -6.10548 54.475 14.2
      vertex -5.70357 53.8561 14.2
    endloop
  endfacet
  facet normal 0 0 1
    outer loop
      vertex -7.01138 58.7369 14.2
      vertex -3.57139 58.7591 14.2
      vertex -6.89594 59.4658 14.2
    endloop
  endfacet
  facet normal 0 0 1
    outer loop
      vertex -3.33552 56.5149 14.2
      vertex -6.44049 55.1325 14.2
      vertex -6.10548 54.475 14.2
    endloop
  endfacet
  facet normal 0 0 1
    outer loop
      vertex -3.57139 58.7591 14.2
      vertex -7.01138 58.7369 14.2
      vertex -3.62987 58.2027 14.2
    endloop
  endfacet
  facet normal 0 0 1
    outer loop
      vertex -3.33552 56.5149 14.2
      vertex -6.70495 55.8214 14.2
      vertex -6.44049 55.1325 14.2
    endloop
  endfacet
  facet normal 0 0 1
    outer loop
      vertex -3.62987 58.2027 14.2
      vertex -7.01138 58.7369 14.2
      vertex -3.65118 58 14.2
    endloop
  endfacet
  facet normal 0 0 1
    outer loop
      vertex -3.57139 57.2409 14.2
      vertex -6.89594 56.5342 14.2
      vertex -6.70495 55.8214 14.2
    endloop
  endfacet
  facet normal 0 0 1
    outer loop
      vertex -7.05 58 14.2
      vertex -3.65118 58 14.2
      vertex -7.01138 58.7369 14.2
    endloop
  endfacet
  facet normal 0 0 1
    outer loop
      vertex -3.57139 57.2409 14.2
      vertex -7.01138 57.2631 14.2
      vertex -6.89594 56.5342 14.2
    endloop
  endfacet
  facet normal 0 0 1
    outer loop
      vertex -3.65118 58 14.2
      vertex -7.05 58 14.2
      vertex -7.01138 57.2631 14.2
    endloop
  endfacet
  facet normal -0.544639 0.838671 0
    outer loop
      vertex -3.525 64.1055 12.7
      vertex -4.14389 63.7036 14.2
      vertex -3.525 64.1055 14.2
    endloop
  endfacet
  facet normal -0.544639 0.838671 0
    outer loop
      vertex -4.14389 63.7036 14.2
      vertex -3.525 64.1055 12.7
      vertex -4.14389 63.7036 12.7
    endloop
  endfacet
  facet normal -0.258822 0.965925 0
    outer loop
      vertex -1.46578 64.8959 12.7
      vertex -2.17857 64.7049 14.2
      vertex -1.46578 64.8959 14.2
    endloop
  endfacet
  facet normal -0.258822 0.965925 0
    outer loop
      vertex -2.17857 64.7049 14.2
      vertex -1.46578 64.8959 12.7
      vertex -2.17857 64.7049 12.7
    endloop
  endfacet
  facet normal -0.93358 -0.358369 0
    outer loop
      vertex -6.44049 55.1325 12.7
      vertex -6.70495 55.8214 14.2
      vertex -6.70495 55.8214 12.7
    endloop
  endfacet
  facet normal -0.93358 -0.358369 0
    outer loop
      vertex -6.70495 55.8214 14.2
      vertex -6.44049 55.1325 12.7
      vertex -6.44049 55.1325 14.2
    endloop
  endfacet
  facet normal 0.358369 -0.93358 0
    outer loop
      vertex 2.17857 51.2951 12.7
      vertex 2.86749 51.5595 14.2
      vertex 2.17857 51.2951 14.2
    endloop
  endfacet
  facet normal 0.358369 -0.93358 0
    outer loop
      vertex 2.86749 51.5595 14.2
      vertex 2.17857 51.2951 12.7
      vertex 2.86749 51.5595 12.7
    endloop
  endfacet
  facet normal 0.965926 0.258818 0
    outer loop
      vertex 6.89594 59.4658 14.2
      vertex 6.70495 60.1786 12.7
      vertex 6.70495 60.1786 14.2
    endloop
  endfacet
  facet normal 0.965926 0.258818 0
    outer loop
      vertex 6.70495 60.1786 12.7
      vertex 6.89594 59.4658 14.2
      vertex 6.89594 59.4658 12.7
    endloop
  endfacet
  facet normal 0.987688 0.156435 0
    outer loop
      vertex 7.01138 58.7369 14.2
      vertex 6.89594 59.4658 12.7
      vertex 6.89594 59.4658 14.2
    endloop
  endfacet
  facet normal 0.987688 0.156435 0
    outer loop
      vertex 6.89594 59.4658 12.7
      vertex 7.01138 58.7369 14.2
      vertex 7.01138 58.7369 12.7
    endloop
  endfacet
  facet normal 0.93358 0.358369 0
    outer loop
      vertex 6.70495 60.1786 14.2
      vertex 6.44049 60.8675 12.7
      vertex 6.44049 60.8675 14.2
    endloop
  endfacet
  facet normal 0.93358 0.358369 0
    outer loop
      vertex 6.44049 60.8675 12.7
      vertex 6.70495 60.1786 14.2
      vertex 6.70495 60.1786 12.7
    endloop
  endfacet
  facet normal 0.777144 0.629322 0
    outer loop
      vertex 5.70357 62.1439 14.2
      vertex 5.23917 62.7174 12.7
      vertex 5.23917 62.7174 14.2
    endloop
  endfacet
  facet normal 0.777144 0.629322 0
    outer loop
      vertex 5.23917 62.7174 12.7
      vertex 5.70357 62.1439 14.2
      vertex 5.70357 62.1439 12.7
    endloop
  endfacet
  facet normal 0.707107 0.707106 0
    outer loop
      vertex 5.23917 62.7174 14.2
      vertex 4.71737 63.2392 12.7
      vertex 4.71737 63.2392 14.2
    endloop
  endfacet
  facet normal 0.707107 0.707106 0
    outer loop
      vertex 4.71737 63.2392 12.7
      vertex 5.23917 62.7174 14.2
      vertex 5.23917 62.7174 12.7
    endloop
  endfacet
  facet normal 0.83867 0.544639 0
    outer loop
      vertex 6.10548 61.525 14.2
      vertex 5.70357 62.1439 12.7
      vertex 5.70357 62.1439 14.2
    endloop
  endfacet
  facet normal 0.83867 0.544639 0
    outer loop
      vertex 5.70357 62.1439 12.7
      vertex 6.10548 61.525 14.2
      vertex 6.10548 61.525 12.7
    endloop
  endfacet
  facet normal 0.156436 0.987688 -0
    outer loop
      vertex 1.46578 64.8959 12.7
      vertex 0.736925 65.0114 14.2
      vertex 1.46578 64.8959 14.2
    endloop
  endfacet
  facet normal 0.156436 0.987688 0
    outer loop
      vertex 0.736925 65.0114 14.2
      vertex 1.46578 64.8959 12.7
      vertex 0.736925 65.0114 12.7
    endloop
  endfacet
  facet normal 0.258822 0.965925 -0
    outer loop
      vertex 2.17857 64.7049 12.7
      vertex 1.46578 64.8959 14.2
      vertex 2.17857 64.7049 14.2
    endloop
  endfacet
  facet normal 0.258822 0.965925 0
    outer loop
      vertex 1.46578 64.8959 14.2
      vertex 2.17857 64.7049 12.7
      vertex 1.46578 64.8959 12.7
    endloop
  endfacet
  facet normal 0.0523351 0.99863 -0
    outer loop
      vertex 0.736925 65.0114 12.7
      vertex 0 65.05 14.2
      vertex 0.736925 65.0114 14.2
    endloop
  endfacet
  facet normal 0.0523351 0.99863 0
    outer loop
      vertex 0 65.05 14.2
      vertex 0.736925 65.0114 12.7
      vertex 0 65.05 12.7
    endloop
  endfacet
  facet normal -0.93358 0.358369 0
    outer loop
      vertex -6.70495 60.1786 12.7
      vertex -6.44049 60.8675 14.2
      vertex -6.44049 60.8675 12.7
    endloop
  endfacet
  facet normal -0.93358 0.358369 0
    outer loop
      vertex -6.44049 60.8675 14.2
      vertex -6.70495 60.1786 12.7
      vertex -6.70495 60.1786 14.2
    endloop
  endfacet
  facet normal -0.987688 0.156435 0
    outer loop
      vertex -7.01138 58.7369 12.7
      vertex -6.89594 59.4658 14.2
      vertex -6.89594 59.4658 12.7
    endloop
  endfacet
  facet normal -0.987688 0.156435 0
    outer loop
      vertex -6.89594 59.4658 14.2
      vertex -7.01138 58.7369 12.7
      vertex -7.01138 58.7369 14.2
    endloop
  endfacet
  facet normal -0.358374 0.933578 0
    outer loop
      vertex -2.17857 64.7049 12.7
      vertex -2.86749 64.4405 14.2
      vertex -2.17857 64.7049 14.2
    endloop
  endfacet
  facet normal -0.358374 0.933578 0
    outer loop
      vertex -2.86749 64.4405 14.2
      vertex -2.17857 64.7049 12.7
      vertex -2.86749 64.4405 12.7
    endloop
  endfacet
  facet normal -0.156436 0.987688 0
    outer loop
      vertex -0.736925 65.0114 12.7
      vertex -1.46578 64.8959 14.2
      vertex -0.736925 65.0114 14.2
    endloop
  endfacet
  facet normal -0.156436 0.987688 0
    outer loop
      vertex -1.46578 64.8959 14.2
      vertex -0.736925 65.0114 12.7
      vertex -1.46578 64.8959 12.7
    endloop
  endfacet
  facet normal 0.99863 -0.0523353 0
    outer loop
      vertex 7.01138 57.2631 14.2
      vertex 7.05 58 12.7
      vertex 7.05 58 14.2
    endloop
  endfacet
  facet normal 0.99863 -0.0523353 0
    outer loop
      vertex 7.05 58 12.7
      vertex 7.01138 57.2631 14.2
      vertex 7.01138 57.2631 12.7
    endloop
  endfacet
  facet normal -0.358369 -0.93358 0
    outer loop
      vertex -2.86749 51.5595 12.7
      vertex -2.17857 51.2951 14.2
      vertex -2.86749 51.5595 14.2
    endloop
  endfacet
  facet normal -0.358369 -0.93358 -0
    outer loop
      vertex -2.17857 51.2951 14.2
      vertex -2.86749 51.5595 12.7
      vertex -2.17857 51.2951 12.7
    endloop
  endfacet
  facet normal -0.99863 -0.0523353 0
    outer loop
      vertex -7.01138 57.2631 12.7
      vertex -7.05 58 14.2
      vertex -7.05 58 12.7
    endloop
  endfacet
  facet normal -0.99863 -0.0523353 0
    outer loop
      vertex -7.05 58 14.2
      vertex -7.01138 57.2631 12.7
      vertex -7.01138 57.2631 14.2
    endloop
  endfacet
  facet normal 0.453992 -0.891006 0
    outer loop
      vertex 2.86749 51.5595 12.7
      vertex 3.525 51.8945 14.2
      vertex 2.86749 51.5595 14.2
    endloop
  endfacet
  facet normal 0.453992 -0.891006 0
    outer loop
      vertex 3.525 51.8945 14.2
      vertex 2.86749 51.5595 12.7
      vertex 3.525 51.8945 12.7
    endloop
  endfacet
  facet normal 0.453988 0.891008 -0
    outer loop
      vertex 3.525 64.1055 12.7
      vertex 2.86749 64.4405 14.2
      vertex 3.525 64.1055 14.2
    endloop
  endfacet
  facet normal 0.453988 0.891008 0
    outer loop
      vertex 2.86749 64.4405 14.2
      vertex 3.525 64.1055 12.7
      vertex 2.86749 64.4405 12.7
    endloop
  endfacet
  facet normal -0.777144 0.629322 0
    outer loop
      vertex -5.70357 62.1439 12.7
      vertex -5.23917 62.7174 14.2
      vertex -5.23917 62.7174 12.7
    endloop
  endfacet
  facet normal -0.777144 0.629322 0
    outer loop
      vertex -5.23917 62.7174 14.2
      vertex -5.70357 62.1439 12.7
      vertex -5.70357 62.1439 14.2
    endloop
  endfacet
  facet normal -0.965926 0.258818 0
    outer loop
      vertex -6.89594 59.4658 12.7
      vertex -6.70495 60.1786 14.2
      vertex -6.70495 60.1786 12.7
    endloop
  endfacet
  facet normal -0.965926 0.258818 0
    outer loop
      vertex -6.70495 60.1786 14.2
      vertex -6.89594 59.4658 12.7
      vertex -6.89594 59.4658 14.2
    endloop
  endfacet
  facet normal -0.629319 0.777147 0
    outer loop
      vertex -4.14389 63.7036 12.7
      vertex -4.71737 63.2392 14.2
      vertex -4.14389 63.7036 14.2
    endloop
  endfacet
  facet normal -0.629319 0.777147 0
    outer loop
      vertex -4.71737 63.2392 14.2
      vertex -4.14389 63.7036 12.7
      vertex -4.71737 63.2392 12.7
    endloop
  endfacet
  facet normal 0.93358 -0.358369 0
    outer loop
      vertex 6.44049 55.1325 14.2
      vertex 6.70495 55.8214 12.7
      vertex 6.70495 55.8214 14.2
    endloop
  endfacet
  facet normal 0.93358 -0.358369 0
    outer loop
      vertex 6.70495 55.8214 12.7
      vertex 6.44049 55.1325 14.2
      vertex 6.44049 55.1325 12.7
    endloop
  endfacet
  facet normal 0.965926 -0.258818 0
    outer loop
      vertex 6.70495 55.8214 14.2
      vertex 6.89594 56.5342 12.7
      vertex 6.89594 56.5342 14.2
    endloop
  endfacet
  facet normal 0.965926 -0.258818 0
    outer loop
      vertex 6.89594 56.5342 12.7
      vertex 6.70495 55.8214 14.2
      vertex 6.70495 55.8214 12.7
    endloop
  endfacet
  facet normal 0.544639 -0.838671 0
    outer loop
      vertex 3.525 51.8945 12.7
      vertex 4.14389 52.2964 14.2
      vertex 3.525 51.8945 14.2
    endloop
  endfacet
  facet normal 0.544639 -0.838671 0
    outer loop
      vertex 4.14389 52.2964 14.2
      vertex 3.525 51.8945 12.7
      vertex 4.14389 52.2964 12.7
    endloop
  endfacet
  facet normal 0.891007 -0.453989 0
    outer loop
      vertex 6.10548 54.475 14.2
      vertex 6.44049 55.1325 12.7
      vertex 6.44049 55.1325 14.2
    endloop
  endfacet
  facet normal 0.891007 -0.453989 0
    outer loop
      vertex 6.44049 55.1325 12.7
      vertex 6.10548 54.475 14.2
      vertex 6.10548 54.475 12.7
    endloop
  endfacet
  facet normal -0.156436 -0.987688 0
    outer loop
      vertex -1.46578 51.1041 12.7
      vertex -0.736925 50.9886 14.2
      vertex -1.46578 51.1041 14.2
    endloop
  endfacet
  facet normal -0.156436 -0.987688 -0
    outer loop
      vertex -0.736925 50.9886 14.2
      vertex -1.46578 51.1041 12.7
      vertex -0.736925 50.9886 12.7
    endloop
  endfacet
  facet normal 0.156436 -0.987688 0
    outer loop
      vertex 0.736925 50.9886 12.7
      vertex 1.46578 51.1041 14.2
      vertex 0.736925 50.9886 14.2
    endloop
  endfacet
  facet normal 0.156436 -0.987688 0
    outer loop
      vertex 1.46578 51.1041 14.2
      vertex 0.736925 50.9886 12.7
      vertex 1.46578 51.1041 12.7
    endloop
  endfacet
  facet normal 0.987688 -0.156435 0
    outer loop
      vertex 6.89594 56.5342 14.2
      vertex 7.01138 57.2631 12.7
      vertex 7.01138 57.2631 14.2
    endloop
  endfacet
  facet normal 0.987688 -0.156435 0
    outer loop
      vertex 7.01138 57.2631 12.7
      vertex 6.89594 56.5342 14.2
      vertex 6.89594 56.5342 12.7
    endloop
  endfacet
  facet normal 0.707107 -0.707106 0
    outer loop
      vertex 4.71737 52.7608 14.2
      vertex 5.23917 53.2826 12.7
      vertex 5.23917 53.2826 14.2
    endloop
  endfacet
  facet normal 0.707107 -0.707106 0
    outer loop
      vertex 5.23917 53.2826 12.7
      vertex 4.71737 52.7608 14.2
      vertex 4.71737 52.7608 12.7
    endloop
  endfacet
  facet normal 0.777144 -0.629322 0
    outer loop
      vertex 5.23917 53.2826 14.2
      vertex 5.70357 53.8561 12.7
      vertex 5.70357 53.8561 14.2
    endloop
  endfacet
  facet normal 0.777144 -0.629322 0
    outer loop
      vertex 5.70357 53.8561 12.7
      vertex 5.23917 53.2826 14.2
      vertex 5.23917 53.2826 12.7
    endloop
  endfacet
  facet normal 0.629319 -0.777147 0
    outer loop
      vertex 4.14389 52.2964 12.7
      vertex 4.71737 52.7608 14.2
      vertex 4.14389 52.2964 14.2
    endloop
  endfacet
  facet normal 0.629319 -0.777147 0
    outer loop
      vertex 4.71737 52.7608 14.2
      vertex 4.14389 52.2964 12.7
      vertex 4.71737 52.7608 12.7
    endloop
  endfacet
  facet normal -0.0523351 -0.99863 0
    outer loop
      vertex -0.736925 50.9886 12.7
      vertex 0 50.95 14.2
      vertex -0.736925 50.9886 14.2
    endloop
  endfacet
  facet normal -0.0523351 -0.99863 -0
    outer loop
      vertex 0 50.95 14.2
      vertex -0.736925 50.9886 12.7
      vertex 0 50.95 12.7
    endloop
  endfacet
  facet normal -0.707107 -0.707106 0
    outer loop
      vertex -4.71737 52.7608 12.7
      vertex -5.23917 53.2826 14.2
      vertex -5.23917 53.2826 12.7
    endloop
  endfacet
  facet normal -0.707107 -0.707106 0
    outer loop
      vertex -5.23917 53.2826 14.2
      vertex -4.71737 52.7608 12.7
      vertex -4.71737 52.7608 14.2
    endloop
  endfacet
  facet normal -0.891007 -0.453989 0
    outer loop
      vertex -6.10548 54.475 12.7
      vertex -6.44049 55.1325 14.2
      vertex -6.44049 55.1325 12.7
    endloop
  endfacet
  facet normal -0.891007 -0.453989 0
    outer loop
      vertex -6.44049 55.1325 14.2
      vertex -6.10548 54.475 12.7
      vertex -6.10548 54.475 14.2
    endloop
  endfacet
  facet normal -0.965926 -0.258818 0
    outer loop
      vertex -6.70495 55.8214 12.7
      vertex -6.89594 56.5342 14.2
      vertex -6.89594 56.5342 12.7
    endloop
  endfacet
  facet normal -0.965926 -0.258818 0
    outer loop
      vertex -6.89594 56.5342 14.2
      vertex -6.70495 55.8214 12.7
      vertex -6.70495 55.8214 14.2
    endloop
  endfacet
  facet normal -0.987688 -0.156435 0
    outer loop
      vertex -6.89594 56.5342 12.7
      vertex -7.01138 57.2631 14.2
      vertex -7.01138 57.2631 12.7
    endloop
  endfacet
  facet normal -0.987688 -0.156435 0
    outer loop
      vertex -7.01138 57.2631 14.2
      vertex -6.89594 56.5342 12.7
      vertex -6.89594 56.5342 14.2
    endloop
  endfacet
  facet normal 0.258817 -0.965926 0
    outer loop
      vertex 1.46578 51.1041 12.7
      vertex 2.17857 51.2951 14.2
      vertex 1.46578 51.1041 14.2
    endloop
  endfacet
  facet normal 0.258817 -0.965926 0
    outer loop
      vertex 2.17857 51.2951 14.2
      vertex 1.46578 51.1041 12.7
      vertex 2.17857 51.2951 12.7
    endloop
  endfacet
  facet normal -0.258817 -0.965926 0
    outer loop
      vertex -2.17857 51.2951 12.7
      vertex -1.46578 51.1041 14.2
      vertex -2.17857 51.2951 14.2
    endloop
  endfacet
  facet normal -0.258817 -0.965926 -0
    outer loop
      vertex -1.46578 51.1041 14.2
      vertex -2.17857 51.2951 12.7
      vertex -1.46578 51.1041 12.7
    endloop
  endfacet
  facet normal -0.629319 -0.777147 0
    outer loop
      vertex -4.71737 52.7608 12.7
      vertex -4.14389 52.2964 14.2
      vertex -4.71737 52.7608 14.2
    endloop
  endfacet
  facet normal -0.629319 -0.777147 -0
    outer loop
      vertex -4.14389 52.2964 14.2
      vertex -4.71737 52.7608 12.7
      vertex -4.14389 52.2964 12.7
    endloop
  endfacet
  facet normal -0.83867 -0.544639 0
    outer loop
      vertex -5.70357 53.8561 12.7
      vertex -6.10548 54.475 14.2
      vertex -6.10548 54.475 12.7
    endloop
  endfacet
  facet normal -0.83867 -0.544639 0
    outer loop
      vertex -6.10548 54.475 14.2
      vertex -5.70357 53.8561 12.7
      vertex -5.70357 53.8561 14.2
    endloop
  endfacet
  facet normal -0.777144 -0.629322 0
    outer loop
      vertex -5.23917 53.2826 12.7
      vertex -5.70357 53.8561 14.2
      vertex -5.70357 53.8561 12.7
    endloop
  endfacet
  facet normal -0.777144 -0.629322 0
    outer loop
      vertex -5.70357 53.8561 14.2
      vertex -5.23917 53.2826 12.7
      vertex -5.23917 53.2826 14.2
    endloop
  endfacet
  facet normal -0.453992 -0.891006 0
    outer loop
      vertex -3.525 51.8945 12.7
      vertex -2.86749 51.5595 14.2
      vertex -3.525 51.8945 14.2
    endloop
  endfacet
  facet normal -0.453992 -0.891006 -0
    outer loop
      vertex -2.86749 51.5595 14.2
      vertex -3.525 51.8945 12.7
      vertex -2.86749 51.5595 12.7
    endloop
  endfacet
  facet normal -0.544639 -0.838671 0
    outer loop
      vertex -4.14389 52.2964 12.7
      vertex -3.525 51.8945 14.2
      vertex -4.14389 52.2964 14.2
    endloop
  endfacet
  facet normal -0.544639 -0.838671 -0
    outer loop
      vertex -3.525 51.8945 14.2
      vertex -4.14389 52.2964 12.7
      vertex -3.525 51.8945 12.7
    endloop
  endfacet
  facet normal -0.994521 -0.104528 -0.00165725
    outer loop
      vertex 3.696 58 -12.7
      vertex 3.62987 58.2027 14.2
      vertex 3.63821 58.5499 -12.7
    endloop
  endfacet
  facet normal -0.994521 -0.104528 -0.00165725
    outer loop
      vertex 3.62987 58.2027 14.2
      vertex 3.696 58 -12.7
      vertex 3.65118 58 14.2
    endloop
  endfacet
  facet normal 0.99452 0.104529 -0.00165726
    outer loop
      vertex -3.57139 57.2409 14.2
      vertex -3.63821 57.4501 -12.7
      vertex -3.62987 57.7973 14.2
    endloop
  endfacet
  facet normal 0.99452 0.104529 -0.00165725
    outer loop
      vertex -3.63821 57.4501 -12.7
      vertex -3.57139 57.2409 14.2
      vertex -3.61524 57.2316 -12.7
    endloop
  endfacet
  facet normal 0.99452 -0.104529 -0.00165725
    outer loop
      vertex -3.57139 58.7591 14.2
      vertex -3.63821 58.5499 -12.7
      vertex -3.61524 58.7684 -12.7
    endloop
  endfacet
  facet normal 0.99452 -0.104529 -0.00165726
    outer loop
      vertex -3.63821 58.5499 -12.7
      vertex -3.57139 58.7591 14.2
      vertex -3.62987 58.2027 14.2
    endloop
  endfacet
  facet normal -0.743149 -0.669124 -0.00165727
    outer loop
      vertex 2.58266 60.625 -12.7
      vertex 2.57953 60.5619 14.2
      vertex 2.52267 60.625 14.2
    endloop
  endfacet
  facet normal -0.743144 -0.669129 -0.00165728
    outer loop
      vertex 2.57953 60.5619 14.2
      vertex 2.58266 60.625 -12.7
      vertex 2.8431 60.3358 -12.7
    endloop
  endfacet
  facet normal -0.951055 -0.309016 -0.00165724
    outer loop
      vertex 3.44437 59.2943 -12.7
      vertex 3.33552 59.4851 14.2
      vertex 3.37647 59.5033 -12.7
    endloop
  endfacet
  facet normal -0.951055 -0.309017 -0.00165723
    outer loop
      vertex 3.33552 59.4851 14.2
      vertex 3.44437 59.2943 -12.7
      vertex 3.50839 58.953 14.2
    endloop
  endfacet
  facet normal -0.743139 -0.669135 -0.00165718
    outer loop
      vertex 2.99013 60.1725 -12.7
      vertex 2.57953 60.5619 14.2
      vertex 2.8431 60.3358 -12.7
    endloop
  endfacet
  facet normal -0.743142 -0.669132 -0.00165726
    outer loop
      vertex 2.57953 60.5619 14.2
      vertex 2.99013 60.1725 -12.7
      vertex 2.95387 60.1461 14.2
    endloop
  endfacet
  facet normal -0.866025 -0.499997 -0.00165725
    outer loop
      vertex 3.37647 59.5033 -12.7
      vertex 3.23358 59.6616 14.2
      vertex 3.1 59.9822 -12.7
    endloop
  endfacet
  facet normal -0.866024 -0.5 -0.00165723
    outer loop
      vertex 3.23358 59.6616 14.2
      vertex 3.37647 59.5033 -12.7
      vertex 3.33552 59.4851 14.2
    endloop
  endfacet
  facet normal -0.99452 -0.104529 -0.00165725
    outer loop
      vertex 3.63821 58.5499 -12.7
      vertex 3.57139 58.7591 14.2
      vertex 3.61524 58.7684 -12.7
    endloop
  endfacet
  facet normal -0.99452 -0.104529 -0.00165726
    outer loop
      vertex 3.57139 58.7591 14.2
      vertex 3.63821 58.5499 -12.7
      vertex 3.62987 58.2027 14.2
    endloop
  endfacet
  facet normal -0.994521 0.104528 -0.00165725
    outer loop
      vertex 3.696 58 -12.7
      vertex 3.62987 57.7973 14.2
      vertex 3.65118 58 14.2
    endloop
  endfacet
  facet normal -0.994521 0.104528 -0.00165725
    outer loop
      vertex 3.62987 57.7973 14.2
      vertex 3.696 58 -12.7
      vertex 3.63821 57.4501 -12.7
    endloop
  endfacet
  facet normal -0.951056 0.309014 -0.00165725
    outer loop
      vertex 3.61524 57.2316 -12.7
      vertex 3.50839 57.047 14.2
      vertex 3.57139 57.2409 14.2
    endloop
  endfacet
  facet normal -0.951055 0.309017 -0.00165723
    outer loop
      vertex 3.50839 57.047 14.2
      vertex 3.61524 57.2316 -12.7
      vertex 3.44437 56.7057 -12.7
    endloop
  endfacet
  facet normal -0.99452 0.104529 -0.00165726
    outer loop
      vertex 3.63821 57.4501 -12.7
      vertex 3.57139 57.2409 14.2
      vertex 3.62987 57.7973 14.2
    endloop
  endfacet
  facet normal -0.99452 0.104529 -0.00165725
    outer loop
      vertex 3.57139 57.2409 14.2
      vertex 3.63821 57.4501 -12.7
      vertex 3.61524 57.2316 -12.7
    endloop
  endfacet
  facet normal 0.994521 -0.104528 -0.00165725
    outer loop
      vertex -3.696 58 -12.7
      vertex -3.62987 58.2027 14.2
      vertex -3.65118 58 14.2
    endloop
  endfacet
  facet normal 0.994521 -0.104528 -0.00165725
    outer loop
      vertex -3.62987 58.2027 14.2
      vertex -3.696 58 -12.7
      vertex -3.63821 58.5499 -12.7
    endloop
  endfacet
  facet normal -0.866025 -0.499999 -0.00165726
    outer loop
      vertex 3.1 59.9822 -12.7
      vertex 2.95387 60.1461 14.2
      vertex 2.99013 60.1725 -12.7
    endloop
  endfacet
  facet normal -0.866025 -0.499998 -0.00165726
    outer loop
      vertex 2.95387 60.1461 14.2
      vertex 3.1 59.9822 -12.7
      vertex 3.23358 59.6616 14.2
    endloop
  endfacet
  facet normal -0.951055 -0.309017 -0.00165723
    outer loop
      vertex 3.61524 58.7684 -12.7
      vertex 3.50839 58.953 14.2
      vertex 3.44437 59.2943 -12.7
    endloop
  endfacet
  facet normal -0.951056 -0.309014 -0.00165725
    outer loop
      vertex 3.50839 58.953 14.2
      vertex 3.61524 58.7684 -12.7
      vertex 3.57139 58.7591 14.2
    endloop
  endfacet
  facet normal 0.743154 0.669118 -0.00165748
    outer loop
      vertex -2.52267 55.375 14.2
      vertex -2.8431 55.6642 -12.7
      vertex -2.57953 55.4381 14.2
    endloop
  endfacet
  facet normal 0.743145 0.669128 -0.00165726
    outer loop
      vertex -2.8431 55.6642 -12.7
      vertex -2.52267 55.375 14.2
      vertex -2.58266 55.375 -12.7
    endloop
  endfacet
  facet normal -0.743139 0.669135 -0.00165726
    outer loop
      vertex 2.8431 55.6642 -12.7
      vertex 2.95387 55.8539 14.2
      vertex 2.99013 55.8275 -12.7
    endloop
  endfacet
  facet normal -0.743142 0.669132 -0.00165723
    outer loop
      vertex 2.95387 55.8539 14.2
      vertex 2.8431 55.6642 -12.7
      vertex 2.57953 55.4381 14.2
    endloop
  endfacet
  facet normal -0.743145 0.669128 -0.0016573
    outer loop
      vertex 2.58266 55.375 -12.7
      vertex 2.57953 55.4381 14.2
      vertex 2.8431 55.6642 -12.7
    endloop
  endfacet
  facet normal -0.743154 0.669118 -0.00165728
    outer loop
      vertex 2.57953 55.4381 14.2
      vertex 2.58266 55.375 -12.7
      vertex 2.52267 55.375 14.2
    endloop
  endfacet
  facet normal -0.951055 0.309017 -0.00165723
    outer loop
      vertex 3.44437 56.7057 -12.7
      vertex 3.33552 56.5149 14.2
      vertex 3.50839 57.047 14.2
    endloop
  endfacet
  facet normal -0.951055 0.309016 -0.00165724
    outer loop
      vertex 3.33552 56.5149 14.2
      vertex 3.44437 56.7057 -12.7
      vertex 3.37647 56.4967 -12.7
    endloop
  endfacet
  facet normal 0.994521 0.104528 -0.00165725
    outer loop
      vertex -3.62987 57.7973 14.2
      vertex -3.696 58 -12.7
      vertex -3.65118 58 14.2
    endloop
  endfacet
  facet normal 0.994521 0.104528 -0.00165725
    outer loop
      vertex -3.696 58 -12.7
      vertex -3.62987 57.7973 14.2
      vertex -3.63821 57.4501 -12.7
    endloop
  endfacet
  facet normal 0.951056 0.309014 -0.00165725
    outer loop
      vertex -3.50839 57.047 14.2
      vertex -3.61524 57.2316 -12.7
      vertex -3.57139 57.2409 14.2
    endloop
  endfacet
  facet normal 0.951055 0.309017 -0.00165723
    outer loop
      vertex -3.61524 57.2316 -12.7
      vertex -3.50839 57.047 14.2
      vertex -3.44437 56.7057 -12.7
    endloop
  endfacet
  facet normal 0.743139 0.669135 -0.00165726
    outer loop
      vertex -2.95387 55.8539 14.2
      vertex -2.8431 55.6642 -12.7
      vertex -2.99013 55.8275 -12.7
    endloop
  endfacet
  facet normal 0.743142 0.669132 -0.00165723
    outer loop
      vertex -2.8431 55.6642 -12.7
      vertex -2.95387 55.8539 14.2
      vertex -2.57953 55.4381 14.2
    endloop
  endfacet
  facet normal 0.743149 -0.669124 -0.00165727
    outer loop
      vertex -2.57953 60.5619 14.2
      vertex -2.58266 60.625 -12.7
      vertex -2.52267 60.625 14.2
    endloop
  endfacet
  facet normal 0.743144 -0.669129 -0.00165728
    outer loop
      vertex -2.58266 60.625 -12.7
      vertex -2.57953 60.5619 14.2
      vertex -2.8431 60.3358 -12.7
    endloop
  endfacet
  facet normal 0.743139 -0.669135 -0.00165718
    outer loop
      vertex -2.57953 60.5619 14.2
      vertex -2.99013 60.1725 -12.7
      vertex -2.8431 60.3358 -12.7
    endloop
  endfacet
  facet normal 0.743142 -0.669132 -0.00165726
    outer loop
      vertex -2.99013 60.1725 -12.7
      vertex -2.57953 60.5619 14.2
      vertex -2.95387 60.1461 14.2
    endloop
  endfacet
  facet normal 0.866025 -0.499999 -0.00165726
    outer loop
      vertex -2.95387 60.1461 14.2
      vertex -3.1 59.9822 -12.7
      vertex -2.99013 60.1725 -12.7
    endloop
  endfacet
  facet normal 0.866025 -0.499998 -0.00165726
    outer loop
      vertex -3.1 59.9822 -12.7
      vertex -2.95387 60.1461 14.2
      vertex -3.23358 59.6616 14.2
    endloop
  endfacet
  facet normal 0.951055 -0.309017 -0.00165723
    outer loop
      vertex -3.50839 58.953 14.2
      vertex -3.61524 58.7684 -12.7
      vertex -3.44437 59.2943 -12.7
    endloop
  endfacet
  facet normal 0.951056 -0.309014 -0.00165725
    outer loop
      vertex -3.61524 58.7684 -12.7
      vertex -3.50839 58.953 14.2
      vertex -3.57139 58.7591 14.2
    endloop
  endfacet
  facet normal -0.866025 0.499998 -0.00165726
    outer loop
      vertex 3.1 56.0178 -12.7
      vertex 2.95387 55.8539 14.2
      vertex 3.23358 56.3384 14.2
    endloop
  endfacet
  facet normal -0.866025 0.499999 -0.00165726
    outer loop
      vertex 2.95387 55.8539 14.2
      vertex 3.1 56.0178 -12.7
      vertex 2.99013 55.8275 -12.7
    endloop
  endfacet
  facet normal -0.866024 0.5 -0.00165723
    outer loop
      vertex 3.37647 56.4967 -12.7
      vertex 3.23358 56.3384 14.2
      vertex 3.33552 56.5149 14.2
    endloop
  endfacet
  facet normal -0.866025 0.499997 -0.00165725
    outer loop
      vertex 3.23358 56.3384 14.2
      vertex 3.37647 56.4967 -12.7
      vertex 3.1 56.0178 -12.7
    endloop
  endfacet
  facet normal 0.951055 0.309017 -0.00165723
    outer loop
      vertex -3.33552 56.5149 14.2
      vertex -3.44437 56.7057 -12.7
      vertex -3.50839 57.047 14.2
    endloop
  endfacet
  facet normal 0.951055 0.309016 -0.00165724
    outer loop
      vertex -3.44437 56.7057 -12.7
      vertex -3.33552 56.5149 14.2
      vertex -3.37647 56.4967 -12.7
    endloop
  endfacet
  facet normal 0.866024 0.5 -0.00165723
    outer loop
      vertex -3.23358 56.3384 14.2
      vertex -3.37647 56.4967 -12.7
      vertex -3.33552 56.5149 14.2
    endloop
  endfacet
  facet normal 0.866025 0.499997 -0.00165725
    outer loop
      vertex -3.37647 56.4967 -12.7
      vertex -3.23358 56.3384 14.2
      vertex -3.1 56.0178 -12.7
    endloop
  endfacet
  facet normal 0.866025 -0.499997 -0.00165725
    outer loop
      vertex -3.23358 59.6616 14.2
      vertex -3.37647 59.5033 -12.7
      vertex -3.1 59.9822 -12.7
    endloop
  endfacet
  facet normal 0.866024 -0.5 -0.00165723
    outer loop
      vertex -3.37647 59.5033 -12.7
      vertex -3.23358 59.6616 14.2
      vertex -3.33552 59.4851 14.2
    endloop
  endfacet
  facet normal 0.951055 -0.309016 -0.00165724
    outer loop
      vertex -3.33552 59.4851 14.2
      vertex -3.44437 59.2943 -12.7
      vertex -3.37647 59.5033 -12.7
    endloop
  endfacet
  facet normal 0.951055 -0.309017 -0.00165723
    outer loop
      vertex -3.44437 59.2943 -12.7
      vertex -3.33552 59.4851 14.2
      vertex -3.50839 58.953 14.2
    endloop
  endfacet
  facet normal 0.866025 0.499998 -0.00165726
    outer loop
      vertex -2.95387 55.8539 14.2
      vertex -3.1 56.0178 -12.7
      vertex -3.23358 56.3384 14.2
    endloop
  endfacet
  facet normal 0.866025 0.499999 -0.00165726
    outer loop
      vertex -3.1 56.0178 -12.7
      vertex -2.95387 55.8539 14.2
      vertex -2.99013 55.8275 -12.7
    endloop
  endfacet
  facet normal 0 -1 0
    outer loop
      vertex -2.58266 60.625 -12.7
      vertex 2.52267 60.625 14.2
      vertex -2.52267 60.625 14.2
    endloop
  endfacet
  facet normal 0 -1 -0
    outer loop
      vertex 2.52267 60.625 14.2
      vertex -2.58266 60.625 -12.7
      vertex 2.58266 60.625 -12.7
    endloop
  endfacet
  facet normal 0 1 0
    outer loop
      vertex 2.58266 55.375 -12.7
      vertex -2.52267 55.375 14.2
      vertex 2.52267 55.375 14.2
    endloop
  endfacet
  facet normal 0 1 0
    outer loop
      vertex -2.52267 55.375 14.2
      vertex 2.58266 55.375 -12.7
      vertex -2.58266 55.375 -12.7
    endloop
  endfacet
endsolid OpenSCAD_Model
