solid OpenSCAD_Model
  facet normal 0 1 -0
    outer loop
      vertex 29.425 -9.2 5.17224
      vertex 29.0454 -9.2 7.97535
      vertex 29.9656 -9.2 7.77975
    endloop
  endfacet
  facet normal 0 1 0
    outer loop
      vertex 29.0454 -9.2 7.97535
      vertex 29.425 -9.2 5.17224
      vertex 28.1046 -9.2 7.97535
    endloop
  endfacet
  facet normal 0 1 0
    outer loop
      vertex 29.425 -9.2 5.17224
      vertex 29.9656 -9.2 7.77975
      vertex 30.825 -9.2 7.39711
    endloop
  endfacet
  facet normal 0 1 0
    outer loop
      vertex 28.1046 -9.2 7.97535
      vertex 29.425 -9.2 5.17224
      vertex 27.1844 -9.2 7.77975
    endloop
  endfacet
  facet normal 0 1 0
    outer loop
      vertex 27.1844 -9.2 7.77975
      vertex 29.425 -9.2 5.17224
      vertex 26.325 -9.2 7.39711
    endloop
  endfacet
  facet normal 0 1 0
    outer loop
      vertex 29.7125 -9.2 4.96335
      vertex 30.825 -9.2 7.39711
      vertex 31.5861 -9.2 6.84415
    endloop
  endfacet
  facet normal 0 1 0
    outer loop
      vertex 29.9503 -9.2 4.69923
      vertex 31.5861 -9.2 6.84415
      vertex 32.2156 -9.2 6.14503
    endloop
  endfacet
  facet normal 0 1 0
    outer loop
      vertex 30.128 -9.2 4.39145
      vertex 32.2156 -9.2 6.14503
      vertex 32.686 -9.2 5.33031
    endloop
  endfacet
  facet normal 0 1 0
    outer loop
      vertex 26.325 -9.2 7.39711
      vertex 29.425 -9.2 5.17224
      vertex 26.1248 -9.2 7.25166
    endloop
  endfacet
  facet normal 0 1 0
    outer loop
      vertex 30.825 -9.2 7.39711
      vertex 29.7125 -9.2 4.96335
      vertex 29.425 -9.2 5.17224
    endloop
  endfacet
  facet normal 0 1 0
    outer loop
      vertex 31.5861 -9.2 6.84415
      vertex 29.9503 -9.2 4.69923
      vertex 29.7125 -9.2 4.96335
    endloop
  endfacet
  facet normal 0 1 0
    outer loop
      vertex 30.2379 -9.2 4.05345
      vertex 32.686 -9.2 5.33031
      vertex 32.9767 -9.2 4.4356
    endloop
  endfacet
  facet normal 0 1 0
    outer loop
      vertex 32.2156 -9.2 6.14503
      vertex 30.128 -9.2 4.39145
      vertex 29.9503 -9.2 4.69923
    endloop
  endfacet
  facet normal 0 1 0
    outer loop
      vertex 32.686 -9.2 5.33031
      vertex 30.2379 -9.2 4.05345
      vertex 30.128 -9.2 4.39145
    endloop
  endfacet
  facet normal 0 1 0
    outer loop
      vertex 32.9767 -9.2 4.4356
      vertex 30.275 -9.2 3.7
      vertex 30.2379 -9.2 4.05345
    endloop
  endfacet
  facet normal 0 1 0
    outer loop
      vertex 33.0629 -9.2 3.61503
      vertex 30.275 -9.2 3.7
      vertex 32.9767 -9.2 4.4356
    endloop
  endfacet
  facet normal 0 1 0
    outer loop
      vertex 33.075 -9.2 3.5
      vertex 30.275 -9.2 3.7
      vertex 33.0629 -9.2 3.61503
    endloop
  endfacet
  facet normal 0 1 0
    outer loop
      vertex 33.075 -9.2 3.5
      vertex 30.2379 -9.2 3.34655
      vertex 30.275 -9.2 3.7
    endloop
  endfacet
  facet normal 0 1 -0
    outer loop
      vertex 32.9888 -9.2 2.67943
      vertex 30.2379 -9.2 3.34655
      vertex 33.075 -9.2 3.5
    endloop
  endfacet
  facet normal 0 1 -0
    outer loop
      vertex 32.9767 -9.2 2.5644
      vertex 30.2379 -9.2 3.34655
      vertex 32.9888 -9.2 2.67943
    endloop
  endfacet
  facet normal 0 1 0
    outer loop
      vertex 30.2379 -9.2 3.34655
      vertex 32.9767 -9.2 2.5644
      vertex 30.128 -9.2 3.00855
    endloop
  endfacet
  facet normal 0 1 -0
    outer loop
      vertex 32.686 -9.2 1.66969
      vertex 30.128 -9.2 3.00855
      vertex 32.9767 -9.2 2.5644
    endloop
  endfacet
  facet normal 0 1 0
    outer loop
      vertex 30.128 -9.2 3.00855
      vertex 32.686 -9.2 1.66969
      vertex 29.9503 -9.2 2.70076
    endloop
  endfacet
  facet normal 0 1 -0
    outer loop
      vertex 32.2156 -9.2 0.854967
      vertex 29.9503 -9.2 2.70076
      vertex 32.686 -9.2 1.66969
    endloop
  endfacet
  facet normal 0 1 0
    outer loop
      vertex 29.9503 -9.2 2.70076
      vertex 32.2156 -9.2 0.854967
      vertex 29.7125 -9.2 2.43665
    endloop
  endfacet
  facet normal 0 1 -0
    outer loop
      vertex 31.5861 -9.2 0.155849
      vertex 29.7125 -9.2 2.43665
      vertex 32.2156 -9.2 0.854967
    endloop
  endfacet
  facet normal 0 1 0
    outer loop
      vertex 28.384 -9.2 1.58779
      vertex 28.3973 -9.2 2.00931
      vertex 28.7527 -9.2 2.00931
    endloop
  endfacet
  facet normal 0 1 0
    outer loop
      vertex 28.3973 -9.2 2.00931
      vertex 27.884 -9.2 1.95106
      vertex 27.6795 -9.2 1.99452
    endloop
  endfacet
  facet normal 0 1 0
    outer loop
      vertex 28.3973 -9.2 2.00931
      vertex 28.075 -9.2 1.86603
      vertex 27.884 -9.2 1.95106
    endloop
  endfacet
  facet normal 0 1 -0
    outer loop
      vertex 31.3716 -9.2 0
      vertex 29.7125 -9.2 2.43665
      vertex 31.5861 -9.2 0.155849
    endloop
  endfacet
  facet normal 0 1 0
    outer loop
      vertex 28.3973 -9.2 2.00931
      vertex 28.2441 -9.2 1.74314
      vertex 28.075 -9.2 1.86603
    endloop
  endfacet
  facet normal 0 1 0
    outer loop
      vertex 29.7125 -9.2 2.43665
      vertex 31.3716 -9.2 0
      vertex 29.425 -9.2 2.22776
    endloop
  endfacet
  facet normal 0 1 0
    outer loop
      vertex 28.3973 -9.2 2.00931
      vertex 28.384 -9.2 1.58779
      vertex 28.2441 -9.2 1.74314
    endloop
  endfacet
  facet normal 0 1 0
    outer loop
      vertex 28.7527 -9.2 2.00931
      vertex 28.4885 -9.2 1.40674
      vertex 28.384 -9.2 1.58779
    endloop
  endfacet
  facet normal -0 1 0
    outer loop
      vertex 28.575 -9.2 1
      vertex 29.425 -9.2 2.22776
      vertex 31.3716 -9.2 0
    endloop
  endfacet
  facet normal 0 1 0
    outer loop
      vertex 29.1003 -9.2 2.0832
      vertex 28.4885 -9.2 1.40674
      vertex 28.7527 -9.2 2.00931
    endloop
  endfacet
  facet normal 0 1 0
    outer loop
      vertex 29.425 -9.2 2.22776
      vertex 28.575 -9.2 1
      vertex 29.1003 -9.2 2.0832
    endloop
  endfacet
  facet normal -0 1 0
    outer loop
      vertex 28.5531 -9.2 1.20791
      vertex 29.1003 -9.2 2.0832
      vertex 28.5723 -9.2 1.02556
    endloop
  endfacet
  facet normal -0 1 0
    outer loop
      vertex 28.4885 -9.2 1.40674
      vertex 29.1003 -9.2 2.0832
      vertex 28.5531 -9.2 1.20791
    endloop
  endfacet
  facet normal 0 1 0
    outer loop
      vertex 29.1003 -9.2 2.0832
      vertex 28.575 -9.2 1
      vertex 28.5723 -9.2 1.02556
    endloop
  endfacet
  facet normal 0 1 0
    outer loop
      vertex 28.575 -9.2 1
      vertex 31.3716 -9.2 0
      vertex 28.5558 -9.2 0.817651
    endloop
  endfacet
  facet normal 0 1 0
    outer loop
      vertex 28.5558 -9.2 0.817651
      vertex 31.3716 -9.2 0
      vertex 28.5531 -9.2 0.792089
    endloop
  endfacet
  facet normal 0 1 0
    outer loop
      vertex 28.5531 -9.2 0.792089
      vertex 31.3716 -9.2 0
      vertex 28.4885 -9.2 0.593264
    endloop
  endfacet
  facet normal 0 1 0
    outer loop
      vertex 28.4885 -9.2 0.593264
      vertex 31.3716 -9.2 0
      vertex 28.384 -9.2 0.412215
    endloop
  endfacet
  facet normal 0 1 0
    outer loop
      vertex 28.384 -9.2 0.412215
      vertex 31.3716 -9.2 0
      vertex 28.2441 -9.2 0.256856
    endloop
  endfacet
  facet normal 0 1 0
    outer loop
      vertex 28.2441 -9.2 0.256856
      vertex 31.3716 -9.2 0
      vertex 28.075 -9.2 0.133975
    endloop
  endfacet
  facet normal 0 1 0
    outer loop
      vertex 28.075 -9.2 0.133975
      vertex 31.3716 -9.2 0
      vertex 27.884 -9.2 0.0489435
    endloop
  endfacet
  facet normal 0 1 0
    outer loop
      vertex 27.884 -9.2 0.0489435
      vertex 31.3716 -9.2 0
      vertex 27.6795 -9.2 0.00547886
    endloop
  endfacet
  facet normal 0 1 0
    outer loop
      vertex 25.7784 -9.2 0
      vertex 27.6795 -9.2 0.00547886
      vertex 31.3716 -9.2 0
    endloop
  endfacet
  facet normal 0 1 0
    outer loop
      vertex 27.6795 -9.2 0.00547886
      vertex 25.7784 -9.2 0
      vertex 25.7709 -9.2 0.00547886
    endloop
  endfacet
  facet normal 0 1 -0
    outer loop
      vertex 27.6795 -9.2 1.99452
      vertex 24.3517 -9.2 2.01553
      vertex 28.3973 -9.2 2.00931
    endloop
  endfacet
  facet normal 0 1 0
    outer loop
      vertex 24.3517 -9.2 2.01553
      vertex 27.6795 -9.2 1.99452
      vertex 24.3585 -9.2 1.99452
    endloop
  endfacet
  facet normal 0 -1 0
    outer loop
      vertex 25.7709 9.2 0.00547886
      vertex 25.7784 9.2 0
      vertex 27.6795 9.2 0.00547886
    endloop
  endfacet
  facet normal 0 -1 0
    outer loop
      vertex 24.3517 9.2 2.01553
      vertex 27.6795 9.2 1.99452
      vertex 28.3973 9.2 2.00931
    endloop
  endfacet
  facet normal 0 -1 0
    outer loop
      vertex 27.6795 9.2 1.99452
      vertex 24.3517 9.2 2.01553
      vertex 24.3585 9.2 1.99452
    endloop
  endfacet
  facet normal 0 -1 0
    outer loop
      vertex 29.425 9.2 5.17224
      vertex 28.1046 9.2 7.97535
      vertex 27.1844 9.2 7.77975
    endloop
  endfacet
  facet normal 0 -1 0
    outer loop
      vertex 28.1046 9.2 7.97535
      vertex 29.425 9.2 5.17224
      vertex 29.0454 9.2 7.97535
    endloop
  endfacet
  facet normal 0 -1 0
    outer loop
      vertex 29.425 9.2 5.17224
      vertex 27.1844 9.2 7.77975
      vertex 26.325 9.2 7.39711
    endloop
  endfacet
  facet normal 0 -1 0
    outer loop
      vertex 29.0454 9.2 7.97535
      vertex 29.425 9.2 5.17224
      vertex 29.9656 9.2 7.77975
    endloop
  endfacet
  facet normal 0 -1 0
    outer loop
      vertex 29.425 9.2 5.17224
      vertex 26.325 9.2 7.39711
      vertex 26.1248 9.2 7.25166
    endloop
  endfacet
  facet normal 0 -1 -0
    outer loop
      vertex 29.9656 9.2 7.77975
      vertex 29.425 9.2 5.17224
      vertex 30.825 9.2 7.39711
    endloop
  endfacet
  facet normal 0 -1 0
    outer loop
      vertex 29.7125 9.2 4.96335
      vertex 30.825 9.2 7.39711
      vertex 29.425 9.2 5.17224
    endloop
  endfacet
  facet normal 0 -1 -0
    outer loop
      vertex 30.825 9.2 7.39711
      vertex 29.7125 9.2 4.96335
      vertex 31.5861 9.2 6.84415
    endloop
  endfacet
  facet normal 0 -1 0
    outer loop
      vertex 29.9503 9.2 4.69923
      vertex 31.5861 9.2 6.84415
      vertex 29.7125 9.2 4.96335
    endloop
  endfacet
  facet normal 0 -1 -0
    outer loop
      vertex 31.5861 9.2 6.84415
      vertex 29.9503 9.2 4.69923
      vertex 32.2156 9.2 6.14503
    endloop
  endfacet
  facet normal 0 -1 0
    outer loop
      vertex 30.128 9.2 4.39145
      vertex 32.2156 9.2 6.14503
      vertex 29.9503 9.2 4.69923
    endloop
  endfacet
  facet normal 0 -1 -0
    outer loop
      vertex 32.2156 9.2 6.14503
      vertex 30.128 9.2 4.39145
      vertex 32.686 9.2 5.33031
    endloop
  endfacet
  facet normal 0 -1 0
    outer loop
      vertex 30.2379 9.2 4.05345
      vertex 32.686 9.2 5.33031
      vertex 30.128 9.2 4.39145
    endloop
  endfacet
  facet normal 0 -1 -0
    outer loop
      vertex 32.686 9.2 5.33031
      vertex 30.2379 9.2 4.05345
      vertex 32.9767 9.2 4.4356
    endloop
  endfacet
  facet normal 0 -1 -0
    outer loop
      vertex 32.9767 9.2 4.4356
      vertex 30.2379 9.2 4.05345
      vertex 32.9888 9.2 4.32057
    endloop
  endfacet
  facet normal 0 -1 0
    outer loop
      vertex 30.275 9.2 3.7
      vertex 32.9888 9.2 4.32057
      vertex 30.2379 9.2 4.05345
    endloop
  endfacet
  facet normal 0 -1 0
    outer loop
      vertex 30.275 9.2 3.7
      vertex 33.075 9.2 3.5
      vertex 32.9888 9.2 4.32057
    endloop
  endfacet
  facet normal 0 -1 0
    outer loop
      vertex 30.275 9.2 3.7
      vertex 33.0629 9.2 3.38497
      vertex 33.075 9.2 3.5
    endloop
  endfacet
  facet normal 0 -1 0
    outer loop
      vertex 30.2379 9.2 3.34655
      vertex 33.0629 9.2 3.38497
      vertex 30.275 9.2 3.7
    endloop
  endfacet
  facet normal 0 -1 0
    outer loop
      vertex 32.9767 9.2 2.5644
      vertex 30.2379 9.2 3.34655
      vertex 30.128 9.2 3.00855
    endloop
  endfacet
  facet normal 0 -1 0
    outer loop
      vertex 32.686 9.2 1.66969
      vertex 30.128 9.2 3.00855
      vertex 29.9503 9.2 2.70076
    endloop
  endfacet
  facet normal 0 -1 0
    outer loop
      vertex 30.2379 9.2 3.34655
      vertex 32.9767 9.2 2.5644
      vertex 33.0629 9.2 3.38497
    endloop
  endfacet
  facet normal 0 -1 0
    outer loop
      vertex 32.2156 9.2 0.854967
      vertex 29.9503 9.2 2.70076
      vertex 29.7125 9.2 2.43665
    endloop
  endfacet
  facet normal 0 -1 0
    outer loop
      vertex 31.3716 9.2 0
      vertex 29.7125 9.2 2.43665
      vertex 29.425 9.2 2.22776
    endloop
  endfacet
  facet normal 0 -1 0
    outer loop
      vertex 28.575 9.2 1
      vertex 29.425 9.2 2.22776
      vertex 29.1003 9.2 2.0832
    endloop
  endfacet
  facet normal 0 -1 0
    outer loop
      vertex 28.4885 9.2 1.40674
      vertex 29.1003 9.2 2.0832
      vertex 28.7527 9.2 2.00931
    endloop
  endfacet
  facet normal 0 -1 0
    outer loop
      vertex 27.884 9.2 1.95106
      vertex 28.3973 9.2 2.00931
      vertex 27.6795 9.2 1.99452
    endloop
  endfacet
  facet normal 0 -1 0
    outer loop
      vertex 28.075 9.2 1.86603
      vertex 28.3973 9.2 2.00931
      vertex 27.884 9.2 1.95106
    endloop
  endfacet
  facet normal 0 -1 0
    outer loop
      vertex 28.2441 9.2 1.74314
      vertex 28.3973 9.2 2.00931
      vertex 28.075 9.2 1.86603
    endloop
  endfacet
  facet normal 0 -1 0
    outer loop
      vertex 28.384 9.2 1.58779
      vertex 28.3973 9.2 2.00931
      vertex 28.2441 9.2 1.74314
    endloop
  endfacet
  facet normal 0 -1 -0
    outer loop
      vertex 28.3973 9.2 2.00931
      vertex 28.384 9.2 1.58779
      vertex 28.7527 9.2 2.00931
    endloop
  endfacet
  facet normal 0 -1 0
    outer loop
      vertex 28.4885 9.2 1.40674
      vertex 28.7527 9.2 2.00931
      vertex 28.384 9.2 1.58779
    endloop
  endfacet
  facet normal 0 -1 0
    outer loop
      vertex 30.128 9.2 3.00855
      vertex 32.686 9.2 1.66969
      vertex 32.9767 9.2 2.5644
    endloop
  endfacet
  facet normal 0 -1 0
    outer loop
      vertex 29.1003 9.2 2.0832
      vertex 28.4885 9.2 1.40674
      vertex 28.5531 9.2 1.20791
    endloop
  endfacet
  facet normal 0 -1 0
    outer loop
      vertex 29.1003 9.2 2.0832
      vertex 28.5531 9.2 1.20791
      vertex 28.5558 9.2 1.18235
    endloop
  endfacet
  facet normal 0 -1 0
    outer loop
      vertex 29.1003 9.2 2.0832
      vertex 28.5558 9.2 1.18235
      vertex 28.575 9.2 1
    endloop
  endfacet
  facet normal 0 -1 -0
    outer loop
      vertex 29.425 9.2 2.22776
      vertex 28.575 9.2 1
      vertex 31.3716 9.2 0
    endloop
  endfacet
  facet normal 0 -1 0
    outer loop
      vertex 31.3716 9.2 0
      vertex 28.575 9.2 1
      vertex 28.5723 9.2 0.974437
    endloop
  endfacet
  facet normal 0 -1 0
    outer loop
      vertex 29.9503 9.2 2.70076
      vertex 32.2156 9.2 0.854967
      vertex 32.686 9.2 1.66969
    endloop
  endfacet
  facet normal 0 -1 0
    outer loop
      vertex 31.3716 9.2 0
      vertex 28.5723 9.2 0.974437
      vertex 28.5531 9.2 0.792089
    endloop
  endfacet
  facet normal 0 -1 0
    outer loop
      vertex 31.3716 9.2 0
      vertex 28.5531 9.2 0.792089
      vertex 28.4885 9.2 0.593264
    endloop
  endfacet
  facet normal 0 -1 0
    outer loop
      vertex 31.3716 9.2 0
      vertex 28.4885 9.2 0.593264
      vertex 28.384 9.2 0.412215
    endloop
  endfacet
  facet normal 0 -1 0
    outer loop
      vertex 31.3716 9.2 0
      vertex 28.384 9.2 0.412215
      vertex 28.2441 9.2 0.256856
    endloop
  endfacet
  facet normal 0 -1 0
    outer loop
      vertex 29.7125 9.2 2.43665
      vertex 31.5861 9.2 0.155849
      vertex 32.2156 9.2 0.854967
    endloop
  endfacet
  facet normal 0 -1 0
    outer loop
      vertex 31.3716 9.2 0
      vertex 28.2441 9.2 0.256856
      vertex 28.075 9.2 0.133975
    endloop
  endfacet
  facet normal 0 -1 0
    outer loop
      vertex 31.3716 9.2 0
      vertex 28.075 9.2 0.133975
      vertex 27.884 9.2 0.0489435
    endloop
  endfacet
  facet normal 0 -1 0
    outer loop
      vertex 31.3716 9.2 0
      vertex 27.884 9.2 0.0489435
      vertex 27.6795 9.2 0.00547886
    endloop
  endfacet
  facet normal 0 -1 0
    outer loop
      vertex 29.7125 9.2 2.43665
      vertex 31.3716 9.2 0
      vertex 31.5861 9.2 0.155849
    endloop
  endfacet
  facet normal 0 -1 0
    outer loop
      vertex 31.3716 9.2 0
      vertex 27.6795 9.2 0.00547886
      vertex 25.7784 9.2 0
    endloop
  endfacet
  facet normal 0.994519 -0 0.104555
    outer loop
      vertex 28.5531 -9.2 1.20791
      vertex 28.5558 9.2 1.18235
      vertex 28.5531 9.2 1.20791
    endloop
  endfacet
  facet normal 0.994522 -4.14676e-08 0.104525
    outer loop
      vertex 28.5558 9.2 1.18235
      vertex 28.5531 -9.2 1.20791
      vertex 28.5723 -9.2 1.02556
    endloop
  endfacet
  facet normal 0.743143 -0 0.669133
    outer loop
      vertex 28.2441 -9.2 1.74314
      vertex 28.384 9.2 1.58779
      vertex 28.2441 9.2 1.74314
    endloop
  endfacet
  facet normal 0.743143 0 0.669133
    outer loop
      vertex 28.384 9.2 1.58779
      vertex 28.2441 -9.2 1.74314
      vertex 28.384 -9.2 1.58779
    endloop
  endfacet
  facet normal -0 0 1
    outer loop
      vertex 24.3585 9.2 1.99452
      vertex 27.6795 -9.2 1.99452
      vertex 27.6795 9.2 1.99452
    endloop
  endfacet
  facet normal 0 0 1
    outer loop
      vertex 27.6795 -9.2 1.99452
      vertex 24.3585 9.2 1.99452
      vertex 24.3585 -9.2 1.99452
    endloop
  endfacet
  facet normal 0.994522 -3.73918e-08 0.104525
    outer loop
      vertex 28.5723 -9.2 1.02556
      vertex 28.575 9.2 1
      vertex 28.5558 9.2 1.18235
    endloop
  endfacet
  facet normal 0.994519 4.0643e-09 0.104554
    outer loop
      vertex 28.575 9.2 1
      vertex 28.5723 -9.2 1.02556
      vertex 28.575 -9.2 1
    endloop
  endfacet
  facet normal 0.207908 0 -0.978148
    outer loop
      vertex 27.6795 -9.2 0.00547886
      vertex 27.884 9.2 0.0489435
      vertex 27.884 -9.2 0.0489435
    endloop
  endfacet
  facet normal 0.207908 0 -0.978148
    outer loop
      vertex 27.884 9.2 0.0489435
      vertex 27.6795 -9.2 0.00547886
      vertex 27.6795 9.2 0.00547886
    endloop
  endfacet
  facet normal 0.207908 0 0.978148
    outer loop
      vertex 27.6795 9.2 1.99452
      vertex 27.884 -9.2 1.95106
      vertex 27.884 9.2 1.95106
    endloop
  endfacet
  facet normal 0.207908 0 0.978148
    outer loop
      vertex 27.884 -9.2 1.95106
      vertex 27.6795 9.2 1.99452
      vertex 27.6795 -9.2 1.99452
    endloop
  endfacet
  facet normal 0.587787 0 0.809016
    outer loop
      vertex 28.075 9.2 1.86603
      vertex 28.2441 -9.2 1.74314
      vertex 28.2441 9.2 1.74314
    endloop
  endfacet
  facet normal 0.587787 0 0.809016
    outer loop
      vertex 28.2441 -9.2 1.74314
      vertex 28.075 9.2 1.86603
      vertex 28.075 -9.2 1.86603
    endloop
  endfacet
  facet normal 0.866025 0 -0.5
    outer loop
      vertex 28.4885 -9.2 0.593264
      vertex 28.384 9.2 0.412215
      vertex 28.4885 9.2 0.593264
    endloop
  endfacet
  facet normal 0.866025 0 -0.5
    outer loop
      vertex 28.384 9.2 0.412215
      vertex 28.4885 -9.2 0.593264
      vertex 28.384 -9.2 0.412215
    endloop
  endfacet
  facet normal 0 0 -1
    outer loop
      vertex 10.6369 -8.7 0.00547886
      vertex 25.7709 8.7 0.00547886
      vertex 25.7709 -8.7 0.00547886
    endloop
  endfacet
  facet normal -0 0 -1
    outer loop
      vertex 25.7709 8.7 0.00547886
      vertex 10.6369 -8.7 0.00547886
      vertex 10.6369 8.7 0.00547886
    endloop
  endfacet
  facet normal 0 0 -1
    outer loop
      vertex 25.7709 -8.7 0.00547886
      vertex 27.6795 -9.2 0.00547886
      vertex 25.7709 -9.2 0.00547886
    endloop
  endfacet
  facet normal 0 0 -1
    outer loop
      vertex 27.6795 -9.2 0.00547886
      vertex 25.7709 -8.7 0.00547886
      vertex 27.6795 9.2 0.00547886
    endloop
  endfacet
  facet normal 0 0 -1
    outer loop
      vertex 25.7709 8.7 0.00547886
      vertex 27.6795 9.2 0.00547886
      vertex 25.7709 -8.7 0.00547886
    endloop
  endfacet
  facet normal -0 0 -1
    outer loop
      vertex 27.6795 9.2 0.00547886
      vertex 25.7709 8.7 0.00547886
      vertex 25.7709 9.2 0.00547886
    endloop
  endfacet
  facet normal 0.866025 -0 0.5
    outer loop
      vertex 28.384 -9.2 1.58779
      vertex 28.4885 9.2 1.40674
      vertex 28.384 9.2 1.58779
    endloop
  endfacet
  facet normal 0.866025 0 0.5
    outer loop
      vertex 28.4885 9.2 1.40674
      vertex 28.384 -9.2 1.58779
      vertex 28.4885 -9.2 1.40674
    endloop
  endfacet
  facet normal 0.406739 0 0.913545
    outer loop
      vertex 27.884 9.2 1.95106
      vertex 28.075 -9.2 1.86603
      vertex 28.075 9.2 1.86603
    endloop
  endfacet
  facet normal 0.406739 0 0.913545
    outer loop
      vertex 28.075 -9.2 1.86603
      vertex 27.884 9.2 1.95106
      vertex 27.884 -9.2 1.95106
    endloop
  endfacet
  facet normal 0.994519 -4.0643e-09 -0.104554
    outer loop
      vertex 28.575 -9.2 1
      vertex 28.5723 9.2 0.974437
      vertex 28.575 9.2 1
    endloop
  endfacet
  facet normal 0.994522 3.73918e-08 -0.104525
    outer loop
      vertex 28.5723 9.2 0.974437
      vertex 28.575 -9.2 1
      vertex 28.5558 -9.2 0.817651
    endloop
  endfacet
  facet normal 0.743143 0 -0.669133
    outer loop
      vertex 28.384 -9.2 0.412215
      vertex 28.2441 9.2 0.256856
      vertex 28.384 9.2 0.412215
    endloop
  endfacet
  facet normal 0.743143 0 -0.669133
    outer loop
      vertex 28.2441 9.2 0.256856
      vertex 28.384 -9.2 0.412215
      vertex 28.2441 -9.2 0.256856
    endloop
  endfacet
  facet normal 0.951057 0 -0.309016
    outer loop
      vertex 28.5531 -9.2 0.792089
      vertex 28.4885 9.2 0.593264
      vertex 28.5531 9.2 0.792089
    endloop
  endfacet
  facet normal 0.951057 0 -0.309016
    outer loop
      vertex 28.4885 9.2 0.593264
      vertex 28.5531 -9.2 0.792089
      vertex 28.4885 -9.2 0.593264
    endloop
  endfacet
  facet normal 0.951057 -0 0.309016
    outer loop
      vertex 28.4885 -9.2 1.40674
      vertex 28.5531 9.2 1.20791
      vertex 28.4885 9.2 1.40674
    endloop
  endfacet
  facet normal 0.951057 0 0.309016
    outer loop
      vertex 28.5531 9.2 1.20791
      vertex 28.4885 -9.2 1.40674
      vertex 28.5531 -9.2 1.20791
    endloop
  endfacet
  facet normal 0.587787 0 -0.809016
    outer loop
      vertex 28.075 -9.2 0.133975
      vertex 28.2441 9.2 0.256856
      vertex 28.2441 -9.2 0.256856
    endloop
  endfacet
  facet normal 0.587787 0 -0.809016
    outer loop
      vertex 28.2441 9.2 0.256856
      vertex 28.075 -9.2 0.133975
      vertex 28.075 9.2 0.133975
    endloop
  endfacet
  facet normal 0.994522 4.14676e-08 -0.104525
    outer loop
      vertex 28.5558 -9.2 0.817651
      vertex 28.5531 9.2 0.792089
      vertex 28.5723 9.2 0.974437
    endloop
  endfacet
  facet normal 0.994519 0 -0.104555
    outer loop
      vertex 28.5531 9.2 0.792089
      vertex 28.5558 -9.2 0.817651
      vertex 28.5531 -9.2 0.792089
    endloop
  endfacet
  facet normal 0.406739 0 -0.913545
    outer loop
      vertex 27.884 -9.2 0.0489435
      vertex 28.075 9.2 0.133975
      vertex 28.075 -9.2 0.133975
    endloop
  endfacet
  facet normal 0.406739 0 -0.913545
    outer loop
      vertex 28.075 9.2 0.133975
      vertex 27.884 -9.2 0.0489435
      vertex 27.884 9.2 0.0489435
    endloop
  endfacet
  facet normal 0.994523 0 0.104514
    outer loop
      vertex 32.9767 12.2 4.4356
      vertex 32.9767 9.2 4.4356
      vertex 32.9888 9.2 4.32057
    endloop
  endfacet
  facet normal 0.994522 -0 0.104525
    outer loop
      vertex 32.9767 -12.2 4.4356
      vertex 33.0629 -9.2 3.61503
      vertex 32.9767 -9.2 4.4356
    endloop
  endfacet
  facet normal 0.994522 7.22322e-07 0.104528
    outer loop
      vertex 33.0629 -9.2 3.61503
      vertex 32.9767 -12.2 4.4356
      vertex 33.075 -12.2 3.5
    endloop
  endfacet
  facet normal 0.951056 -0 0.309018
    outer loop
      vertex 32.686 9.2 5.33031
      vertex 32.9767 12.2 4.4356
      vertex 32.686 12.2 5.33031
    endloop
  endfacet
  facet normal 0.951056 0 0.309018
    outer loop
      vertex 32.9767 12.2 4.4356
      vertex 32.686 9.2 5.33031
      vertex 32.9767 9.2 4.4356
    endloop
  endfacet
  facet normal 0.951056 -0 0.309018
    outer loop
      vertex 32.686 -12.2 5.33031
      vertex 32.9767 -9.2 4.4356
      vertex 32.686 -9.2 5.33031
    endloop
  endfacet
  facet normal 0.951056 0 0.309018
    outer loop
      vertex 32.9767 -9.2 4.4356
      vertex 32.686 -12.2 5.33031
      vertex 32.9767 -12.2 4.4356
    endloop
  endfacet
  facet normal 0.994522 -5.38193e-07 0.104528
    outer loop
      vertex 32.9888 9.2 4.32057
      vertex 33.075 12.2 3.5
      vertex 32.9767 12.2 4.4356
    endloop
  endfacet
  facet normal 0.994522 0 0.10453
    outer loop
      vertex 33.075 12.2 3.5
      vertex 32.9888 9.2 4.32057
      vertex 33.075 9.2 3.5
    endloop
  endfacet
  facet normal 0.99452 0 0.104547
    outer loop
      vertex 33.075 -9.2 3.5
      vertex 33.0629 -9.2 3.61503
      vertex 33.075 -12.2 3.5
    endloop
  endfacet
  facet normal 0.743145 -0 0.66913
    outer loop
      vertex 31.5861 9.2 6.84415
      vertex 32.2156 12.2 6.14503
      vertex 31.5861 12.2 6.84415
    endloop
  endfacet
  facet normal 0.743145 0 0.66913
    outer loop
      vertex 32.2156 12.2 6.14503
      vertex 31.5861 9.2 6.84415
      vertex 32.2156 9.2 6.14503
    endloop
  endfacet
  facet normal 0.743145 -0 0.66913
    outer loop
      vertex 31.5861 -12.2 6.84415
      vertex 32.2156 -9.2 6.14503
      vertex 31.5861 -9.2 6.84415
    endloop
  endfacet
  facet normal 0.743145 0 0.66913
    outer loop
      vertex 32.2156 -9.2 6.14503
      vertex 31.5861 -12.2 6.84415
      vertex 32.2156 -12.2 6.14503
    endloop
  endfacet
  facet normal 0.866025 0 -0.500001
    outer loop
      vertex 32.686 9.2 1.66969
      vertex 32.2156 12.2 0.854967
      vertex 32.686 12.2 1.66969
    endloop
  endfacet
  facet normal 0.866025 0 -0.500001
    outer loop
      vertex 32.2156 12.2 0.854967
      vertex 32.686 9.2 1.66969
      vertex 32.2156 9.2 0.854967
    endloop
  endfacet
  facet normal 0.866025 0 -0.500001
    outer loop
      vertex 32.686 -12.2 1.66969
      vertex 32.2156 -9.2 0.854967
      vertex 32.686 -9.2 1.66969
    endloop
  endfacet
  facet normal 0.866025 0 -0.500001
    outer loop
      vertex 32.2156 -9.2 0.854967
      vertex 32.686 -12.2 1.66969
      vertex 32.2156 -12.2 0.854967
    endloop
  endfacet
  facet normal -0.951055 -5.8941e-07 -0.309021
    outer loop
      vertex 24.464 -8.7 1.66969
      vertex 24.3585 -9.2 1.99452
      vertex 24.3585 -8.7 1.99452
    endloop
  endfacet
  facet normal -0.951056 0 -0.30902
    outer loop
      vertex 24.464 -12.2 1.66969
      vertex 24.3585 -9.2 1.99452
      vertex 24.464 -8.7 1.66969
    endloop
  endfacet
  facet normal -0.951056 -1.45415e-07 -0.309019
    outer loop
      vertex 24.3517 -12.2 2.01553
      vertex 24.3585 -9.2 1.99452
      vertex 24.464 -12.2 1.66969
    endloop
  endfacet
  facet normal -0.951062 0 -0.309
    outer loop
      vertex 24.3585 -9.2 1.99452
      vertex 24.3517 -12.2 2.01553
      vertex 24.3517 -9.2 2.01553
    endloop
  endfacet
  facet normal -0.951056 1.45415e-07 -0.309019
    outer loop
      vertex 24.464 12.2 1.66969
      vertex 24.3585 9.2 1.99452
      vertex 24.3517 12.2 2.01553
    endloop
  endfacet
  facet normal -0.951056 0 -0.30902
    outer loop
      vertex 24.464 8.7 1.66969
      vertex 24.3585 9.2 1.99452
      vertex 24.464 12.2 1.66969
    endloop
  endfacet
  facet normal -0.951055 5.8941e-07 -0.309021
    outer loop
      vertex 24.3585 8.7 1.99452
      vertex 24.3585 9.2 1.99452
      vertex 24.464 8.7 1.66969
    endloop
  endfacet
  facet normal -1 0 0
    outer loop
      vertex 24.3585 -8.7 1.99452
      vertex 24.3585 9.2 1.99452
      vertex 24.3585 8.7 1.99452
    endloop
  endfacet
  facet normal -1 -0 0
    outer loop
      vertex 24.3585 9.2 1.99452
      vertex 24.3585 -8.7 1.99452
      vertex 24.3585 -9.2 1.99452
    endloop
  endfacet
  facet normal -0.951062 -0 -0.309
    outer loop
      vertex 24.3517 12.2 2.01553
      vertex 24.3585 9.2 1.99452
      vertex 24.3517 9.2 2.01553
    endloop
  endfacet
  facet normal 0 1 -0
    outer loop
      vertex 29.425 12.2 5.17224
      vertex 29.0454 12.2 7.97535
      vertex 29.9656 12.2 7.77975
    endloop
  endfacet
  facet normal 0 1 0
    outer loop
      vertex 29.0454 12.2 7.97535
      vertex 29.425 12.2 5.17224
      vertex 28.1046 12.2 7.97535
    endloop
  endfacet
  facet normal 0 1 0
    outer loop
      vertex 29.425 12.2 5.17224
      vertex 29.9656 12.2 7.77975
      vertex 30.825 12.2 7.39711
    endloop
  endfacet
  facet normal 0 1 0
    outer loop
      vertex 28.1046 12.2 7.97535
      vertex 29.425 12.2 5.17224
      vertex 27.1844 12.2 7.77975
    endloop
  endfacet
  facet normal 0 1 0
    outer loop
      vertex 27.1844 12.2 7.77975
      vertex 29.425 12.2 5.17224
      vertex 26.325 12.2 7.39711
    endloop
  endfacet
  facet normal 0 1 0
    outer loop
      vertex 29.7125 12.2 4.96335
      vertex 30.825 12.2 7.39711
      vertex 31.5861 12.2 6.84415
    endloop
  endfacet
  facet normal 0 1 0
    outer loop
      vertex 29.9503 12.2 4.69923
      vertex 31.5861 12.2 6.84415
      vertex 32.2156 12.2 6.14503
    endloop
  endfacet
  facet normal 0 1 0
    outer loop
      vertex 30.128 12.2 4.39145
      vertex 32.2156 12.2 6.14503
      vertex 32.686 12.2 5.33031
    endloop
  endfacet
  facet normal 0 1 0
    outer loop
      vertex 26.325 12.2 7.39711
      vertex 29.425 12.2 5.17224
      vertex 26.1248 12.2 7.25166
    endloop
  endfacet
  facet normal 0 1 0
    outer loop
      vertex 30.825 12.2 7.39711
      vertex 29.7125 12.2 4.96335
      vertex 29.425 12.2 5.17224
    endloop
  endfacet
  facet normal 0 1 0
    outer loop
      vertex 31.5861 12.2 6.84415
      vertex 29.9503 12.2 4.69923
      vertex 29.7125 12.2 4.96335
    endloop
  endfacet
  facet normal 0 1 0
    outer loop
      vertex 30.2379 12.2 4.05345
      vertex 32.686 12.2 5.33031
      vertex 32.9767 12.2 4.4356
    endloop
  endfacet
  facet normal 0 1 0
    outer loop
      vertex 32.2156 12.2 6.14503
      vertex 30.128 12.2 4.39145
      vertex 29.9503 12.2 4.69923
    endloop
  endfacet
  facet normal 0 1 0
    outer loop
      vertex 32.686 12.2 5.33031
      vertex 30.2379 12.2 4.05345
      vertex 30.128 12.2 4.39145
    endloop
  endfacet
  facet normal 0 1 0
    outer loop
      vertex 32.9767 12.2 4.4356
      vertex 30.275 12.2 3.7
      vertex 30.2379 12.2 4.05345
    endloop
  endfacet
  facet normal 0 1 0
    outer loop
      vertex 33.075 12.2 3.5
      vertex 30.275 12.2 3.7
      vertex 32.9767 12.2 4.4356
    endloop
  endfacet
  facet normal 0 1 0
    outer loop
      vertex 33.075 12.2 3.5
      vertex 30.2379 12.2 3.34655
      vertex 30.275 12.2 3.7
    endloop
  endfacet
  facet normal 0 1 -0
    outer loop
      vertex 32.9767 12.2 2.5644
      vertex 30.2379 12.2 3.34655
      vertex 33.075 12.2 3.5
    endloop
  endfacet
  facet normal 0 1 0
    outer loop
      vertex 30.2379 12.2 3.34655
      vertex 32.9767 12.2 2.5644
      vertex 30.128 12.2 3.00855
    endloop
  endfacet
  facet normal 0 1 -0
    outer loop
      vertex 32.686 12.2 1.66969
      vertex 30.128 12.2 3.00855
      vertex 32.9767 12.2 2.5644
    endloop
  endfacet
  facet normal 0 1 0
    outer loop
      vertex 30.128 12.2 3.00855
      vertex 32.686 12.2 1.66969
      vertex 29.9503 12.2 2.70076
    endloop
  endfacet
  facet normal 0 1 -0
    outer loop
      vertex 32.2156 12.2 0.854967
      vertex 29.9503 12.2 2.70076
      vertex 32.686 12.2 1.66969
    endloop
  endfacet
  facet normal 0 1 0
    outer loop
      vertex 29.9503 12.2 2.70076
      vertex 32.2156 12.2 0.854967
      vertex 29.7125 12.2 2.43665
    endloop
  endfacet
  facet normal 0 1 -0
    outer loop
      vertex 31.5861 12.2 0.155849
      vertex 29.7125 12.2 2.43665
      vertex 32.2156 12.2 0.854967
    endloop
  endfacet
  facet normal 0 1 0
    outer loop
      vertex 29.7125 12.2 2.43665
      vertex 31.3716 12.2 0
      vertex 29.425 12.2 2.22776
    endloop
  endfacet
  facet normal 0 1 -0
    outer loop
      vertex 31.3716 12.2 0
      vertex 29.7125 12.2 2.43665
      vertex 31.5861 12.2 0.155849
    endloop
  endfacet
  facet normal 0 1 0
    outer loop
      vertex 29.425 12.2 2.22776
      vertex 31.3716 12.2 0
      vertex 29.1003 12.2 2.0832
    endloop
  endfacet
  facet normal 0 1 0
    outer loop
      vertex 25.7784 12.2 0
      vertex 28.3973 12.2 2.00931
      vertex 31.3716 12.2 0
    endloop
  endfacet
  facet normal 0 1 0
    outer loop
      vertex 29.1003 12.2 2.0832
      vertex 31.3716 12.2 0
      vertex 28.7527 12.2 2.00931
    endloop
  endfacet
  facet normal -0 1 0
    outer loop
      vertex 25.5639 12.2 0.155849
      vertex 28.3973 12.2 2.00931
      vertex 25.7784 12.2 0
    endloop
  endfacet
  facet normal 0 1 0
    outer loop
      vertex 28.7527 12.2 2.00931
      vertex 31.3716 12.2 0
      vertex 28.3973 12.2 2.00931
    endloop
  endfacet
  facet normal -0 1 0
    outer loop
      vertex 24.464 12.2 1.66969
      vertex 28.3973 12.2 2.00931
      vertex 24.9344 12.2 0.854967
    endloop
  endfacet
  facet normal 0 1 0
    outer loop
      vertex 28.3973 12.2 2.00931
      vertex 24.464 12.2 1.66969
      vertex 24.3517 12.2 2.01553
    endloop
  endfacet
  facet normal 0 1 0
    outer loop
      vertex 28.3973 12.2 2.00931
      vertex 25.5639 12.2 0.155849
      vertex 24.9344 12.2 0.854967
    endloop
  endfacet
  facet normal 0.406736 0 0.913546
    outer loop
      vertex 29.9656 -9.2 7.77975
      vertex 30.825 -12.2 7.39711
      vertex 30.825 -9.2 7.39711
    endloop
  endfacet
  facet normal 0.406736 0 0.913546
    outer loop
      vertex 30.825 -12.2 7.39711
      vertex 29.9656 -9.2 7.77975
      vertex 29.9656 -12.2 7.77975
    endloop
  endfacet
  facet normal 0.406736 0 0.913546
    outer loop
      vertex 29.9656 12.2 7.77975
      vertex 30.825 9.2 7.39711
      vertex 30.825 12.2 7.39711
    endloop
  endfacet
  facet normal 0.406736 0 0.913546
    outer loop
      vertex 30.825 9.2 7.39711
      vertex 29.9656 12.2 7.77975
      vertex 29.9656 9.2 7.77975
    endloop
  endfacet
  facet normal 0.587785 0 0.809017
    outer loop
      vertex 30.825 12.2 7.39711
      vertex 31.5861 9.2 6.84415
      vertex 31.5861 12.2 6.84415
    endloop
  endfacet
  facet normal 0.587785 0 0.809017
    outer loop
      vertex 31.5861 9.2 6.84415
      vertex 30.825 12.2 7.39711
      vertex 30.825 9.2 7.39711
    endloop
  endfacet
  facet normal 0.587785 0 0.809017
    outer loop
      vertex 30.825 -9.2 7.39711
      vertex 31.5861 -12.2 6.84415
      vertex 31.5861 -9.2 6.84415
    endloop
  endfacet
  facet normal 0.587785 0 0.809017
    outer loop
      vertex 31.5861 -12.2 6.84415
      vertex 30.825 -9.2 7.39711
      vertex 30.825 -12.2 7.39711
    endloop
  endfacet
  facet normal 0.951056 0 -0.309018
    outer loop
      vertex 32.9767 9.2 2.5644
      vertex 32.686 12.2 1.66969
      vertex 32.9767 12.2 2.5644
    endloop
  endfacet
  facet normal 0.951056 0 -0.309018
    outer loop
      vertex 32.686 12.2 1.66969
      vertex 32.9767 9.2 2.5644
      vertex 32.686 9.2 1.66969
    endloop
  endfacet
  facet normal 0.951056 0 -0.309018
    outer loop
      vertex 32.9767 -12.2 2.5644
      vertex 32.686 -9.2 1.66969
      vertex 32.9767 -9.2 2.5644
    endloop
  endfacet
  facet normal 0.951056 0 -0.309018
    outer loop
      vertex 32.686 -9.2 1.66969
      vertex 32.9767 -12.2 2.5644
      vertex 32.686 -12.2 1.66969
    endloop
  endfacet
  facet normal -0.587788 0 -0.809015
    outer loop
      vertex 25.7709 8.7 0.00547886
      vertex 25.5639 8.7 0.155849
      vertex 25.7709 9.2 0.00547886
    endloop
  endfacet
  facet normal -0.587752 0 -0.809041
    outer loop
      vertex 25.7709 9.2 0.00547886
      vertex 25.7784 12.2 0
      vertex 25.7784 9.2 0
    endloop
  endfacet
  facet normal -0.587788 -0 -0.809015
    outer loop
      vertex 25.5639 12.2 0.155849
      vertex 25.7709 9.2 0.00547886
      vertex 25.5639 8.7 0.155849
    endloop
  endfacet
  facet normal -0.587787 1.34443e-07 -0.809016
    outer loop
      vertex 25.7709 9.2 0.00547886
      vertex 25.5639 12.2 0.155849
      vertex 25.7784 12.2 0
    endloop
  endfacet
  facet normal -0.587752 0 -0.809041
    outer loop
      vertex 25.7784 -12.2 0
      vertex 25.7709 -9.2 0.00547886
      vertex 25.7784 -9.2 0
    endloop
  endfacet
  facet normal -0.587787 -1.34443e-07 -0.809016
    outer loop
      vertex 25.5639 -12.2 0.155849
      vertex 25.7709 -9.2 0.00547886
      vertex 25.7784 -12.2 0
    endloop
  endfacet
  facet normal -0.587788 -0 -0.809015
    outer loop
      vertex 25.5639 -8.7 0.155849
      vertex 25.7709 -9.2 0.00547886
      vertex 25.5639 -12.2 0.155849
    endloop
  endfacet
  facet normal -0.587788 0 -0.809015
    outer loop
      vertex 25.7709 -9.2 0.00547886
      vertex 25.5639 -8.7 0.155849
      vertex 25.7709 -8.7 0.00547886
    endloop
  endfacet
  facet normal 0.866025 -0 0.500001
    outer loop
      vertex 32.2156 9.2 6.14503
      vertex 32.686 12.2 5.33031
      vertex 32.2156 12.2 6.14503
    endloop
  endfacet
  facet normal 0.866025 0 0.500001
    outer loop
      vertex 32.686 12.2 5.33031
      vertex 32.2156 9.2 6.14503
      vertex 32.686 9.2 5.33031
    endloop
  endfacet
  facet normal 0.866025 -0 0.500001
    outer loop
      vertex 32.2156 -12.2 6.14503
      vertex 32.686 -9.2 5.33031
      vertex 32.2156 -9.2 6.14503
    endloop
  endfacet
  facet normal 0.866025 0 0.500001
    outer loop
      vertex 32.686 -9.2 5.33031
      vertex 32.2156 -12.2 6.14503
      vertex 32.686 -12.2 5.33031
    endloop
  endfacet
  facet normal 0.207912 0 0.978147
    outer loop
      vertex 29.0454 12.2 7.97535
      vertex 29.9656 9.2 7.77975
      vertex 29.9656 12.2 7.77975
    endloop
  endfacet
  facet normal 0.207912 0 0.978147
    outer loop
      vertex 29.9656 9.2 7.77975
      vertex 29.0454 12.2 7.97535
      vertex 29.0454 9.2 7.97535
    endloop
  endfacet
  facet normal 0.207912 0 0.978147
    outer loop
      vertex 29.0454 -9.2 7.97535
      vertex 29.9656 -12.2 7.77975
      vertex 29.9656 -9.2 7.77975
    endloop
  endfacet
  facet normal 0.207912 0 0.978147
    outer loop
      vertex 29.9656 -12.2 7.77975
      vertex 29.0454 -9.2 7.97535
      vertex 29.0454 -12.2 7.97535
    endloop
  endfacet
  facet normal -0 0 1
    outer loop
      vertex 28.1046 12.2 7.97535
      vertex 29.0454 9.2 7.97535
      vertex 29.0454 12.2 7.97535
    endloop
  endfacet
  facet normal 0 0 1
    outer loop
      vertex 29.0454 9.2 7.97535
      vertex 28.1046 12.2 7.97535
      vertex 28.1046 9.2 7.97535
    endloop
  endfacet
  facet normal -0 0 1
    outer loop
      vertex 28.1046 -9.2 7.97535
      vertex 29.0454 -12.2 7.97535
      vertex 29.0454 -9.2 7.97535
    endloop
  endfacet
  facet normal 0 0 1
    outer loop
      vertex 29.0454 -12.2 7.97535
      vertex 28.1046 -9.2 7.97535
      vertex 28.1046 -12.2 7.97535
    endloop
  endfacet
  facet normal -0.587784 0 0.809018
    outer loop
      vertex 26.1248 -9.2 7.25166
      vertex 26.325 -12.2 7.39711
      vertex 26.325 -9.2 7.39711
    endloop
  endfacet
  facet normal -0.587784 0 0.809018
    outer loop
      vertex 26.325 -12.2 7.39711
      vertex 26.1248 -9.2 7.25166
      vertex 26.1248 -12.2 7.25166
    endloop
  endfacet
  facet normal -0.587784 0 0.809018
    outer loop
      vertex 26.1248 12.2 7.25166
      vertex 26.325 9.2 7.39711
      vertex 26.325 12.2 7.39711
    endloop
  endfacet
  facet normal -0.587784 0 0.809018
    outer loop
      vertex 26.325 9.2 7.39711
      vertex 26.1248 12.2 7.25166
      vertex 26.1248 9.2 7.25166
    endloop
  endfacet
  facet normal -0.207912 0 0.978147
    outer loop
      vertex 27.1844 12.2 7.77975
      vertex 28.1046 9.2 7.97535
      vertex 28.1046 12.2 7.97535
    endloop
  endfacet
  facet normal -0.207912 0 0.978147
    outer loop
      vertex 28.1046 9.2 7.97535
      vertex 27.1844 12.2 7.77975
      vertex 27.1844 9.2 7.77975
    endloop
  endfacet
  facet normal -0.207912 0 0.978147
    outer loop
      vertex 27.1844 -9.2 7.77975
      vertex 28.1046 -12.2 7.97535
      vertex 28.1046 -9.2 7.97535
    endloop
  endfacet
  facet normal -0.207912 0 0.978147
    outer loop
      vertex 28.1046 -12.2 7.97535
      vertex 27.1844 -9.2 7.77975
      vertex 27.1844 -12.2 7.77975
    endloop
  endfacet
  facet normal 0.587783 0 -0.809018
    outer loop
      vertex 31.3716 9.2 0
      vertex 31.5861 12.2 0.155849
      vertex 31.5861 9.2 0.155849
    endloop
  endfacet
  facet normal 0.587783 0 -0.809018
    outer loop
      vertex 31.5861 12.2 0.155849
      vertex 31.3716 9.2 0
      vertex 31.3716 12.2 0
    endloop
  endfacet
  facet normal 0.587783 0 -0.809018
    outer loop
      vertex 31.3716 -12.2 0
      vertex 31.5861 -9.2 0.155849
      vertex 31.5861 -12.2 0.155849
    endloop
  endfacet
  facet normal 0.587783 0 -0.809018
    outer loop
      vertex 31.5861 -9.2 0.155849
      vertex 31.3716 -12.2 0
      vertex 31.3716 -9.2 0
    endloop
  endfacet
  facet normal 0.743145 0 -0.66913
    outer loop
      vertex 32.2156 9.2 0.854967
      vertex 31.5861 12.2 0.155849
      vertex 32.2156 12.2 0.854967
    endloop
  endfacet
  facet normal 0.743145 0 -0.66913
    outer loop
      vertex 31.5861 12.2 0.155849
      vertex 32.2156 9.2 0.854967
      vertex 31.5861 9.2 0.155849
    endloop
  endfacet
  facet normal 0.743145 0 -0.66913
    outer loop
      vertex 32.2156 -12.2 0.854967
      vertex 31.5861 -9.2 0.155849
      vertex 32.2156 -9.2 0.854967
    endloop
  endfacet
  facet normal 0.743145 0 -0.66913
    outer loop
      vertex 31.5861 -9.2 0.155849
      vertex 32.2156 -12.2 0.854967
      vertex 31.5861 -12.2 0.155849
    endloop
  endfacet
  facet normal 0.994522 -7.22322e-07 -0.104528
    outer loop
      vertex 33.0629 9.2 3.38497
      vertex 32.9767 12.2 2.5644
      vertex 33.075 12.2 3.5
    endloop
  endfacet
  facet normal 0.994522 0 -0.104525
    outer loop
      vertex 32.9767 12.2 2.5644
      vertex 33.0629 9.2 3.38497
      vertex 32.9767 9.2 2.5644
    endloop
  endfacet
  facet normal 0.994523 0 -0.104514
    outer loop
      vertex 32.9888 -9.2 2.67943
      vertex 32.9767 -12.2 2.5644
      vertex 32.9767 -9.2 2.5644
    endloop
  endfacet
  facet normal 0.994522 0 -0.10453
    outer loop
      vertex 33.075 -12.2 3.5
      vertex 32.9888 -9.2 2.67943
      vertex 33.075 -9.2 3.5
    endloop
  endfacet
  facet normal 0.994522 5.38193e-07 -0.104528
    outer loop
      vertex 32.9888 -9.2 2.67943
      vertex 33.075 -12.2 3.5
      vertex 32.9767 -12.2 2.5644
    endloop
  endfacet
  facet normal 0.99452 0 -0.104547
    outer loop
      vertex 33.075 9.2 3.5
      vertex 33.0629 9.2 3.38497
      vertex 33.075 12.2 3.5
    endloop
  endfacet
  facet normal -0.866026 0 -0.499999
    outer loop
      vertex 24.9344 8.7 0.854967
      vertex 24.464 12.2 1.66969
      vertex 24.9344 12.2 0.854967
    endloop
  endfacet
  facet normal -0.866026 -0 -0.499999
    outer loop
      vertex 24.464 12.2 1.66969
      vertex 24.9344 8.7 0.854967
      vertex 24.464 8.7 1.66969
    endloop
  endfacet
  facet normal -0.866026 0 -0.499999
    outer loop
      vertex 24.9344 -12.2 0.854967
      vertex 24.464 -8.7 1.66969
      vertex 24.9344 -8.7 0.854967
    endloop
  endfacet
  facet normal -0.866026 -0 -0.499999
    outer loop
      vertex 24.464 -8.7 1.66969
      vertex 24.9344 -12.2 0.854967
      vertex 24.464 -12.2 1.66969
    endloop
  endfacet
  facet normal -0.743144 0 -0.669131
    outer loop
      vertex 25.5639 8.7 0.155849
      vertex 24.9344 12.2 0.854967
      vertex 25.5639 12.2 0.155849
    endloop
  endfacet
  facet normal -0.743144 -0 -0.669131
    outer loop
      vertex 24.9344 12.2 0.854967
      vertex 25.5639 8.7 0.155849
      vertex 24.9344 8.7 0.854967
    endloop
  endfacet
  facet normal -0.743144 0 -0.669131
    outer loop
      vertex 25.5639 -12.2 0.155849
      vertex 24.9344 -8.7 0.854967
      vertex 25.5639 -8.7 0.155849
    endloop
  endfacet
  facet normal -0.743144 -0 -0.669131
    outer loop
      vertex 24.9344 -8.7 0.854967
      vertex 25.5639 -12.2 0.155849
      vertex 24.9344 -12.2 0.854967
    endloop
  endfacet
  facet normal -0.406737 0 0.913545
    outer loop
      vertex 26.325 -9.2 7.39711
      vertex 27.1844 -12.2 7.77975
      vertex 27.1844 -9.2 7.77975
    endloop
  endfacet
  facet normal -0.406737 0 0.913545
    outer loop
      vertex 27.1844 -12.2 7.77975
      vertex 26.325 -9.2 7.39711
      vertex 26.325 -12.2 7.39711
    endloop
  endfacet
  facet normal -0.406737 0 0.913545
    outer loop
      vertex 26.325 12.2 7.39711
      vertex 27.1844 9.2 7.77975
      vertex 27.1844 12.2 7.77975
    endloop
  endfacet
  facet normal -0.406737 0 0.913545
    outer loop
      vertex 27.1844 9.2 7.77975
      vertex 26.325 12.2 7.39711
      vertex 26.325 9.2 7.39711
    endloop
  endfacet
  facet normal 0 -1 0
    outer loop
      vertex 24.9344 -12.2 0.854967
      vertex 28.3973 -12.2 2.00931
      vertex 24.464 -12.2 1.66969
    endloop
  endfacet
  facet normal 0 -1 0
    outer loop
      vertex 24.464 -12.2 1.66969
      vertex 28.3973 -12.2 2.00931
      vertex 24.3517 -12.2 2.01553
    endloop
  endfacet
  facet normal 0 -1 0
    outer loop
      vertex 29.425 -12.2 5.17224
      vertex 28.1046 -12.2 7.97535
      vertex 27.1844 -12.2 7.77975
    endloop
  endfacet
  facet normal 0 -1 0
    outer loop
      vertex 28.1046 -12.2 7.97535
      vertex 29.425 -12.2 5.17224
      vertex 29.0454 -12.2 7.97535
    endloop
  endfacet
  facet normal 0 -1 0
    outer loop
      vertex 29.425 -12.2 5.17224
      vertex 27.1844 -12.2 7.77975
      vertex 26.325 -12.2 7.39711
    endloop
  endfacet
  facet normal 0 -1 0
    outer loop
      vertex 29.0454 -12.2 7.97535
      vertex 29.425 -12.2 5.17224
      vertex 29.9656 -12.2 7.77975
    endloop
  endfacet
  facet normal 0 -1 0
    outer loop
      vertex 29.425 -12.2 5.17224
      vertex 26.325 -12.2 7.39711
      vertex 26.1248 -12.2 7.25166
    endloop
  endfacet
  facet normal 0 -1 -0
    outer loop
      vertex 29.9656 -12.2 7.77975
      vertex 29.425 -12.2 5.17224
      vertex 30.825 -12.2 7.39711
    endloop
  endfacet
  facet normal 0 -1 0
    outer loop
      vertex 29.7125 -12.2 4.96335
      vertex 30.825 -12.2 7.39711
      vertex 29.425 -12.2 5.17224
    endloop
  endfacet
  facet normal 0 -1 -0
    outer loop
      vertex 30.825 -12.2 7.39711
      vertex 29.7125 -12.2 4.96335
      vertex 31.5861 -12.2 6.84415
    endloop
  endfacet
  facet normal 0 -1 0
    outer loop
      vertex 29.9503 -12.2 4.69923
      vertex 31.5861 -12.2 6.84415
      vertex 29.7125 -12.2 4.96335
    endloop
  endfacet
  facet normal 0 -1 -0
    outer loop
      vertex 31.5861 -12.2 6.84415
      vertex 29.9503 -12.2 4.69923
      vertex 32.2156 -12.2 6.14503
    endloop
  endfacet
  facet normal 0 -1 0
    outer loop
      vertex 30.128 -12.2 4.39145
      vertex 32.2156 -12.2 6.14503
      vertex 29.9503 -12.2 4.69923
    endloop
  endfacet
  facet normal 0 -1 -0
    outer loop
      vertex 32.2156 -12.2 6.14503
      vertex 30.128 -12.2 4.39145
      vertex 32.686 -12.2 5.33031
    endloop
  endfacet
  facet normal 0 -1 0
    outer loop
      vertex 30.2379 -12.2 4.05345
      vertex 32.686 -12.2 5.33031
      vertex 30.128 -12.2 4.39145
    endloop
  endfacet
  facet normal 0 -1 -0
    outer loop
      vertex 32.686 -12.2 5.33031
      vertex 30.2379 -12.2 4.05345
      vertex 32.9767 -12.2 4.4356
    endloop
  endfacet
  facet normal 0 -1 0
    outer loop
      vertex 30.275 -12.2 3.7
      vertex 32.9767 -12.2 4.4356
      vertex 30.2379 -12.2 4.05345
    endloop
  endfacet
  facet normal 0 -1 0
    outer loop
      vertex 30.275 -12.2 3.7
      vertex 33.075 -12.2 3.5
      vertex 32.9767 -12.2 4.4356
    endloop
  endfacet
  facet normal 0 -1 0
    outer loop
      vertex 30.2379 -12.2 3.34655
      vertex 33.075 -12.2 3.5
      vertex 30.275 -12.2 3.7
    endloop
  endfacet
  facet normal 0 -1 0
    outer loop
      vertex 32.9767 -12.2 2.5644
      vertex 30.2379 -12.2 3.34655
      vertex 30.128 -12.2 3.00855
    endloop
  endfacet
  facet normal 0 -1 0
    outer loop
      vertex 32.686 -12.2 1.66969
      vertex 30.128 -12.2 3.00855
      vertex 29.9503 -12.2 2.70076
    endloop
  endfacet
  facet normal 0 -1 0
    outer loop
      vertex 30.2379 -12.2 3.34655
      vertex 32.9767 -12.2 2.5644
      vertex 33.075 -12.2 3.5
    endloop
  endfacet
  facet normal 0 -1 0
    outer loop
      vertex 32.2156 -12.2 0.854967
      vertex 29.9503 -12.2 2.70076
      vertex 29.7125 -12.2 2.43665
    endloop
  endfacet
  facet normal 0 -1 0
    outer loop
      vertex 31.3716 -12.2 0
      vertex 29.7125 -12.2 2.43665
      vertex 29.425 -12.2 2.22776
    endloop
  endfacet
  facet normal 0 -1 0
    outer loop
      vertex 31.3716 -12.2 0
      vertex 29.425 -12.2 2.22776
      vertex 29.1003 -12.2 2.0832
    endloop
  endfacet
  facet normal 0 -1 0
    outer loop
      vertex 31.3716 -12.2 0
      vertex 29.1003 -12.2 2.0832
      vertex 28.7527 -12.2 2.00931
    endloop
  endfacet
  facet normal 0 -1 0
    outer loop
      vertex 30.128 -12.2 3.00855
      vertex 32.686 -12.2 1.66969
      vertex 32.9767 -12.2 2.5644
    endloop
  endfacet
  facet normal 0 -1 0
    outer loop
      vertex 25.5639 -12.2 0.155849
      vertex 28.3973 -12.2 2.00931
      vertex 24.9344 -12.2 0.854967
    endloop
  endfacet
  facet normal 0 -1 0
    outer loop
      vertex 25.7784 -12.2 0
      vertex 28.3973 -12.2 2.00931
      vertex 25.5639 -12.2 0.155849
    endloop
  endfacet
  facet normal 0 -1 0
    outer loop
      vertex 31.3716 -12.2 0
      vertex 28.7527 -12.2 2.00931
      vertex 25.7784 -12.2 0
    endloop
  endfacet
  facet normal 0 -1 -0
    outer loop
      vertex 28.3973 -12.2 2.00931
      vertex 25.7784 -12.2 0
      vertex 28.7527 -12.2 2.00931
    endloop
  endfacet
  facet normal 0 -1 0
    outer loop
      vertex 29.7125 -12.2 2.43665
      vertex 31.3716 -12.2 0
      vertex 31.5861 -12.2 0.155849
    endloop
  endfacet
  facet normal 0 -1 0
    outer loop
      vertex 29.9503 -12.2 2.70076
      vertex 32.2156 -12.2 0.854967
      vertex 32.686 -12.2 1.66969
    endloop
  endfacet
  facet normal 0 -1 0
    outer loop
      vertex 29.7125 -12.2 2.43665
      vertex 31.5861 -12.2 0.155849
      vertex 32.2156 -12.2 0.854967
    endloop
  endfacet
  facet normal -0.994522 0 -0.104529
    outer loop
      vertex 30.275 -12.2 3.7
      vertex 30.2379 -9.2 4.05345
      vertex 30.275 -9.2 3.7
    endloop
  endfacet
  facet normal -0.994522 -0 -0.104529
    outer loop
      vertex 30.2379 -9.2 4.05345
      vertex 30.275 -12.2 3.7
      vertex 30.2379 -12.2 4.05345
    endloop
  endfacet
  facet normal -0.994522 0 -0.104529
    outer loop
      vertex 30.275 9.2 3.7
      vertex 30.2379 12.2 4.05345
      vertex 30.275 12.2 3.7
    endloop
  endfacet
  facet normal -0.994522 -0 -0.104529
    outer loop
      vertex 30.2379 12.2 4.05345
      vertex 30.275 9.2 3.7
      vertex 30.2379 9.2 4.05345
    endloop
  endfacet
  facet normal -0.587785 0 -0.809017
    outer loop
      vertex 29.425 -12.2 5.17224
      vertex 29.7125 -9.2 4.96335
      vertex 29.7125 -12.2 4.96335
    endloop
  endfacet
  facet normal -0.587785 0 -0.809017
    outer loop
      vertex 29.7125 -9.2 4.96335
      vertex 29.425 -12.2 5.17224
      vertex 29.425 -9.2 5.17224
    endloop
  endfacet
  facet normal -0.587785 0 -0.809017
    outer loop
      vertex 29.425 9.2 5.17224
      vertex 29.7125 12.2 4.96335
      vertex 29.7125 9.2 4.96335
    endloop
  endfacet
  facet normal -0.587785 0 -0.809017
    outer loop
      vertex 29.7125 12.2 4.96335
      vertex 29.425 9.2 5.17224
      vertex 29.425 12.2 5.17224
    endloop
  endfacet
  facet normal -0.866025 0 -0.5
    outer loop
      vertex 30.128 -12.2 4.39145
      vertex 29.9503 -9.2 4.69923
      vertex 30.128 -9.2 4.39145
    endloop
  endfacet
  facet normal -0.866025 -0 -0.5
    outer loop
      vertex 29.9503 -9.2 4.69923
      vertex 30.128 -12.2 4.39145
      vertex 29.9503 -12.2 4.69923
    endloop
  endfacet
  facet normal -0.866025 0 -0.5
    outer loop
      vertex 30.128 9.2 4.39145
      vertex 29.9503 12.2 4.69923
      vertex 30.128 12.2 4.39145
    endloop
  endfacet
  facet normal -0.866025 -0 -0.5
    outer loop
      vertex 29.9503 12.2 4.69923
      vertex 30.128 9.2 4.39145
      vertex 29.9503 9.2 4.69923
    endloop
  endfacet
  facet normal 0.00153607 0 0.999999
    outer loop
      vertex 24.3517 12.2 2.01553
      vertex 28.3973 9.2 2.00931
      vertex 28.3973 12.2 2.00931
    endloop
  endfacet
  facet normal 0.00153607 0 0.999999
    outer loop
      vertex 28.3973 9.2 2.00931
      vertex 24.3517 12.2 2.01553
      vertex 24.3517 9.2 2.01553
    endloop
  endfacet
  facet normal 0.00153607 0 0.999999
    outer loop
      vertex 24.3517 -9.2 2.01553
      vertex 28.3973 -12.2 2.00931
      vertex 28.3973 -9.2 2.00931
    endloop
  endfacet
  facet normal 0.00153607 0 0.999999
    outer loop
      vertex 28.3973 -12.2 2.00931
      vertex 24.3517 -9.2 2.01553
      vertex 24.3517 -12.2 2.01553
    endloop
  endfacet
  facet normal -0.53309 0 -0.846058
    outer loop
      vertex 26.1248 -12.2 7.25166
      vertex 29.425 -9.2 5.17224
      vertex 29.425 -12.2 5.17224
    endloop
  endfacet
  facet normal -0.53309 0 -0.846058
    outer loop
      vertex 29.425 -9.2 5.17224
      vertex 26.1248 -12.2 7.25166
      vertex 26.1248 -9.2 7.25166
    endloop
  endfacet
  facet normal -0.53309 0 -0.846058
    outer loop
      vertex 26.1248 9.2 7.25166
      vertex 29.425 12.2 5.17224
      vertex 29.425 9.2 5.17224
    endloop
  endfacet
  facet normal -0.53309 0 -0.846058
    outer loop
      vertex 29.425 12.2 5.17224
      vertex 26.1248 9.2 7.25166
      vertex 26.1248 12.2 7.25166
    endloop
  endfacet
  facet normal -0.951057 0 -0.309016
    outer loop
      vertex 30.2379 -12.2 4.05345
      vertex 30.128 -9.2 4.39145
      vertex 30.2379 -9.2 4.05345
    endloop
  endfacet
  facet normal -0.951057 -0 -0.309016
    outer loop
      vertex 30.128 -9.2 4.39145
      vertex 30.2379 -12.2 4.05345
      vertex 30.128 -12.2 4.39145
    endloop
  endfacet
  facet normal -0.951057 0 -0.309016
    outer loop
      vertex 30.2379 9.2 4.05345
      vertex 30.128 12.2 4.39145
      vertex 30.2379 12.2 4.05345
    endloop
  endfacet
  facet normal -0.951057 -0 -0.309016
    outer loop
      vertex 30.128 12.2 4.39145
      vertex 30.2379 9.2 4.05345
      vertex 30.128 9.2 4.39145
    endloop
  endfacet
  facet normal -0.866025 0 0.5
    outer loop
      vertex 29.9503 -12.2 2.70076
      vertex 30.128 -9.2 3.00855
      vertex 29.9503 -9.2 2.70076
    endloop
  endfacet
  facet normal -0.866025 0 0.5
    outer loop
      vertex 30.128 -9.2 3.00855
      vertex 29.9503 -12.2 2.70076
      vertex 30.128 -12.2 3.00855
    endloop
  endfacet
  facet normal -0.866025 0 0.5
    outer loop
      vertex 29.9503 9.2 2.70076
      vertex 30.128 12.2 3.00855
      vertex 29.9503 12.2 2.70076
    endloop
  endfacet
  facet normal -0.866025 0 0.5
    outer loop
      vertex 30.128 12.2 3.00855
      vertex 29.9503 9.2 2.70076
      vertex 30.128 9.2 3.00855
    endloop
  endfacet
  facet normal -0.207911 0 0.978148
    outer loop
      vertex 28.7527 -9.2 2.00931
      vertex 29.1003 -12.2 2.0832
      vertex 29.1003 -9.2 2.0832
    endloop
  endfacet
  facet normal -0.207911 0 0.978148
    outer loop
      vertex 29.1003 -12.2 2.0832
      vertex 28.7527 -9.2 2.00931
      vertex 28.7527 -12.2 2.00931
    endloop
  endfacet
  facet normal -0.207911 0 0.978148
    outer loop
      vertex 28.7527 12.2 2.00931
      vertex 29.1003 9.2 2.0832
      vertex 29.1003 12.2 2.0832
    endloop
  endfacet
  facet normal -0.207911 0 0.978148
    outer loop
      vertex 29.1003 9.2 2.0832
      vertex 28.7527 12.2 2.00931
      vertex 28.7527 9.2 2.00931
    endloop
  endfacet
  facet normal -0.743146 0 -0.669129
    outer loop
      vertex 29.9503 -12.2 4.69923
      vertex 29.7125 -9.2 4.96335
      vertex 29.9503 -9.2 4.69923
    endloop
  endfacet
  facet normal -0.743146 -0 -0.669129
    outer loop
      vertex 29.7125 -9.2 4.96335
      vertex 29.9503 -12.2 4.69923
      vertex 29.7125 -12.2 4.96335
    endloop
  endfacet
  facet normal -0.743146 0 -0.669129
    outer loop
      vertex 29.9503 9.2 4.69923
      vertex 29.7125 12.2 4.96335
      vertex 29.9503 12.2 4.69923
    endloop
  endfacet
  facet normal -0.743146 -0 -0.669129
    outer loop
      vertex 29.7125 12.2 4.96335
      vertex 29.9503 9.2 4.69923
      vertex 29.7125 9.2 4.96335
    endloop
  endfacet
  facet normal -0 0 1
    outer loop
      vertex 28.3973 -9.2 2.00931
      vertex 28.7527 -12.2 2.00931
      vertex 28.7527 -9.2 2.00931
    endloop
  endfacet
  facet normal 0 0 1
    outer loop
      vertex 28.7527 -12.2 2.00931
      vertex 28.3973 -9.2 2.00931
      vertex 28.3973 -12.2 2.00931
    endloop
  endfacet
  facet normal -0 0 1
    outer loop
      vertex 28.3973 12.2 2.00931
      vertex 28.7527 9.2 2.00931
      vertex 28.7527 12.2 2.00931
    endloop
  endfacet
  facet normal 0 0 1
    outer loop
      vertex 28.7527 9.2 2.00931
      vertex 28.3973 12.2 2.00931
      vertex 28.3973 9.2 2.00931
    endloop
  endfacet
  facet normal -0.406738 0 0.913545
    outer loop
      vertex 29.1003 -9.2 2.0832
      vertex 29.425 -12.2 2.22776
      vertex 29.425 -9.2 2.22776
    endloop
  endfacet
  facet normal -0.406738 0 0.913545
    outer loop
      vertex 29.425 -12.2 2.22776
      vertex 29.1003 -9.2 2.0832
      vertex 29.1003 -12.2 2.0832
    endloop
  endfacet
  facet normal -0.406738 0 0.913545
    outer loop
      vertex 29.1003 12.2 2.0832
      vertex 29.425 9.2 2.22776
      vertex 29.425 12.2 2.22776
    endloop
  endfacet
  facet normal -0.406738 0 0.913545
    outer loop
      vertex 29.425 9.2 2.22776
      vertex 29.1003 12.2 2.0832
      vertex 29.1003 9.2 2.0832
    endloop
  endfacet
  facet normal -0.587783 0 0.809019
    outer loop
      vertex 29.425 -9.2 2.22776
      vertex 29.7125 -12.2 2.43665
      vertex 29.7125 -9.2 2.43665
    endloop
  endfacet
  facet normal -0.587783 0 0.809019
    outer loop
      vertex 29.7125 -12.2 2.43665
      vertex 29.425 -9.2 2.22776
      vertex 29.425 -12.2 2.22776
    endloop
  endfacet
  facet normal -0.587783 0 0.809019
    outer loop
      vertex 29.425 12.2 2.22776
      vertex 29.7125 9.2 2.43665
      vertex 29.7125 12.2 2.43665
    endloop
  endfacet
  facet normal -0.587783 0 0.809019
    outer loop
      vertex 29.7125 9.2 2.43665
      vertex 29.425 12.2 2.22776
      vertex 29.425 9.2 2.22776
    endloop
  endfacet
  facet normal -0.743146 0 0.669129
    outer loop
      vertex 29.7125 -12.2 2.43665
      vertex 29.9503 -9.2 2.70076
      vertex 29.7125 -9.2 2.43665
    endloop
  endfacet
  facet normal -0.743146 0 0.669129
    outer loop
      vertex 29.9503 -9.2 2.70076
      vertex 29.7125 -12.2 2.43665
      vertex 29.9503 -12.2 2.70076
    endloop
  endfacet
  facet normal -0.743146 0 0.669129
    outer loop
      vertex 29.7125 9.2 2.43665
      vertex 29.9503 12.2 2.70076
      vertex 29.7125 12.2 2.43665
    endloop
  endfacet
  facet normal -0.743146 0 0.669129
    outer loop
      vertex 29.9503 12.2 2.70076
      vertex 29.7125 9.2 2.43665
      vertex 29.9503 9.2 2.70076
    endloop
  endfacet
  facet normal -0.951057 0 0.309015
    outer loop
      vertex 30.128 -12.2 3.00855
      vertex 30.2379 -9.2 3.34655
      vertex 30.128 -9.2 3.00855
    endloop
  endfacet
  facet normal -0.951057 0 0.309015
    outer loop
      vertex 30.2379 -9.2 3.34655
      vertex 30.128 -12.2 3.00855
      vertex 30.2379 -12.2 3.34655
    endloop
  endfacet
  facet normal -0.951057 0 0.309015
    outer loop
      vertex 30.128 9.2 3.00855
      vertex 30.2379 12.2 3.34655
      vertex 30.128 12.2 3.00855
    endloop
  endfacet
  facet normal -0.951057 0 0.309015
    outer loop
      vertex 30.2379 12.2 3.34655
      vertex 30.128 9.2 3.00855
      vertex 30.2379 9.2 3.34655
    endloop
  endfacet
  facet normal -0.994522 0 0.104529
    outer loop
      vertex 30.2379 -12.2 3.34655
      vertex 30.275 -9.2 3.7
      vertex 30.2379 -9.2 3.34655
    endloop
  endfacet
  facet normal -0.994522 0 0.104529
    outer loop
      vertex 30.275 -9.2 3.7
      vertex 30.2379 -12.2 3.34655
      vertex 30.275 -12.2 3.7
    endloop
  endfacet
  facet normal -0.994522 0 0.104529
    outer loop
      vertex 30.2379 9.2 3.34655
      vertex 30.275 12.2 3.7
      vertex 30.2379 12.2 3.34655
    endloop
  endfacet
  facet normal -0.994522 0 0.104529
    outer loop
      vertex 30.275 12.2 3.7
      vertex 30.2379 9.2 3.34655
      vertex 30.275 9.2 3.7
    endloop
  endfacet
  facet normal -0 0 1
    outer loop
      vertex 10.6369 8.7 1.99452
      vertex 24.3585 -8.7 1.99452
      vertex 24.3585 8.7 1.99452
    endloop
  endfacet
  facet normal 0 0 1
    outer loop
      vertex 24.3585 -8.7 1.99452
      vertex 10.6369 8.7 1.99452
      vertex 10.6369 -8.7 1.99452
    endloop
  endfacet
  facet normal 0 1 0
    outer loop
      vertex 24.3585 8.7 1.99452
      vertex 10.7385 8.7 1.88168
      vertex 10.6369 8.7 1.99452
    endloop
  endfacet
  facet normal 0 1 0
    outer loop
      vertex 10.9922 8.7 0.688133
      vertex 24.3585 8.7 1.99452
      vertex 24.464 8.7 1.66969
    endloop
  endfacet
  facet normal 0 1 0
    outer loop
      vertex 24.3585 8.7 1.99452
      vertex 10.8953 8.7 1.6101
      vertex 10.7385 8.7 1.88168
    endloop
  endfacet
  facet normal 0 1 0
    outer loop
      vertex 24.3585 8.7 1.99452
      vertex 10.9922 8.7 1.31187
      vertex 10.8953 8.7 1.6101
    endloop
  endfacet
  facet normal 0 1 0
    outer loop
      vertex 24.3585 8.7 1.99452
      vertex 11.025 8.7 1
      vertex 10.9922 8.7 1.31187
    endloop
  endfacet
  facet normal 0 1 0
    outer loop
      vertex 10.8953 8.7 0.389895
      vertex 24.464 8.7 1.66969
      vertex 24.9344 8.7 0.854967
    endloop
  endfacet
  facet normal 0 1 0
    outer loop
      vertex 24.3585 8.7 1.99452
      vertex 10.9922 8.7 0.688133
      vertex 11.025 8.7 1
    endloop
  endfacet
  facet normal 0 1 0
    outer loop
      vertex 24.464 8.7 1.66969
      vertex 10.8953 8.7 0.389895
      vertex 10.9922 8.7 0.688133
    endloop
  endfacet
  facet normal 0 1 0
    outer loop
      vertex 10.7385 8.7 0.118322
      vertex 24.9344 8.7 0.854967
      vertex 25.5639 8.7 0.155849
    endloop
  endfacet
  facet normal 0 1 0
    outer loop
      vertex 24.9344 8.7 0.854967
      vertex 10.7385 8.7 0.118322
      vertex 10.8953 8.7 0.389895
    endloop
  endfacet
  facet normal 0 1 0
    outer loop
      vertex 10.6369 8.7 0.00547886
      vertex 25.5639 8.7 0.155849
      vertex 25.7709 8.7 0.00547886
    endloop
  endfacet
  facet normal 0 1 0
    outer loop
      vertex 25.5639 8.7 0.155849
      vertex 10.6369 8.7 0.00547886
      vertex 10.7385 8.7 0.118322
    endloop
  endfacet
  facet normal 0 -1 0
    outer loop
      vertex 10.7385 -8.7 1.88168
      vertex 24.3585 -8.7 1.99452
      vertex 10.6369 -8.7 1.99452
    endloop
  endfacet
  facet normal 0 -1 0
    outer loop
      vertex 10.8953 -8.7 1.6101
      vertex 24.3585 -8.7 1.99452
      vertex 10.7385 -8.7 1.88168
    endloop
  endfacet
  facet normal 0 -1 0
    outer loop
      vertex 10.9922 -8.7 1.31187
      vertex 24.3585 -8.7 1.99452
      vertex 10.8953 -8.7 1.6101
    endloop
  endfacet
  facet normal 0 -1 0
    outer loop
      vertex 11.025 -8.7 1
      vertex 24.3585 -8.7 1.99452
      vertex 10.9922 -8.7 1.31187
    endloop
  endfacet
  facet normal 0 -1 0
    outer loop
      vertex 10.9922 -8.7 0.688133
      vertex 24.3585 -8.7 1.99452
      vertex 11.025 -8.7 1
    endloop
  endfacet
  facet normal 0 -1 -0
    outer loop
      vertex 24.3585 -8.7 1.99452
      vertex 10.9922 -8.7 0.688133
      vertex 24.464 -8.7 1.66969
    endloop
  endfacet
  facet normal 0 -1 0
    outer loop
      vertex 10.8953 -8.7 0.389895
      vertex 24.464 -8.7 1.66969
      vertex 10.9922 -8.7 0.688133
    endloop
  endfacet
  facet normal 0 -1 -0
    outer loop
      vertex 24.464 -8.7 1.66969
      vertex 10.8953 -8.7 0.389895
      vertex 24.9344 -8.7 0.854967
    endloop
  endfacet
  facet normal 0 -1 0
    outer loop
      vertex 10.7385 -8.7 0.118322
      vertex 24.9344 -8.7 0.854967
      vertex 10.8953 -8.7 0.389895
    endloop
  endfacet
  facet normal 0 -1 -0
    outer loop
      vertex 24.9344 -8.7 0.854967
      vertex 10.7385 -8.7 0.118322
      vertex 25.5639 -8.7 0.155849
    endloop
  endfacet
  facet normal 0 -1 0
    outer loop
      vertex 10.6369 -8.7 0.00547886
      vertex 25.5639 -8.7 0.155849
      vertex 10.7385 -8.7 0.118322
    endloop
  endfacet
  facet normal 0 -1 -0
    outer loop
      vertex 25.5639 -8.7 0.155849
      vertex 10.6369 -8.7 0.00547886
      vertex 25.7709 -8.7 0.00547886
    endloop
  endfacet
  facet normal 0.994522 -0 0.104529
    outer loop
      vertex 10.9922 8.7 1.31187
      vertex 11.025 12.2 1
      vertex 10.9922 12.2 1.31187
    endloop
  endfacet
  facet normal 0.994522 0 0.104529
    outer loop
      vertex 11.025 12.2 1
      vertex 10.9922 8.7 1.31187
      vertex 11.025 8.7 1
    endloop
  endfacet
  facet normal 0.994522 -0 0.104529
    outer loop
      vertex 10.9922 -12.2 1.31187
      vertex 11.025 -8.7 1
      vertex 10.9922 -8.7 1.31187
    endloop
  endfacet
  facet normal 0.994522 0 0.104529
    outer loop
      vertex 11.025 -8.7 1
      vertex 10.9922 -12.2 1.31187
      vertex 11.025 -12.2 1
    endloop
  endfacet
  facet normal 0.866026 -0 0.5
    outer loop
      vertex 10.7385 8.7 1.88168
      vertex 10.8953 12.2 1.6101
      vertex 10.7385 12.2 1.88168
    endloop
  endfacet
  facet normal 0.866026 0 0.5
    outer loop
      vertex 10.8953 12.2 1.6101
      vertex 10.7385 8.7 1.88168
      vertex 10.8953 8.7 1.6101
    endloop
  endfacet
  facet normal 0.866026 -0 0.5
    outer loop
      vertex 10.7385 -12.2 1.88168
      vertex 10.8953 -8.7 1.6101
      vertex 10.7385 -8.7 1.88168
    endloop
  endfacet
  facet normal 0.866026 0 0.5
    outer loop
      vertex 10.8953 -8.7 1.6101
      vertex 10.7385 -12.2 1.88168
      vertex 10.8953 -12.2 1.6101
    endloop
  endfacet
  facet normal -0.406736 0 0.913546
    outer loop
      vertex 8.775 12.2 2.29904
      vertex 9.06147 -12.2 2.42658
      vertex 9.06147 12.2 2.42658
    endloop
  endfacet
  facet normal -0.406736 0 0.913546
    outer loop
      vertex 9.06147 -12.2 2.42658
      vertex 8.775 12.2 2.29904
      vertex 8.775 -12.2 2.29904
    endloop
  endfacet
  facet normal 0.994522 0 -0.104529
    outer loop
      vertex 11.025 -12.2 1
      vertex 10.9922 -8.7 0.688133
      vertex 11.025 -8.7 1
    endloop
  endfacet
  facet normal 0.994522 0 -0.104529
    outer loop
      vertex 10.9922 -8.7 0.688133
      vertex 11.025 -12.2 1
      vertex 10.9922 -12.2 0.688133
    endloop
  endfacet
  facet normal 0.994522 0 -0.104529
    outer loop
      vertex 11.025 8.7 1
      vertex 10.9922 12.2 0.688133
      vertex 11.025 12.2 1
    endloop
  endfacet
  facet normal 0.994522 0 -0.104529
    outer loop
      vertex 10.9922 12.2 0.688133
      vertex 11.025 8.7 1
      vertex 10.9922 8.7 0.688133
    endloop
  endfacet
  facet normal 0.587786 0 0.809017
    outer loop
      vertex 10.275 12.2 2.29904
      vertex 10.5287 -12.2 2.11472
      vertex 10.5287 12.2 2.11472
    endloop
  endfacet
  facet normal 0.587786 0 0.809017
    outer loop
      vertex 10.5287 -12.2 2.11472
      vertex 10.275 12.2 2.29904
      vertex 10.275 -12.2 2.29904
    endloop
  endfacet
  facet normal 0.743145 -1.23528e-07 0.669131
    outer loop
      vertex 10.5287 12.2 2.11472
      vertex 10.6369 8.7 1.99452
      vertex 10.7385 12.2 1.88168
    endloop
  endfacet
  facet normal 0.743146 0 0.669129
    outer loop
      vertex 10.5287 12.2 2.11472
      vertex 10.6369 -8.7 1.99452
      vertex 10.6369 8.7 1.99452
    endloop
  endfacet
  facet normal 0.743146 -0 0.669129
    outer loop
      vertex 10.5287 -12.2 2.11472
      vertex 10.6369 -8.7 1.99452
      vertex 10.5287 12.2 2.11472
    endloop
  endfacet
  facet normal 0.743145 1.23528e-07 0.669131
    outer loop
      vertex 10.7385 -12.2 1.88168
      vertex 10.6369 -8.7 1.99452
      vertex 10.5287 -12.2 2.11472
    endloop
  endfacet
  facet normal 0.743143 0 0.669133
    outer loop
      vertex 10.6369 -8.7 1.99452
      vertex 10.7385 -12.2 1.88168
      vertex 10.7385 -8.7 1.88168
    endloop
  endfacet
  facet normal 0.743143 0 0.669133
    outer loop
      vertex 10.7385 12.2 1.88168
      vertex 10.6369 8.7 1.99452
      vertex 10.7385 8.7 1.88168
    endloop
  endfacet
  facet normal -0 0 1
    outer loop
      vertex 9.36821 12.2 2.49178
      vertex 9.68179 -12.2 2.49178
      vertex 9.68179 12.2 2.49178
    endloop
  endfacet
  facet normal 0 0 1
    outer loop
      vertex 9.68179 -12.2 2.49178
      vertex 9.36821 12.2 2.49178
      vertex 9.36821 -12.2 2.49178
    endloop
  endfacet
  facet normal 0.406736 0 0.913546
    outer loop
      vertex 9.98853 12.2 2.42658
      vertex 10.275 -12.2 2.29904
      vertex 10.275 12.2 2.29904
    endloop
  endfacet
  facet normal 0.406736 0 0.913546
    outer loop
      vertex 10.275 -12.2 2.29904
      vertex 9.98853 12.2 2.42658
      vertex 9.98853 -12.2 2.42658
    endloop
  endfacet
  facet normal -0.994522 0 0.104529
    outer loop
      vertex 8.025 -12.2 1
      vertex 8.05778 12.2 1.31187
      vertex 8.025 12.2 1
    endloop
  endfacet
  facet normal -0.994522 0 0.104529
    outer loop
      vertex 8.05778 12.2 1.31187
      vertex 8.025 -12.2 1
      vertex 8.05778 -12.2 1.31187
    endloop
  endfacet
  facet normal -0.866026 0 0.5
    outer loop
      vertex 8.15468 -12.2 1.6101
      vertex 8.31147 12.2 1.88168
      vertex 8.15468 12.2 1.6101
    endloop
  endfacet
  facet normal -0.866026 0 0.5
    outer loop
      vertex 8.31147 12.2 1.88168
      vertex 8.15468 -12.2 1.6101
      vertex 8.31147 -12.2 1.88168
    endloop
  endfacet
  facet normal 0.951057 -0 0.309016
    outer loop
      vertex 10.8953 8.7 1.6101
      vertex 10.9922 12.2 1.31187
      vertex 10.8953 12.2 1.6101
    endloop
  endfacet
  facet normal 0.951057 0 0.309016
    outer loop
      vertex 10.9922 12.2 1.31187
      vertex 10.8953 8.7 1.6101
      vertex 10.9922 8.7 1.31187
    endloop
  endfacet
  facet normal 0.951057 -0 0.309016
    outer loop
      vertex 10.8953 -12.2 1.6101
      vertex 10.9922 -8.7 1.31187
      vertex 10.8953 -8.7 1.6101
    endloop
  endfacet
  facet normal 0.951057 0 0.309016
    outer loop
      vertex 10.9922 -8.7 1.31187
      vertex 10.8953 -12.2 1.6101
      vertex 10.9922 -12.2 1.31187
    endloop
  endfacet
  facet normal 0.207911 0 0.978148
    outer loop
      vertex 9.68179 12.2 2.49178
      vertex 9.98853 -12.2 2.42658
      vertex 9.98853 12.2 2.42658
    endloop
  endfacet
  facet normal 0.207911 0 0.978148
    outer loop
      vertex 9.98853 -12.2 2.42658
      vertex 9.68179 12.2 2.49178
      vertex 9.68179 -12.2 2.49178
    endloop
  endfacet
  facet normal 0 -1 0
    outer loop
      vertex 9.06147 -12.2 2.42658
      vertex 9.68179 -12.2 2.49178
      vertex 9.36821 -12.2 2.49178
    endloop
  endfacet
  facet normal 0 -1 0
    outer loop
      vertex 9.06147 -12.2 2.42658
      vertex 9.98853 -12.2 2.42658
      vertex 9.68179 -12.2 2.49178
    endloop
  endfacet
  facet normal 0 -1 0
    outer loop
      vertex 8.775 -12.2 2.29904
      vertex 9.98853 -12.2 2.42658
      vertex 9.06147 -12.2 2.42658
    endloop
  endfacet
  facet normal 0 -1 0
    outer loop
      vertex 8.775 -12.2 2.29904
      vertex 10.275 -12.2 2.29904
      vertex 9.98853 -12.2 2.42658
    endloop
  endfacet
  facet normal 0 -1 0
    outer loop
      vertex 8.52131 -12.2 2.11472
      vertex 10.275 -12.2 2.29904
      vertex 8.775 -12.2 2.29904
    endloop
  endfacet
  facet normal 0 -1 0
    outer loop
      vertex 8.52131 -12.2 2.11472
      vertex 10.5287 -12.2 2.11472
      vertex 10.275 -12.2 2.29904
    endloop
  endfacet
  facet normal 0 -1 0
    outer loop
      vertex 8.31147 -12.2 1.88168
      vertex 10.5287 -12.2 2.11472
      vertex 8.52131 -12.2 2.11472
    endloop
  endfacet
  facet normal 0 -1 0
    outer loop
      vertex 8.31147 -12.2 1.88168
      vertex 10.7385 -12.2 1.88168
      vertex 10.5287 -12.2 2.11472
    endloop
  endfacet
  facet normal 0 -1 0
    outer loop
      vertex 8.15468 -12.2 1.6101
      vertex 10.7385 -12.2 1.88168
      vertex 8.31147 -12.2 1.88168
    endloop
  endfacet
  facet normal 0 -1 0
    outer loop
      vertex 8.15468 -12.2 1.6101
      vertex 10.8953 -12.2 1.6101
      vertex 10.7385 -12.2 1.88168
    endloop
  endfacet
  facet normal 0 -1 0
    outer loop
      vertex 8.05778 -12.2 1.31187
      vertex 10.8953 -12.2 1.6101
      vertex 8.15468 -12.2 1.6101
    endloop
  endfacet
  facet normal 0 -1 0
    outer loop
      vertex 8.05778 -12.2 1.31187
      vertex 10.9922 -12.2 1.31187
      vertex 10.8953 -12.2 1.6101
    endloop
  endfacet
  facet normal 0 -1 0
    outer loop
      vertex 8.025 -12.2 1
      vertex 10.9922 -12.2 1.31187
      vertex 8.05778 -12.2 1.31187
    endloop
  endfacet
  facet normal 0 -1 0
    outer loop
      vertex 8.025 -12.2 1
      vertex 11.025 -12.2 1
      vertex 10.9922 -12.2 1.31187
    endloop
  endfacet
  facet normal 0 -1 0
    outer loop
      vertex 8.41801 -12.2 0
      vertex 8.025 -12.2 1
      vertex 8.05778 -12.2 0.688133
    endloop
  endfacet
  facet normal 0 -1 0
    outer loop
      vertex 8.025 -12.2 1
      vertex 8.41801 -12.2 0
      vertex 11.025 -12.2 1
    endloop
  endfacet
  facet normal 0 -1 0
    outer loop
      vertex 8.41801 -12.2 0
      vertex 8.05778 -12.2 0.688133
      vertex 8.15468 -12.2 0.389895
    endloop
  endfacet
  facet normal 0 -1 0
    outer loop
      vertex 10.632 -12.2 0
      vertex 11.025 -12.2 1
      vertex 8.41801 -12.2 0
    endloop
  endfacet
  facet normal 0 -1 0
    outer loop
      vertex 8.41801 -12.2 0
      vertex 8.15468 -12.2 0.389895
      vertex 8.31147 -12.2 0.118322
    endloop
  endfacet
  facet normal 0 -1 0
    outer loop
      vertex 11.025 -12.2 1
      vertex 10.632 -12.2 0
      vertex 10.9922 -12.2 0.688133
    endloop
  endfacet
  facet normal 0 -1 0
    outer loop
      vertex 10.9922 -12.2 0.688133
      vertex 10.632 -12.2 0
      vertex 10.8953 -12.2 0.389895
    endloop
  endfacet
  facet normal 0 -1 0
    outer loop
      vertex 10.8953 -12.2 0.389895
      vertex 10.632 -12.2 0
      vertex 10.7385 -12.2 0.118322
    endloop
  endfacet
  facet normal -0.951057 0 0.309016
    outer loop
      vertex 8.05778 -12.2 1.31187
      vertex 8.15468 12.2 1.6101
      vertex 8.05778 12.2 1.31187
    endloop
  endfacet
  facet normal -0.951057 0 0.309016
    outer loop
      vertex 8.15468 12.2 1.6101
      vertex 8.05778 -12.2 1.31187
      vertex 8.15468 -12.2 1.6101
    endloop
  endfacet
  facet normal -0.207911 0 0.978148
    outer loop
      vertex 9.06147 12.2 2.42658
      vertex 9.36821 -12.2 2.49178
      vertex 9.36821 12.2 2.49178
    endloop
  endfacet
  facet normal -0.207911 0 0.978148
    outer loop
      vertex 9.36821 -12.2 2.49178
      vertex 9.06147 12.2 2.42658
      vertex 9.06147 -12.2 2.42658
    endloop
  endfacet
  facet normal -0.587787 0 0.809016
    outer loop
      vertex 8.52131 12.2 2.11472
      vertex 8.775 -12.2 2.29904
      vertex 8.775 12.2 2.29904
    endloop
  endfacet
  facet normal -0.587787 0 0.809016
    outer loop
      vertex 8.775 -12.2 2.29904
      vertex 8.52131 12.2 2.11472
      vertex 8.52131 -12.2 2.11472
    endloop
  endfacet
  facet normal -0.743143 0 0.669133
    outer loop
      vertex 8.31147 -12.2 1.88168
      vertex 8.52131 12.2 2.11472
      vertex 8.31147 12.2 1.88168
    endloop
  endfacet
  facet normal -0.743143 0 0.669133
    outer loop
      vertex 8.52131 12.2 2.11472
      vertex 8.31147 -12.2 1.88168
      vertex 8.52131 -12.2 2.11472
    endloop
  endfacet
  facet normal 0.951057 0 -0.309016
    outer loop
      vertex 10.9922 8.7 0.688133
      vertex 10.8953 12.2 0.389895
      vertex 10.9922 12.2 0.688133
    endloop
  endfacet
  facet normal 0.951057 0 -0.309016
    outer loop
      vertex 10.8953 12.2 0.389895
      vertex 10.9922 8.7 0.688133
      vertex 10.8953 8.7 0.389895
    endloop
  endfacet
  facet normal 0.951057 0 -0.309016
    outer loop
      vertex 10.9922 -12.2 0.688133
      vertex 10.8953 -8.7 0.389895
      vertex 10.9922 -8.7 0.688133
    endloop
  endfacet
  facet normal 0.951057 0 -0.309016
    outer loop
      vertex 10.8953 -8.7 0.389895
      vertex 10.9922 -12.2 0.688133
      vertex 10.8953 -12.2 0.389895
    endloop
  endfacet
  facet normal 0.866026 0 -0.5
    outer loop
      vertex 10.8953 8.7 0.389895
      vertex 10.7385 12.2 0.118322
      vertex 10.8953 12.2 0.389895
    endloop
  endfacet
  facet normal 0.866026 0 -0.5
    outer loop
      vertex 10.7385 12.2 0.118322
      vertex 10.8953 8.7 0.389895
      vertex 10.7385 8.7 0.118322
    endloop
  endfacet
  facet normal 0.866026 0 -0.5
    outer loop
      vertex 10.8953 -12.2 0.389895
      vertex 10.7385 -8.7 0.118322
      vertex 10.8953 -8.7 0.389895
    endloop
  endfacet
  facet normal 0.866026 0 -0.5
    outer loop
      vertex 10.7385 -8.7 0.118322
      vertex 10.8953 -12.2 0.389895
      vertex 10.7385 -12.2 0.118322
    endloop
  endfacet
  facet normal -0.994522 0 -0.104529
    outer loop
      vertex 8.05778 -12.2 0.688133
      vertex 8.025 12.2 1
      vertex 8.05778 12.2 0.688133
    endloop
  endfacet
  facet normal -0.994522 -0 -0.104529
    outer loop
      vertex 8.025 12.2 1
      vertex 8.05778 -12.2 0.688133
      vertex 8.025 -12.2 1
    endloop
  endfacet
  facet normal -0.866026 0 -0.5
    outer loop
      vertex 8.31147 -12.2 0.118322
      vertex 8.15468 12.2 0.389895
      vertex 8.31147 12.2 0.118322
    endloop
  endfacet
  facet normal -0.866026 -0 -0.5
    outer loop
      vertex 8.15468 12.2 0.389895
      vertex 8.31147 -12.2 0.118322
      vertex 8.15468 -12.2 0.389895
    endloop
  endfacet
  facet normal 0 1 0
    outer loop
      vertex 9.98853 12.2 2.42658
      vertex 9.36821 12.2 2.49178
      vertex 9.68179 12.2 2.49178
    endloop
  endfacet
  facet normal 0 1 0
    outer loop
      vertex 9.98853 12.2 2.42658
      vertex 9.06147 12.2 2.42658
      vertex 9.36821 12.2 2.49178
    endloop
  endfacet
  facet normal 0 1 0
    outer loop
      vertex 10.275 12.2 2.29904
      vertex 9.06147 12.2 2.42658
      vertex 9.98853 12.2 2.42658
    endloop
  endfacet
  facet normal 0 1 0
    outer loop
      vertex 10.275 12.2 2.29904
      vertex 8.775 12.2 2.29904
      vertex 9.06147 12.2 2.42658
    endloop
  endfacet
  facet normal 0 1 0
    outer loop
      vertex 10.5287 12.2 2.11472
      vertex 8.775 12.2 2.29904
      vertex 10.275 12.2 2.29904
    endloop
  endfacet
  facet normal 0 1 0
    outer loop
      vertex 10.5287 12.2 2.11472
      vertex 8.52131 12.2 2.11472
      vertex 8.775 12.2 2.29904
    endloop
  endfacet
  facet normal 0 1 0
    outer loop
      vertex 10.7385 12.2 1.88168
      vertex 8.52131 12.2 2.11472
      vertex 10.5287 12.2 2.11472
    endloop
  endfacet
  facet normal 0 1 0
    outer loop
      vertex 10.7385 12.2 1.88168
      vertex 8.31147 12.2 1.88168
      vertex 8.52131 12.2 2.11472
    endloop
  endfacet
  facet normal 0 1 0
    outer loop
      vertex 10.8953 12.2 1.6101
      vertex 8.31147 12.2 1.88168
      vertex 10.7385 12.2 1.88168
    endloop
  endfacet
  facet normal 0 1 0
    outer loop
      vertex 10.8953 12.2 1.6101
      vertex 8.15468 12.2 1.6101
      vertex 8.31147 12.2 1.88168
    endloop
  endfacet
  facet normal 0 1 0
    outer loop
      vertex 10.9922 12.2 1.31187
      vertex 8.15468 12.2 1.6101
      vertex 10.8953 12.2 1.6101
    endloop
  endfacet
  facet normal 0 1 0
    outer loop
      vertex 10.9922 12.2 1.31187
      vertex 8.05778 12.2 1.31187
      vertex 8.15468 12.2 1.6101
    endloop
  endfacet
  facet normal 0 1 0
    outer loop
      vertex 11.025 12.2 1
      vertex 8.05778 12.2 1.31187
      vertex 10.9922 12.2 1.31187
    endloop
  endfacet
  facet normal 0 1 0
    outer loop
      vertex 11.025 12.2 1
      vertex 8.025 12.2 1
      vertex 8.05778 12.2 1.31187
    endloop
  endfacet
  facet normal 0 1 0
    outer loop
      vertex 10.632 12.2 0
      vertex 11.025 12.2 1
      vertex 10.9922 12.2 0.688133
    endloop
  endfacet
  facet normal 0 1 0
    outer loop
      vertex 11.025 12.2 1
      vertex 10.632 12.2 0
      vertex 8.025 12.2 1
    endloop
  endfacet
  facet normal 0 1 0
    outer loop
      vertex 10.632 12.2 0
      vertex 10.9922 12.2 0.688133
      vertex 10.8953 12.2 0.389895
    endloop
  endfacet
  facet normal 0 1 -0
    outer loop
      vertex 8.41801 12.2 0
      vertex 8.025 12.2 1
      vertex 10.632 12.2 0
    endloop
  endfacet
  facet normal 0 1 0
    outer loop
      vertex 10.632 12.2 0
      vertex 10.8953 12.2 0.389895
      vertex 10.7385 12.2 0.118322
    endloop
  endfacet
  facet normal 0 1 0
    outer loop
      vertex 8.025 12.2 1
      vertex 8.41801 12.2 0
      vertex 8.05778 12.2 0.688133
    endloop
  endfacet
  facet normal 0 1 0
    outer loop
      vertex 8.05778 12.2 0.688133
      vertex 8.41801 12.2 0
      vertex 8.15468 12.2 0.389895
    endloop
  endfacet
  facet normal 0 1 0
    outer loop
      vertex 8.15468 12.2 0.389895
      vertex 8.41801 12.2 0
      vertex 8.31147 12.2 0.118322
    endloop
  endfacet
  facet normal -0.951057 0 -0.309016
    outer loop
      vertex 8.15468 -12.2 0.389895
      vertex 8.05778 12.2 0.688133
      vertex 8.15468 12.2 0.389895
    endloop
  endfacet
  facet normal -0.951057 -0 -0.309016
    outer loop
      vertex 8.05778 12.2 0.688133
      vertex 8.15468 -12.2 0.389895
      vertex 8.05778 -12.2 0.688133
    endloop
  endfacet
  facet normal 0.743143 0 -0.669133
    outer loop
      vertex 10.7385 -8.7 0.118322
      vertex 10.7385 -12.2 0.118322
      vertex 10.6369 -8.7 0.00547886
    endloop
  endfacet
  facet normal 0.743145 0 -0.66913
    outer loop
      vertex 10.7385 8.7 0.118322
      vertex 10.632 12.2 0
      vertex 10.7385 12.2 0.118322
    endloop
  endfacet
  facet normal 0.743143 -1.7309e-07 -0.669133
    outer loop
      vertex 10.6369 8.7 0.00547886
      vertex 10.632 12.2 0
      vertex 10.7385 8.7 0.118322
    endloop
  endfacet
  facet normal 0.743198 0 -0.669072
    outer loop
      vertex 10.6369 -8.7 0.00547886
      vertex 10.632 12.2 0
      vertex 10.6369 8.7 0.00547886
    endloop
  endfacet
  facet normal 0.743198 0 -0.669072
    outer loop
      vertex 10.6369 -8.7 0.00547886
      vertex 10.632 -12.2 0
      vertex 10.632 12.2 0
    endloop
  endfacet
  facet normal 0.743145 1.65076e-07 -0.66913
    outer loop
      vertex 10.632 -12.2 0
      vertex 10.6369 -8.7 0.00547886
      vertex 10.7385 -12.2 0.118322
    endloop
  endfacet
  facet normal -0.743142 0 -0.669133
    outer loop
      vertex 8.41801 -12.2 0
      vertex 8.31147 12.2 0.118322
      vertex 8.41801 12.2 0
    endloop
  endfacet
  facet normal -0.743142 -0 -0.669133
    outer loop
      vertex 8.31147 12.2 0.118322
      vertex 8.41801 -12.2 0
      vertex 8.31147 -12.2 0.118322
    endloop
  endfacet
  facet normal 0 0 -1
    outer loop
      vertex 8.41801 -12.2 0
      vertex 10.632 12.2 0
      vertex 10.632 -12.2 0
    endloop
  endfacet
  facet normal -0 0 -1
    outer loop
      vertex 10.632 12.2 0
      vertex 8.41801 -12.2 0
      vertex 8.41801 12.2 0
    endloop
  endfacet
  facet normal 0 0 -1
    outer loop
      vertex 25.7784 9.2 0
      vertex 31.3716 12.2 0
      vertex 31.3716 9.2 0
    endloop
  endfacet
  facet normal -0 0 -1
    outer loop
      vertex 31.3716 12.2 0
      vertex 25.7784 9.2 0
      vertex 25.7784 12.2 0
    endloop
  endfacet
  facet normal 0 0 -1
    outer loop
      vertex 25.7784 -12.2 0
      vertex 31.3716 -9.2 0
      vertex 31.3716 -12.2 0
    endloop
  endfacet
  facet normal -0 0 -1
    outer loop
      vertex 31.3716 -9.2 0
      vertex 25.7784 -12.2 0
      vertex 25.7784 -9.2 0
    endloop
  endfacet
endsolid OpenSCAD_Model
